<?xml version="1.0" encoding="UTF-8" standalone="no"?>
<!DOCTYPE svg PUBLIC "-//W3C//DTD SVG 1.1//EN" "http://www.w3.org/Graphics/SVG/1.1/DTD/svg11.dtd">
<!-- Generated by graphviz version 2.28.0 (20110705.1713)
 -->
<!-- Title: G Pages: 1 -->
<svg xmlns="http://www.w3.org/2000/svg" xmlns:xlink="http://www.w3.org/1999/xlink" width="742pt" height="1914pt">
<g id="viewport" class="graph" transform="scale(1 1) rotate(0) translate(4 1910)">
<title>G</title>
<polygon fill="white" stroke="white" points="-4,5 -4,-1910 739,-1910 739,5 -4,5"/>
<g id="graph2" class="cluster"><title>cluster_default</title>
<polyline fill="none" stroke="gray" points="53,-98 714,-98 "/>
<path fill="none" stroke="gray" d="M714,-98C720,-98 726,-104 726,-110"/>
<polyline fill="none" stroke="gray" points="726,-110 726,-1886 "/>
<path fill="none" stroke="gray" d="M726,-1886C726,-1892 720,-1898 714,-1898"/>
<polyline fill="none" stroke="gray" points="714,-1898 53,-1898 "/>
<path fill="none" stroke="gray" d="M53,-1898C47,-1898 41,-1892 41,-1886"/>
<polyline fill="none" stroke="gray" points="41,-1886 41,-110 "/>
<path fill="none" stroke="gray" d="M41,-110C41,-104 47,-98 53,-98"/>
<text text-anchor="middle" x="383.5" y="-1885.2" font-family="Times,serif" font-size="11.00" fill="gray">default</text>
</g>
<!-- _disBanGroup -->
<g id="node2" class="node"><title>_disBanGroup</title>
<a xlink:href="_disbangroup.class.html" xlink:title="disBanGroup" target="_parent">
<polygon fill="none" stroke="black" points="399.5,-1087 308.5,-1087 308.5,-1051 399.5,-1051 399.5,-1087"/>
<text text-anchor="middle" x="354" y="-1066.2" font-family="Courier New" font-size="11.00">disBanGroup</text>
</a>
</g>
<!-- _xPDOSimpleObject -->
<g id="node63" class="node"><title>_xPDOSimpleObject</title>
<ellipse fill="none" stroke="black" cx="88" cy="-72" rx="87.9851" ry="18"/>
<text text-anchor="middle" x="88" y="-68.3" font-family="Times,serif" font-size="14.00" fill="gray">\xPDOSimpleObject</text>
</g>
<!-- _disBanGroup&#45;&gt;_xPDOSimpleObject -->
<g id="edge3" class="edge"><title>_disBanGroup-&gt;_xPDOSimpleObject</title>
<path fill="none" stroke="black" d="M308.401,-1068.96C286.885,-1066.44 262.628,-1059.46 248,-1042 112.306,-880.063 312.019,-255.664 176,-94 174.072,-91.7089 171.944,-89.6377 169.655,-87.7665"/>
<polygon fill="none" stroke="black" points="171.566,-84.8338 161.318,-82.1453 167.653,-90.6378 171.566,-84.8338"/>
</g>
<!-- _disBanItem -->
<g id="node3" class="node"><title>_disBanItem</title>
<a xlink:href="_disbanitem.class.html" xlink:title="disBanItem" target="_parent">
<polygon fill="none" stroke="black" points="396,-1033 312,-1033 312,-997 396,-997 396,-1033"/>
<text text-anchor="middle" x="354" y="-1012.2" font-family="Courier New" font-size="11.00">disBanItem</text>
</a>
</g>
<!-- _disBanItem&#45;&gt;_xPDOSimpleObject -->
<g id="edge5" class="edge"><title>_disBanItem-&gt;_xPDOSimpleObject</title>
<path fill="none" stroke="black" d="M311.875,-1015.3C289.561,-1013.13 263.455,-1006.36 248,-988 119.641,-835.525 304.664,-246.217 176,-94 174.067,-91.7133 171.934,-89.6459 169.642,-87.7778"/>
<polygon fill="none" stroke="black" points="171.546,-84.8406 161.295,-82.1652 167.64,-90.6496 171.546,-84.8406"/>
</g>
<!-- _disBoard -->
<g id="node4" class="node"><title>_disBoard</title>
<a xlink:href="_disboard.class.html" xlink:title="disBoard" target="_parent">
<polygon fill="none" stroke="black" points="389.5,-979 318.5,-979 318.5,-943 389.5,-943 389.5,-979"/>
<text text-anchor="middle" x="354" y="-958.2" font-family="Courier New" font-size="11.00">disBoard</text>
</a>
</g>
<!-- _disBoard&#45;&gt;_xPDOSimpleObject -->
<g id="edge7" class="edge"><title>_disBoard-&gt;_xPDOSimpleObject</title>
<path fill="none" stroke="black" d="M318.346,-961.783C294.829,-960.304 265.022,-954.115 248,-934 126.975,-790.985 297.311,-236.773 176,-94 174.061,-91.7182 171.923,-89.6551 169.627,-87.7906"/>
<polygon fill="none" stroke="black" points="171.524,-84.8484 161.268,-82.1876 167.626,-90.6629 171.524,-84.8484"/>
</g>
<!-- _disBoardClosure -->
<g id="node5" class="node"><title>_disBoardClosure</title>
<a xlink:href="_disboardclosure.class.html" xlink:title="disBoardClosure" target="_parent">
<polygon fill="none" stroke="black" points="413,-601 295,-601 295,-565 413,-565 413,-601"/>
<text text-anchor="middle" x="354" y="-580.2" font-family="Courier New" font-size="11.00">disBoardClosure</text>
</a>
</g>
<!-- _xPDOObject -->
<g id="node67" class="node"><title>_xPDOObject</title>
<ellipse fill="none" stroke="black" cx="88" cy="-18" rx="61.99" ry="18"/>
<text text-anchor="middle" x="88" y="-14.3" font-family="Times,serif" font-size="14.00" fill="gray">\xPDOObject</text>
</g>
<!-- _disBoardClosure&#45;&gt;_xPDOObject -->
<g id="edge9" class="edge"><title>_disBoardClosure-&gt;_xPDOObject</title>
<path fill="none" stroke="black" d="M294.789,-580.212C277.451,-576.485 259.918,-569.33 248,-556 95.1287,-385.021 324.617,-219.69 176,-45 170.055,-38.0117 162.336,-32.8042 153.953,-28.9292"/>
<polygon fill="none" stroke="black" points="155.234,-25.6719 144.648,-25.2262 152.645,-32.1758 155.234,-25.6719"/>
</g>
<!-- _disBoardUserGroup -->
<g id="node6" class="node"><title>_disBoardUserGroup</title>
<a xlink:href="_disboardusergroup.class.html" xlink:title="disBoardUserGroup" target="_parent">
<polygon fill="none" stroke="black" points="419.5,-925 288.5,-925 288.5,-889 419.5,-889 419.5,-925"/>
<text text-anchor="middle" x="354" y="-904.2" font-family="Courier New" font-size="11.00">disBoardUserGroup</text>
</a>
</g>
<!-- _disBoardUserGroup&#45;&gt;_xPDOSimpleObject -->
<g id="edge11" class="edge"><title>_disBoardUserGroup-&gt;_xPDOSimpleObject</title>
<path fill="none" stroke="black" d="M288.375,-903.117C273.076,-899.085 258.249,-892.039 248,-880 134.306,-746.441 289.962,-227.331 176,-94 174.055,-91.7239 171.911,-89.6656 169.61,-87.8051"/>
<polygon fill="none" stroke="black" points="171.498,-84.8573 161.238,-82.2132 167.61,-90.6782 171.498,-84.8573"/>
</g>
<!-- _disCategory -->
<g id="node7" class="node"><title>_disCategory</title>
<a xlink:href="_discategory.class.html" xlink:title="disCategory" target="_parent">
<polygon fill="none" stroke="black" points="399.5,-871 308.5,-871 308.5,-835 399.5,-835 399.5,-871"/>
<text text-anchor="middle" x="354" y="-850.2" font-family="Courier New" font-size="11.00">disCategory</text>
</a>
</g>
<!-- _disCategory&#45;&gt;_xPDOSimpleObject -->
<g id="edge13" class="edge"><title>_disCategory-&gt;_xPDOSimpleObject</title>
<path fill="none" stroke="black" d="M308.296,-852.789C286.888,-850.212 262.76,-843.221 248,-826 35.2667,-577.786 389.23,-341.787 176,-94 174.047,-91.7304 171.897,-89.6777 169.59,-87.8219"/>
<polygon fill="none" stroke="black" points="171.468,-84.8676 161.204,-82.2427 167.591,-90.6957 171.468,-84.8676"/>
</g>
<!-- _Discuss -->
<g id="node8" class="node"><title>_Discuss</title>
<a xlink:href="_discuss.class.html" xlink:title="Discuss" target="_parent">
<polygon fill="none" stroke="black" points="657,-1870 593,-1870 593,-1834 657,-1834 657,-1870"/>
<text text-anchor="middle" x="625" y="-1849.2" font-family="Courier New" font-size="11.00">Discuss</text>
</a>
</g>
<!-- _disForumActivity -->
<g id="node9" class="node"><title>_disForumActivity</title>
<a xlink:href="_disforumactivity.class.html" xlink:title="disForumActivity" target="_parent">
<polygon fill="none" stroke="black" points="416.5,-817 291.5,-817 291.5,-781 416.5,-781 416.5,-817"/>
<text text-anchor="middle" x="354" y="-796.2" font-family="Courier New" font-size="11.00">disForumActivity</text>
</a>
</g>
<!-- _disForumActivity&#45;&gt;_xPDOSimpleObject -->
<g id="edge15" class="edge"><title>_disForumActivity-&gt;_xPDOSimpleObject</title>
<path fill="none" stroke="black" d="M291.228,-795.705C274.978,-791.803 258.95,-784.677 248,-772 49.9134,-542.68 374.546,-322.922 176,-94 174.038,-91.738 171.881,-89.6917 169.568,-87.8414"/>
<polygon fill="none" stroke="black" points="171.434,-84.8797 161.164,-82.277 167.57,-90.7162 171.434,-84.8797"/>
</g>
<!-- _disHooks -->
<g id="node10" class="node"><title>_disHooks</title>
<a xlink:href="_dishooks.class.html" xlink:title="disHooks" target="_parent">
<polygon fill="none" stroke="black" points="660.5,-1816 589.5,-1816 589.5,-1780 660.5,-1780 660.5,-1816"/>
<text text-anchor="middle" x="625" y="-1795.2" font-family="Courier New" font-size="11.00">disHooks</text>
</a>
</g>
<!-- _disLogActivity -->
<g id="node11" class="node"><title>_disLogActivity</title>
<a xlink:href="_dislogactivity.class.html" xlink:title="disLogActivity" target="_parent">
<polygon fill="none" stroke="black" points="409.5,-763 298.5,-763 298.5,-727 409.5,-727 409.5,-763"/>
<text text-anchor="middle" x="354" y="-742.2" font-family="Courier New" font-size="11.00">disLogActivity</text>
</a>
</g>
<!-- _disLogActivity&#45;&gt;_xPDOSimpleObject -->
<g id="edge17" class="edge"><title>_disLogActivity-&gt;_xPDOSimpleObject</title>
<path fill="none" stroke="black" d="M298.42,-743.154C279.847,-739.698 260.616,-732.472 248,-718 64.5496,-507.563 359.872,-304.069 176,-94 173.98,-91.692 171.756,-89.6089 169.371,-87.7297"/>
<polygon fill="none" stroke="black" points="171,-84.6137 160.708,-82.0959 167.183,-90.4819 171,-84.6137"/>
</g>
<!-- _disModerator -->
<g id="node12" class="node"><title>_disModerator</title>
<a xlink:href="_dismoderator.class.html" xlink:title="disModerator" target="_parent">
<polygon fill="none" stroke="black" points="403,-709 305,-709 305,-673 403,-673 403,-709"/>
<text text-anchor="middle" x="354" y="-688.2" font-family="Courier New" font-size="11.00">disModerator</text>
</a>
</g>
<!-- _disModerator&#45;&gt;_xPDOSimpleObject -->
<g id="edge19" class="edge"><title>_disModerator-&gt;_xPDOSimpleObject</title>
<path fill="none" stroke="black" d="M304.747,-690.114C284.364,-687.15 262.125,-680.027 248,-664 79.1724,-472.43 345.211,-285.231 176,-94 173.967,-91.7029 171.733,-89.629 169.34,-87.7576"/>
<polygon fill="none" stroke="black" points="170.952,-84.6322 160.653,-82.1447 167.153,-90.5116 170.952,-84.6322"/>
</g>
<!-- _disPost -->
<g id="node13" class="node"><title>_disPost</title>
<a xlink:href="_dispost.class.html" xlink:title="disPost" target="_parent">
<polygon fill="none" stroke="black" points="386,-1519 322,-1519 322,-1483 386,-1483 386,-1519"/>
<text text-anchor="middle" x="354" y="-1498.2" font-family="Courier New" font-size="11.00">disPost</text>
</a>
</g>
<!-- _disPost&#45;&gt;_xPDOSimpleObject -->
<g id="edge21" class="edge"><title>_disPost-&gt;_xPDOSimpleObject</title>
<path fill="none" stroke="black" d="M321.631,-1502.13C297.539,-1501.14 265.518,-1495.42 248,-1474 53.5698,-1236.31 370.906,-331.302 176,-94 174.1,-91.6862 171.994,-89.5958 169.725,-87.7084"/>
<polygon fill="none" stroke="black" points="171.671,-84.7991 161.441,-82.043 167.72,-90.5771 171.671,-84.7991"/>
</g>
<!-- _disPostAttachment -->
<g id="node14" class="node"><title>_disPostAttachment</title>
<a xlink:href="_dispostattachment.class.html" xlink:title="disPostAttachment" target="_parent">
<polygon fill="none" stroke="black" points="419.5,-1465 288.5,-1465 288.5,-1429 419.5,-1429 419.5,-1465"/>
<text text-anchor="middle" x="354" y="-1444.2" font-family="Courier New" font-size="11.00">disPostAttachment</text>
</a>
</g>
<!-- _disPostAttachment&#45;&gt;_xPDOSimpleObject -->
<g id="edge23" class="edge"><title>_disPostAttachment-&gt;_xPDOSimpleObject</title>
<path fill="none" stroke="black" d="M288.343,-1443.44C272.95,-1439.42 258.083,-1432.3 248,-1420 60.915,-1191.78 363.542,-321.843 176,-94 174.097,-91.6882 171.99,-89.5996 169.719,-87.7135"/>
<polygon fill="none" stroke="black" points="171.662,-84.8022 161.43,-82.0521 167.714,-90.5825 171.662,-84.8022"/>
</g>
<!-- _disPostClosure -->
<g id="node15" class="node"><title>_disPostClosure</title>
<a xlink:href="_dispostclosure.class.html" xlink:title="disPostClosure" target="_parent">
<polygon fill="none" stroke="black" points="409.5,-655 298.5,-655 298.5,-619 409.5,-619 409.5,-655"/>
<text text-anchor="middle" x="354" y="-634.2" font-family="Courier New" font-size="11.00">disPostClosure</text>
</a>
</g>
<!-- _disPostClosure&#45;&gt;_xPDOObject -->
<g id="edge25" class="edge"><title>_disPostClosure-&gt;_xPDOObject</title>
<path fill="none" stroke="black" d="M298.24,-635.021C279.762,-631.536 260.639,-624.326 248,-610 80.5256,-420.176 338.752,-238.888 176,-45 170.101,-37.9726 162.408,-32.7436 154.036,-28.8589"/>
<polygon fill="none" stroke="black" points="155.324,-25.6044 144.739,-25.1497 152.73,-32.1061 155.324,-25.6044"/>
</g>
<!-- _disReservedUsername -->
<g id="node16" class="node"><title>_disReservedUsername</title>
<a xlink:href="_disreservedusername.class.html" xlink:title="disReservedUsername" target="_parent">
<polygon fill="none" stroke="black" points="426.5,-547 281.5,-547 281.5,-511 426.5,-511 426.5,-547"/>
<text text-anchor="middle" x="354" y="-526.2" font-family="Courier New" font-size="11.00">disReservedUsername</text>
</a>
</g>
<!-- _disReservedUsername&#45;&gt;_xPDOObject -->
<g id="edge27" class="edge"><title>_disReservedUsername-&gt;_xPDOObject</title>
<path fill="none" stroke="black" d="M281.292,-522.393C268.728,-518.187 256.862,-511.75 248,-502 109.707,-349.838 310.506,-200.519 176,-45 169.998,-38.0604 162.248,-32.8794 153.851,-29.0165"/>
<polygon fill="none" stroke="black" points="155.123,-25.7559 144.537,-25.3212 152.542,-32.2625 155.123,-25.7559"/>
</g>
<!-- _disSession -->
<g id="node17" class="node"><title>_disSession</title>
<a xlink:href="_dissession.class.html" xlink:title="disSession" target="_parent">
<polygon fill="none" stroke="black" points="396,-493 312,-493 312,-457 396,-457 396,-493"/>
<text text-anchor="middle" x="354" y="-472.2" font-family="Courier New" font-size="11.00">disSession</text>
</a>
</g>
<!-- _disSession&#45;&gt;_xPDOObject -->
<g id="edge29" class="edge"><title>_disSession-&gt;_xPDOObject</title>
<path fill="none" stroke="black" d="M311.748,-474.634C289.818,-472.198 264.13,-465.386 248,-448 124.251,-314.617 296.429,-181.388 176,-45 169.927,-38.1223 162.139,-32.9753 153.724,-29.1277"/>
<polygon fill="none" stroke="black" points="154.985,-25.8629 144.399,-25.4422 152.412,-32.3729 154.985,-25.8629"/>
</g>
<!-- _disThread -->
<g id="node18" class="node"><title>_disThread</title>
<a xlink:href="_disthread.class.html" xlink:title="disThread" target="_parent">
<polygon fill="none" stroke="black" points="126.5,-1627 49.5,-1627 49.5,-1591 126.5,-1591 126.5,-1627"/>
<text text-anchor="middle" x="88" y="-1606.2" font-family="Courier New" font-size="11.00">disThread</text>
</a>
</g>
<!-- _disThread&#45;&gt;_xPDOSimpleObject -->
<g id="edge31" class="edge"><title>_disThread-&gt;_xPDOSimpleObject</title>
<path fill="none" stroke="black" d="M88,-1590.83C88,-1093.98 88,-597.124 88,-100.271"/>
<polygon fill="none" stroke="black" points="91.5001,-100.012 88,-90.0117 84.5001,-100.012 91.5001,-100.012"/>
</g>
<!-- _disThreadDiscussion -->
<g id="node19" class="node"><title>_disThreadDiscussion</title>
<a xlink:href="_disthreaddiscussion.class.html" xlink:title="disThreadDiscussion" target="_parent">
<polygon fill="none" stroke="black" points="426.5,-1681 281.5,-1681 281.5,-1645 426.5,-1645 426.5,-1681"/>
<text text-anchor="middle" x="354" y="-1660.2" font-family="Courier New" font-size="11.00">disThreadDiscussion</text>
</a>
</g>
<!-- _disThreadDiscussion&#45;&gt;_disThread -->
<g id="edge33" class="edge"><title>_disThreadDiscussion-&gt;_disThread</title>
<path fill="none" stroke="black" d="M281.21,-1648.32C235.182,-1638.9 176.723,-1626.94 136.428,-1618.7"/>
<polygon fill="none" stroke="black" points="137.092,-1615.26 126.593,-1616.69 135.689,-1622.12 137.092,-1615.26"/>
</g>
<!-- _disThreadQuestion -->
<g id="node20" class="node"><title>_disThreadQuestion</title>
<a xlink:href="_disthreadquestion.class.html" xlink:title="disThreadQuestion" target="_parent">
<polygon fill="none" stroke="black" points="419.5,-1627 288.5,-1627 288.5,-1591 419.5,-1591 419.5,-1627"/>
<text text-anchor="middle" x="354" y="-1606.2" font-family="Courier New" font-size="11.00">disThreadQuestion</text>
</a>
</g>
<!-- _disThreadQuestion&#45;&gt;_disThread -->
<g id="edge35" class="edge"><title>_disThreadQuestion-&gt;_disThread</title>
<path fill="none" stroke="black" d="M288.418,-1609C241.599,-1609 179.311,-1609 136.889,-1609"/>
<polygon fill="none" stroke="black" points="136.82,-1605.5 126.82,-1609 136.82,-1612.5 136.82,-1605.5"/>
</g>
<!-- _disThreadRead -->
<g id="node21" class="node"><title>_disThreadRead</title>
<a xlink:href="_disthreadread.class.html" xlink:title="disThreadRead" target="_parent">
<polygon fill="none" stroke="black" points="406,-1303 302,-1303 302,-1267 406,-1267 406,-1303"/>
<text text-anchor="middle" x="354" y="-1282.2" font-family="Courier New" font-size="11.00">disThreadRead</text>
</a>
</g>
<!-- _disThreadRead&#45;&gt;_xPDOSimpleObject -->
<g id="edge37" class="edge"><title>_disThreadRead-&gt;_xPDOSimpleObject</title>
<path fill="none" stroke="black" d="M301.821,-1284.16C282.041,-1281.06 261.066,-1273.82 248,-1258 82.9461,-1058.2 341.454,-293.473 176,-94 174.088,-91.6954 171.974,-89.6128 169.697,-87.732"/>
<polygon fill="none" stroke="black" points="171.628,-84.8131 161.391,-82.0845 167.692,-90.6017 171.628,-84.8131"/>
</g>
<!-- _disThreadUser -->
<g id="node22" class="node"><title>_disThreadUser</title>
<a xlink:href="_disthreaduser.class.html" xlink:title="disThreadUser" target="_parent">
<polygon fill="none" stroke="black" points="406,-439 302,-439 302,-403 406,-403 406,-439"/>
<text text-anchor="middle" x="354" y="-418.2" font-family="Courier New" font-size="11.00">disThreadUser</text>
</a>
</g>
<!-- _disThreadUser&#45;&gt;_xPDOObject -->
<g id="edge39" class="edge"><title>_disThreadUser-&gt;_xPDOObject</title>
<path fill="none" stroke="black" d="M301.816,-419.025C282.516,-415.689 261.893,-408.58 248,-394 138.744,-279.342 282.401,-162.313 176,-45 169.836,-38.2039 161.998,-33.1014 153.56,-29.274"/>
<polygon fill="none" stroke="black" points="154.808,-26.0038 144.221,-25.6015 152.246,-32.5183 154.808,-26.0038"/>
</g>
<!-- _disTreeParser -->
<g id="node23" class="node"><title>_disTreeParser</title>
<a xlink:href="_distreeparser.class.html" xlink:title="disTreeParser" target="_parent">
<polygon fill="none" stroke="black" points="677,-1762 573,-1762 573,-1726 677,-1726 677,-1762"/>
<text text-anchor="middle" x="625" y="-1741.2" font-family="Courier New" font-size="11.00">disTreeParser</text>
</a>
</g>
<!-- _disUser -->
<g id="node24" class="node"><title>_disUser</title>
<a xlink:href="_disuser.class.html" xlink:title="disUser" target="_parent">
<polygon fill="none" stroke="black" points="386,-1249 322,-1249 322,-1213 386,-1213 386,-1249"/>
<text text-anchor="middle" x="354" y="-1228.2" font-family="Courier New" font-size="11.00">disUser</text>
</a>
</g>
<!-- _disUser&#45;&gt;_xPDOSimpleObject -->
<g id="edge41" class="edge"><title>_disUser-&gt;_xPDOSimpleObject</title>
<path fill="none" stroke="black" d="M321.705,-1232.07C297.654,-1231.05 265.653,-1225.31 248,-1204 90.2879,-1013.67 334.093,-284.018 176,-94 174.085,-91.6983 171.967,-89.6181 169.688,-87.7393"/>
<polygon fill="none" stroke="black" points="171.615,-84.8175 161.375,-82.0975 167.684,-90.6094 171.615,-84.8175"/>
</g>
<!-- _disUserFriend -->
<g id="node25" class="node"><title>_disUserFriend</title>
<a xlink:href="_disuserfriend.class.html" xlink:title="disUserFriend" target="_parent">
<polygon fill="none" stroke="black" points="406,-1195 302,-1195 302,-1159 406,-1159 406,-1195"/>
<text text-anchor="middle" x="354" y="-1174.2" font-family="Courier New" font-size="11.00">disUserFriend</text>
</a>
</g>
<!-- _disUserFriend&#45;&gt;_xPDOSimpleObject -->
<g id="edge43" class="edge"><title>_disUserFriend-&gt;_xPDOSimpleObject</title>
<path fill="none" stroke="black" d="M301.871,-1176.12C282.098,-1173.01 261.116,-1165.78 248,-1150 97.6286,-969.133 326.734,-274.565 176,-94 174.081,-91.7014 171.96,-89.624 169.678,-87.7474"/>
<polygon fill="none" stroke="black" points="171.601,-84.8223 161.358,-82.1117 167.675,-90.6179 171.601,-84.8223"/>
</g>
<!-- _disUserGroupProfile -->
<g id="node26" class="node"><title>_disUserGroupProfile</title>
<a xlink:href="_disusergroupprofile.class.html" xlink:title="disUserGroupProfile" target="_parent">
<polygon fill="none" stroke="black" points="426.5,-1141 281.5,-1141 281.5,-1105 426.5,-1105 426.5,-1141"/>
<text text-anchor="middle" x="354" y="-1120.2" font-family="Courier New" font-size="11.00">disUserGroupProfile</text>
</a>
</g>
<!-- _disUserGroupProfile&#45;&gt;_xPDOSimpleObject -->
<g id="edge45" class="edge"><title>_disUserGroupProfile-&gt;_xPDOSimpleObject</title>
<path fill="none" stroke="black" d="M281.433,-1117.24C268.619,-1113 256.623,-1106.33 248,-1096 104.968,-924.599 319.375,-265.114 176,-94 174.077,-91.7049 171.952,-89.6305 169.667,-87.7565"/>
<polygon fill="none" stroke="black" points="171.584,-84.8277 161.339,-82.1276 167.664,-90.6273 171.584,-84.8277"/>
</g>
<!-- _disUserModerated -->
<g id="node27" class="node"><title>_disUserModerated</title>
<a xlink:href="_disusermoderated.class.html" xlink:title="disUserModerated" target="_parent">
<polygon fill="none" stroke="black" points="416.5,-1411 291.5,-1411 291.5,-1375 416.5,-1375 416.5,-1411"/>
<text text-anchor="middle" x="354" y="-1390.2" font-family="Courier New" font-size="11.00">disUserModerated</text>
</a>
</g>
<!-- _disUserModerated&#45;&gt;_xPDOSimpleObject -->
<g id="edge47" class="edge"><title>_disUserModerated-&gt;_xPDOSimpleObject</title>
<path fill="none" stroke="black" d="M291.374,-1390.17C274.925,-1386.31 258.754,-1379.09 248,-1366 68.2595,-1147.25 356.179,-312.385 176,-94 174.094,-91.6904 171.985,-89.6036 169.712,-87.7191"/>
<polygon fill="none" stroke="black" points="171.652,-84.8055 161.418,-82.062 167.707,-90.5884 171.652,-84.8055"/>
</g>
<!-- _disUserNotification -->
<g id="node28" class="node"><title>_disUserNotification</title>
<a xlink:href="_disusernotification.class.html" xlink:title="disUserNotification" target="_parent">
<polygon fill="none" stroke="black" points="426.5,-1357 281.5,-1357 281.5,-1321 426.5,-1321 426.5,-1357"/>
<text text-anchor="middle" x="354" y="-1336.2" font-family="Courier New" font-size="11.00">disUserNotification</text>
</a>
</g>
<!-- _disUserNotification&#45;&gt;_xPDOSimpleObject -->
<g id="edge49" class="edge"><title>_disUserNotification-&gt;_xPDOSimpleObject</title>
<path fill="none" stroke="black" d="M281.33,-1333.33C268.525,-1329.08 256.557,-1322.39 248,-1312 75.6032,-1102.73 348.816,-302.929 176,-94 174.092,-91.6928 171.979,-89.608 169.705,-87.7253"/>
<polygon fill="none" stroke="black" points="171.641,-84.8091 161.405,-82.0727 167.7,-90.5947 171.641,-84.8091"/>
</g>
<!-- _DisSmfImport -->
<g id="node29" class="node"><title>_DisSmfImport</title>
<a xlink:href="_import_dissmfimport.class.html" xlink:title="DisSmfImport" target="_parent">
<polygon fill="none" stroke="black" points="674,-1708 576,-1708 576,-1672 674,-1672 674,-1708"/>
<text text-anchor="middle" x="625" y="-1687.2" font-family="Courier New" font-size="11.00">DisSmfImport</text>
</a>
</g>
<!-- _disBanGroup_mysql -->
<g id="node30" class="node"><title>_disBanGroup_mysql</title>
<a xlink:href="_mysql_disbangroup.class.html" xlink:title="disBanGroup_mysql" target="_parent">
<polygon fill="none" stroke="black" points="690.5,-1114 559.5,-1114 559.5,-1078 690.5,-1078 690.5,-1114"/>
<text text-anchor="middle" x="625" y="-1093.2" font-family="Courier New" font-size="11.00">disBanGroup_mysql</text>
</a>
</g>
<!-- _disBanGroup_mysql&#45;&gt;_disBanGroup -->
<g id="edge51" class="edge"><title>_disBanGroup_mysql-&gt;_disBanGroup</title>
<path fill="none" stroke="black" d="M559.225,-1089.5C513.601,-1084.92 453.182,-1078.85 409.919,-1074.51"/>
<polygon fill="none" stroke="black" points="410.16,-1071.02 399.861,-1073.5 409.461,-1077.98 410.16,-1071.02"/>
</g>
<!-- _disBanItem_mysql -->
<g id="node31" class="node"><title>_disBanItem_mysql</title>
<a xlink:href="_mysql_disbanitem.class.html" xlink:title="disBanItem_mysql" target="_parent">
<polygon fill="none" stroke="black" points="687.5,-1060 562.5,-1060 562.5,-1024 687.5,-1024 687.5,-1060"/>
<text text-anchor="middle" x="625" y="-1039.2" font-family="Courier New" font-size="11.00">disBanItem_mysql</text>
</a>
</g>
<!-- _disBanItem_mysql&#45;&gt;_disBanItem -->
<g id="edge53" class="edge"><title>_disBanItem_mysql-&gt;_disBanItem</title>
<path fill="none" stroke="black" d="M562.286,-1035.81C515.085,-1031.07 450.771,-1024.61 406.358,-1020.15"/>
<polygon fill="none" stroke="black" points="406.659,-1016.67 396.359,-1019.15 405.96,-1023.63 406.659,-1016.67"/>
</g>
<!-- _disBoard_mysql -->
<g id="node32" class="node"><title>_disBoard_mysql</title>
<a xlink:href="_mysql_disboard.class.html" xlink:title="disBoard_mysql" target="_parent">
<polygon fill="none" stroke="black" points="680.5,-1006 569.5,-1006 569.5,-970 680.5,-970 680.5,-1006"/>
<text text-anchor="middle" x="625" y="-985.2" font-family="Courier New" font-size="11.00">disBoard_mysql</text>
</a>
</g>
<!-- _disBoard_mysql&#45;&gt;_disBoard -->
<g id="edge55" class="edge"><title>_disBoard_mysql-&gt;_disBoard</title>
<path fill="none" stroke="black" d="M569.24,-982.504C519.254,-977.486 446.272,-970.161 399.713,-965.488"/>
<polygon fill="none" stroke="black" points="399.923,-961.992 389.624,-964.475 399.224,-968.957 399.923,-961.992"/>
</g>
<!-- _disBoardClosure_mysql -->
<g id="node33" class="node"><title>_disBoardClosure_mysql</title>
<a xlink:href="_mysql_disboardclosure.class.html" xlink:title="disBoardClosure_mysql" target="_parent">
<polygon fill="none" stroke="black" points="704,-628 546,-628 546,-592 704,-592 704,-628"/>
<text text-anchor="middle" x="625" y="-607.2" font-family="Courier New" font-size="11.00">disBoardClosure_mysql</text>
</a>
</g>
<!-- _disBoardClosure_mysql&#45;&gt;_disBoardClosure -->
<g id="edge57" class="edge"><title>_disBoardClosure_mysql-&gt;_disBoardClosure</title>
<path fill="none" stroke="black" d="M545.833,-602.154C507.123,-598.269 460.816,-593.621 423.512,-589.877"/>
<polygon fill="none" stroke="black" points="423.542,-586.362 413.243,-588.846 422.843,-593.327 423.542,-586.362"/>
</g>
<!-- _disBoardUserGroup_mysql -->
<g id="node34" class="node"><title>_disBoardUserGroup_mysql</title>
<a xlink:href="_mysql_disboardusergroup.class.html" xlink:title="disBoardUserGroup_mysql" target="_parent">
<polygon fill="none" stroke="black" points="711,-952 539,-952 539,-916 711,-916 711,-952"/>
<text text-anchor="middle" x="625" y="-931.2" font-family="Courier New" font-size="11.00">disBoardUserGroup_mysql</text>
</a>
</g>
<!-- _disBoardUserGroup_mysql&#45;&gt;_disBoardUserGroup -->
<g id="edge59" class="edge"><title>_disBoardUserGroup_mysql-&gt;_disBoardUserGroup</title>
<path fill="none" stroke="black" d="M538.887,-925.457C503.874,-921.943 463.676,-917.908 429.811,-914.509"/>
<polygon fill="none" stroke="black" points="429.817,-910.992 419.518,-913.476 429.118,-917.957 429.817,-910.992"/>
</g>
<!-- _disCategory_mysql -->
<g id="node35" class="node"><title>_disCategory_mysql</title>
<a xlink:href="_mysql_discategory.class.html" xlink:title="disCategory_mysql" target="_parent">
<polygon fill="none" stroke="black" points="690.5,-898 559.5,-898 559.5,-862 690.5,-862 690.5,-898"/>
<text text-anchor="middle" x="625" y="-877.2" font-family="Courier New" font-size="11.00">disCategory_mysql</text>
</a>
</g>
<!-- _disCategory_mysql&#45;&gt;_disCategory -->
<g id="edge61" class="edge"><title>_disCategory_mysql-&gt;_disCategory</title>
<path fill="none" stroke="black" d="M559.225,-873.498C513.601,-868.919 453.182,-862.855 409.919,-858.512"/>
<polygon fill="none" stroke="black" points="410.16,-855.019 399.861,-857.503 409.461,-861.984 410.16,-855.019"/>
</g>
<!-- _disForumActivity_mysql -->
<g id="node36" class="node"><title>_disForumActivity_mysql</title>
<a xlink:href="_mysql_disforumactivity.class.html" xlink:title="disForumActivity_mysql" target="_parent">
<polygon fill="none" stroke="black" points="707.5,-844 542.5,-844 542.5,-808 707.5,-808 707.5,-844"/>
<text text-anchor="middle" x="625" y="-823.2" font-family="Courier New" font-size="11.00">disForumActivity_mysql</text>
</a>
</g>
<!-- _disForumActivity_mysql&#45;&gt;_disForumActivity -->
<g id="edge63" class="edge"><title>_disForumActivity_mysql-&gt;_disForumActivity</title>
<path fill="none" stroke="black" d="M542.196,-817.789C505.477,-814.104 462.534,-809.793 427.047,-806.231"/>
<polygon fill="none" stroke="black" points="427.068,-802.716 416.769,-805.2 426.369,-809.681 427.068,-802.716"/>
</g>
<!-- _disLogActivity_mysql -->
<g id="node37" class="node"><title>_disLogActivity_mysql</title>
<a xlink:href="_mysql_dislogactivity.class.html" xlink:title="disLogActivity_mysql" target="_parent">
<polygon fill="none" stroke="black" points="701,-790 549,-790 549,-754 701,-754 701,-790"/>
<text text-anchor="middle" x="625" y="-769.2" font-family="Courier New" font-size="11.00">disLogActivity_mysql</text>
</a>
</g>
<!-- _disLogActivity_mysql&#45;&gt;_disLogActivity -->
<g id="edge65" class="edge"><title>_disLogActivity_mysql-&gt;_disLogActivity</title>
<path fill="none" stroke="black" d="M548.711,-764.443C508.19,-760.376 458.711,-755.41 419.902,-751.514"/>
<polygon fill="none" stroke="black" points="420.068,-748.013 409.768,-750.497 419.368,-754.978 420.068,-748.013"/>
</g>
<!-- _disModerator_mysql -->
<g id="node38" class="node"><title>_disModerator_mysql</title>
<a xlink:href="_mysql_dismoderator.class.html" xlink:title="disModerator_mysql" target="_parent">
<polygon fill="none" stroke="black" points="694,-736 556,-736 556,-700 694,-700 694,-736"/>
<text text-anchor="middle" x="625" y="-715.2" font-family="Courier New" font-size="11.00">disModerator_mysql</text>
</a>
</g>
<!-- _disModerator_mysql&#45;&gt;_disModerator -->
<g id="edge67" class="edge"><title>_disModerator_mysql-&gt;_disModerator</title>
<path fill="none" stroke="black" d="M555.772,-711.152C511.771,-706.735 455.153,-701.053 413.265,-696.848"/>
<polygon fill="none" stroke="black" points="413.519,-693.356 403.219,-695.84 412.82,-700.321 413.519,-693.356"/>
</g>
<!-- _disPost_mysql -->
<g id="node39" class="node"><title>_disPost_mysql</title>
<a xlink:href="_mysql_dispost.class.html" xlink:title="disPost_mysql" target="_parent">
<polygon fill="none" stroke="black" points="677,-1546 573,-1546 573,-1510 677,-1510 677,-1546"/>
<text text-anchor="middle" x="625" y="-1525.2" font-family="Courier New" font-size="11.00">disPost_mysql</text>
</a>
</g>
<!-- _disPost_mysql&#45;&gt;_disPost -->
<g id="edge69" class="edge"><title>_disPost_mysql-&gt;_disPost</title>
<path fill="none" stroke="black" d="M572.77,-1522.86C521.609,-1517.72 443.948,-1509.93 396.512,-1505.17"/>
<polygon fill="none" stroke="black" points="396.592,-1501.66 386.292,-1504.14 395.893,-1508.62 396.592,-1501.66"/>
</g>
<!-- _disPostAttachment_mysql -->
<g id="node40" class="node"><title>_disPostAttachment_mysql</title>
<a xlink:href="_mysql_dispostattachment.class.html" xlink:title="disPostAttachment_mysql" target="_parent">
<polygon fill="none" stroke="black" points="711,-1492 539,-1492 539,-1456 711,-1456 711,-1492"/>
<text text-anchor="middle" x="625" y="-1471.2" font-family="Courier New" font-size="11.00">disPostAttachment_mysql</text>
</a>
</g>
<!-- _disPostAttachment_mysql&#45;&gt;_disPostAttachment -->
<g id="edge71" class="edge"><title>_disPostAttachment_mysql-&gt;_disPostAttachment</title>
<path fill="none" stroke="black" d="M538.887,-1465.46C503.874,-1461.94 463.676,-1457.91 429.811,-1454.51"/>
<polygon fill="none" stroke="black" points="429.817,-1450.99 419.518,-1453.48 429.118,-1457.96 429.817,-1450.99"/>
</g>
<!-- _disPostClosure_mysql -->
<g id="node41" class="node"><title>_disPostClosure_mysql</title>
<a xlink:href="_mysql_dispostclosure.class.html" xlink:title="disPostClosure_mysql" target="_parent">
<polygon fill="none" stroke="black" points="701,-682 549,-682 549,-646 701,-646 701,-682"/>
<text text-anchor="middle" x="625" y="-661.2" font-family="Courier New" font-size="11.00">disPostClosure_mysql</text>
</a>
</g>
<!-- _disPostClosure_mysql&#45;&gt;_disPostClosure -->
<g id="edge73" class="edge"><title>_disPostClosure_mysql-&gt;_disPostClosure</title>
<path fill="none" stroke="black" d="M548.711,-656.443C508.19,-652.376 458.711,-647.41 419.902,-643.514"/>
<polygon fill="none" stroke="black" points="420.068,-640.013 409.768,-642.497 419.368,-646.978 420.068,-640.013"/>
</g>
<!-- _disReservedUsername_mysql -->
<g id="node42" class="node"><title>_disReservedUsername_mysql</title>
<a xlink:href="_mysql_disreservedusername.class.html" xlink:title="disReservedUsername_mysql" target="_parent">
<polygon fill="none" stroke="black" points="717.5,-574 532.5,-574 532.5,-538 717.5,-538 717.5,-574"/>
<text text-anchor="middle" x="625" y="-553.2" font-family="Courier New" font-size="11.00">disReservedUsername_mysql</text>
</a>
</g>
<!-- _disReservedUsername_mysql&#45;&gt;_disReservedUsername -->
<g id="edge75" class="edge"><title>_disReservedUsername_mysql-&gt;_disReservedUsername</title>
<path fill="none" stroke="black" d="M532.178,-546.784C501.274,-543.682 467.016,-540.243 436.925,-537.223"/>
<polygon fill="none" stroke="black" points="437.191,-533.732 426.891,-536.216 436.491,-540.697 437.191,-533.732"/>
</g>
<!-- _disSession_mysql -->
<g id="node43" class="node"><title>_disSession_mysql</title>
<a xlink:href="_mysql_dissession.class.html" xlink:title="disSession_mysql" target="_parent">
<polygon fill="none" stroke="black" points="687.5,-520 562.5,-520 562.5,-484 687.5,-484 687.5,-520"/>
<text text-anchor="middle" x="625" y="-499.2" font-family="Courier New" font-size="11.00">disSession_mysql</text>
</a>
</g>
<!-- _disSession_mysql&#45;&gt;_disSession -->
<g id="edge77" class="edge"><title>_disSession_mysql-&gt;_disSession</title>
<path fill="none" stroke="black" d="M562.286,-495.806C515.085,-491.068 450.771,-484.613 406.358,-480.155"/>
<polygon fill="none" stroke="black" points="406.659,-476.668 396.359,-479.151 405.96,-483.633 406.659,-476.668"/>
</g>
<!-- _disThread_mysql -->
<g id="node44" class="node"><title>_disThread_mysql</title>
<a xlink:href="_mysql_disthread.class.html" xlink:title="disThread_mysql" target="_parent">
<polygon fill="none" stroke="black" points="413,-1573 295,-1573 295,-1537 413,-1537 413,-1573"/>
<text text-anchor="middle" x="354" y="-1552.2" font-family="Courier New" font-size="11.00">disThread_mysql</text>
</a>
</g>
<!-- _disThread_mysql&#45;&gt;_disThread -->
<g id="edge79" class="edge"><title>_disThread_mysql-&gt;_disThread</title>
<path fill="none" stroke="black" d="M294.737,-1566.92C247.263,-1576.63 181.053,-1590.17 136.691,-1599.25"/>
<polygon fill="none" stroke="black" points="135.837,-1595.85 126.741,-1601.28 137.239,-1602.71 135.837,-1595.85"/>
</g>
<!-- _disThreadDiscussion_mysql -->
<g id="node45" class="node"><title>_disThreadDiscussion_mysql</title>
<a xlink:href="_mysql_disthreaddiscussion.class.html" xlink:title="disThreadDiscussion_mysql" target="_parent">
<polygon fill="none" stroke="black" points="717.5,-1654 532.5,-1654 532.5,-1618 717.5,-1618 717.5,-1654"/>
<text text-anchor="middle" x="625" y="-1633.2" font-family="Courier New" font-size="11.00">disThreadDiscussion_mysql</text>
</a>
</g>
<!-- _disThreadDiscussion_mysql&#45;&gt;_disThreadDiscussion -->
<g id="edge81" class="edge"><title>_disThreadDiscussion_mysql-&gt;_disThreadDiscussion</title>
<path fill="none" stroke="black" d="M532.178,-1645.22C501.274,-1648.32 467.016,-1651.76 436.925,-1654.78"/>
<polygon fill="none" stroke="black" points="436.491,-1651.3 426.891,-1655.78 437.191,-1658.27 436.491,-1651.3"/>
</g>
<!-- _disThreadQuestion_mysql -->
<g id="node46" class="node"><title>_disThreadQuestion_mysql</title>
<a xlink:href="_mysql_disthreadquestion.class.html" xlink:title="disThreadQuestion_mysql" target="_parent">
<polygon fill="none" stroke="black" points="711,-1600 539,-1600 539,-1564 711,-1564 711,-1600"/>
<text text-anchor="middle" x="625" y="-1579.2" font-family="Courier New" font-size="11.00">disThreadQuestion_mysql</text>
</a>
</g>
<!-- _disThreadQuestion_mysql&#45;&gt;_disThreadQuestion -->
<g id="edge83" class="edge"><title>_disThreadQuestion_mysql-&gt;_disThreadQuestion</title>
<path fill="none" stroke="black" d="M538.887,-1590.54C503.874,-1594.06 463.676,-1598.09 429.811,-1601.49"/>
<polygon fill="none" stroke="black" points="429.118,-1598.04 419.518,-1602.52 429.817,-1605.01 429.118,-1598.04"/>
</g>
<!-- _disThreadRead_mysql -->
<g id="node47" class="node"><title>_disThreadRead_mysql</title>
<a xlink:href="_mysql_disthreadread.class.html" xlink:title="disThreadRead_mysql" target="_parent">
<polygon fill="none" stroke="black" points="697.5,-1330 552.5,-1330 552.5,-1294 697.5,-1294 697.5,-1330"/>
<text text-anchor="middle" x="625" y="-1309.2" font-family="Courier New" font-size="11.00">disThreadRead_mysql</text>
</a>
</g>
<!-- _disThreadRead_mysql&#45;&gt;_disThreadRead -->
<g id="edge85" class="edge"><title>_disThreadRead_mysql-&gt;_disThreadRead</title>
<path fill="none" stroke="black" d="M552.266,-1304.8C509.796,-1300.54 456.563,-1295.19 416.103,-1291.13"/>
<polygon fill="none" stroke="black" points="416.406,-1287.65 406.106,-1290.13 415.707,-1294.61 416.406,-1287.65"/>
</g>
<!-- _disThreadUser_mysql -->
<g id="node48" class="node"><title>_disThreadUser_mysql</title>
<a xlink:href="_mysql_disthreaduser.class.html" xlink:title="disThreadUser_mysql" target="_parent">
<polygon fill="none" stroke="black" points="697.5,-466 552.5,-466 552.5,-430 697.5,-430 697.5,-466"/>
<text text-anchor="middle" x="625" y="-445.2" font-family="Courier New" font-size="11.00">disThreadUser_mysql</text>
</a>
</g>
<!-- _disThreadUser_mysql&#45;&gt;_disThreadUser -->
<g id="edge87" class="edge"><title>_disThreadUser_mysql-&gt;_disThreadUser</title>
<path fill="none" stroke="black" d="M552.266,-440.8C509.796,-436.537 456.563,-431.194 416.103,-427.133"/>
<polygon fill="none" stroke="black" points="416.406,-423.646 406.106,-426.13 415.707,-430.611 416.406,-423.646"/>
</g>
<!-- _disUser_mysql -->
<g id="node49" class="node"><title>_disUser_mysql</title>
<a xlink:href="_mysql_disuser.class.html" xlink:title="disUser_mysql" target="_parent">
<polygon fill="none" stroke="black" points="677,-1276 573,-1276 573,-1240 677,-1240 677,-1276"/>
<text text-anchor="middle" x="625" y="-1255.2" font-family="Courier New" font-size="11.00">disUser_mysql</text>
</a>
</g>
<!-- _disUser_mysql&#45;&gt;_disUser -->
<g id="edge89" class="edge"><title>_disUser_mysql-&gt;_disUser</title>
<path fill="none" stroke="black" d="M572.77,-1252.86C521.609,-1247.72 443.948,-1239.93 396.512,-1235.17"/>
<polygon fill="none" stroke="black" points="396.592,-1231.66 386.292,-1234.14 395.893,-1238.62 396.592,-1231.66"/>
</g>
<!-- _disUserFriend_mysql -->
<g id="node50" class="node"><title>_disUserFriend_mysql</title>
<a xlink:href="_mysql_disuserfriend.class.html" xlink:title="disUserFriend_mysql" target="_parent">
<polygon fill="none" stroke="black" points="697.5,-1222 552.5,-1222 552.5,-1186 697.5,-1186 697.5,-1222"/>
<text text-anchor="middle" x="625" y="-1201.2" font-family="Courier New" font-size="11.00">disUserFriend_mysql</text>
</a>
</g>
<!-- _disUserFriend_mysql&#45;&gt;_disUserFriend -->
<g id="edge91" class="edge"><title>_disUserFriend_mysql-&gt;_disUserFriend</title>
<path fill="none" stroke="black" d="M552.266,-1196.8C509.796,-1192.54 456.563,-1187.19 416.103,-1183.13"/>
<polygon fill="none" stroke="black" points="416.406,-1179.65 406.106,-1182.13 415.707,-1186.61 416.406,-1179.65"/>
</g>
<!-- _disUserGroupProfile_mysql -->
<g id="node51" class="node"><title>_disUserGroupProfile_mysql</title>
<a xlink:href="_mysql_disusergroupprofile.class.html" xlink:title="disUserGroupProfile_mysql" target="_parent">
<polygon fill="none" stroke="black" points="717.5,-1168 532.5,-1168 532.5,-1132 717.5,-1132 717.5,-1168"/>
<text text-anchor="middle" x="625" y="-1147.2" font-family="Courier New" font-size="11.00">disUserGroupProfile_mysql</text>
</a>
</g>
<!-- _disUserGroupProfile_mysql&#45;&gt;_disUserGroupProfile -->
<g id="edge93" class="edge"><title>_disUserGroupProfile_mysql-&gt;_disUserGroupProfile</title>
<path fill="none" stroke="black" d="M532.178,-1140.78C501.274,-1137.68 467.016,-1134.24 436.925,-1131.22"/>
<polygon fill="none" stroke="black" points="437.191,-1127.73 426.891,-1130.22 436.491,-1134.7 437.191,-1127.73"/>
</g>
<!-- _disUserModerated_mysql -->
<g id="node52" class="node"><title>_disUserModerated_mysql</title>
<a xlink:href="_mysql_disusermoderated.class.html" xlink:title="disUserModerated_mysql" target="_parent">
<polygon fill="none" stroke="black" points="707.5,-1438 542.5,-1438 542.5,-1402 707.5,-1402 707.5,-1438"/>
<text text-anchor="middle" x="625" y="-1417.2" font-family="Courier New" font-size="11.00">disUserModerated_mysql</text>
</a>
</g>
<!-- _disUserModerated_mysql&#45;&gt;_disUserModerated -->
<g id="edge95" class="edge"><title>_disUserModerated_mysql-&gt;_disUserModerated</title>
<path fill="none" stroke="black" d="M542.196,-1411.79C505.477,-1408.1 462.534,-1403.79 427.047,-1400.23"/>
<polygon fill="none" stroke="black" points="427.068,-1396.72 416.769,-1399.2 426.369,-1403.68 427.068,-1396.72"/>
</g>
<!-- _disUserNotification_mysql -->
<g id="node53" class="node"><title>_disUserNotification_mysql</title>
<a xlink:href="_mysql_disusernotification.class.html" xlink:title="disUserNotification_mysql" target="_parent">
<polygon fill="none" stroke="black" points="717.5,-1384 532.5,-1384 532.5,-1348 717.5,-1348 717.5,-1384"/>
<text text-anchor="middle" x="625" y="-1363.2" font-family="Courier New" font-size="11.00">disUserNotification_mysql</text>
</a>
</g>
<!-- _disUserNotification_mysql&#45;&gt;_disUserNotification -->
<g id="edge97" class="edge"><title>_disUserNotification_mysql-&gt;_disUserNotification</title>
<path fill="none" stroke="black" d="M532.178,-1356.78C501.274,-1353.68 467.016,-1350.24 436.925,-1347.22"/>
<polygon fill="none" stroke="black" points="437.191,-1343.73 426.891,-1346.22 436.491,-1350.7 437.191,-1343.73"/>
</g>
<!-- _disBBCodeParser -->
<g id="node54" class="node"><title>_disBBCodeParser</title>
<a xlink:href="_parser_disbbcodeparser.class.html" xlink:title="disBBCodeParser" target="_parent">
<polygon fill="none" stroke="black" points="684,-412 566,-412 566,-376 684,-376 684,-412"/>
<text text-anchor="middle" x="625" y="-391.2" font-family="Courier New" font-size="11.00">disBBCodeParser</text>
</a>
</g>
<!-- _disParser -->
<g id="node55" class="node"><title>_disParser</title>
<a xlink:href="_parser_disparser.class.html" xlink:title="&lt;I&gt;_disParser&lt;/I&gt;" target="_parent">
<polygon fill="none" stroke="black" points="396.5,-385 311.5,-385 311.5,-349 396.5,-349 396.5,-385"/>
<text text-anchor="start" x="320" y="-365.2" font-family="Courier New" font-size="11.00">_disParser</text>
</a>
</g>
<!-- _disBBCodeParser&#45;&gt;_disParser -->
<g id="edge99" class="edge"><title>_disBBCodeParser-&gt;_disParser</title>
<path fill="none" stroke="black" d="M565.962,-388.175C518.577,-383.419 452.232,-376.759 406.664,-372.186"/>
<polygon fill="none" stroke="black" points="406.998,-368.702 396.698,-371.185 406.299,-375.667 406.998,-368.702"/>
</g>
<!-- _disConnectorRequest -->
<g id="node56" class="node"><title>_disConnectorRequest</title>
<a xlink:href="_request_disconnectorrequest.class.html" xlink:title="disConnectorRequest" target="_parent">
<polygon fill="none" stroke="black" points="697.5,-304 552.5,-304 552.5,-268 697.5,-268 697.5,-304"/>
<text text-anchor="middle" x="625" y="-283.2" font-family="Courier New" font-size="11.00">disConnectorRequest</text>
</a>
</g>
<!-- _modConnectorResponse -->
<g id="node114" class="node"><title>_modConnectorResponse</title>
<ellipse fill="none" stroke="black" cx="354" cy="-72" rx="105.082" ry="18"/>
<text text-anchor="middle" x="354" y="-68.3" font-family="Times,serif" font-size="14.00" fill="gray">\modConnectorResponse</text>
</g>
<!-- _disConnectorRequest&#45;&gt;_modConnectorResponse -->
<g id="edge101" class="edge"><title>_disConnectorRequest-&gt;_modConnectorResponse</title>
<path fill="none" stroke="black" d="M552.362,-271.954C544.975,-268.534 537.994,-264.283 532,-259 471.974,-206.098 522.066,-144.493 460,-94 456.8,-91.3967 453.368,-89.0792 449.768,-87.0176"/>
<polygon fill="none" stroke="black" points="451.02,-83.731 440.508,-82.4026 447.897,-89.996 451.02,-83.731"/>
</g>
<!-- _DisControllerRequest -->
<g id="node57" class="node"><title>_DisControllerRequest</title>
<a xlink:href="_request_discontrollerrequest.class.html" xlink:title="DisControllerRequest" target="_parent">
<polygon fill="none" stroke="black" points="701,-196 549,-196 549,-160 701,-160 701,-196"/>
<text text-anchor="middle" x="625" y="-175.2" font-family="Courier New" font-size="11.00">DisControllerRequest</text>
</a>
</g>
<!-- _modRequest -->
<g id="node116" class="node"><title>_modRequest</title>
<ellipse fill="none" stroke="black" cx="354" cy="-18" rx="59.5901" ry="18"/>
<text text-anchor="middle" x="354" y="-14.3" font-family="Times,serif" font-size="14.00" fill="gray">\modRequest</text>
</g>
<!-- _DisControllerRequest&#45;&gt;_modRequest -->
<g id="edge103" class="edge"><title>_DisControllerRequest-&gt;_modRequest</title>
<path fill="none" stroke="black" d="M548.6,-160.713C542.733,-157.94 537.112,-154.726 532,-151 485.975,-117.457 506.585,-77.7614 460,-45 448.116,-36.6425 433.853,-30.8702 419.726,-26.884"/>
<polygon fill="none" stroke="black" points="420.553,-23.483 409.998,-24.3998 418.821,-30.2653 420.553,-23.483"/>
</g>
<!-- _DisRequest -->
<g id="node58" class="node"><title>_DisRequest</title>
<a xlink:href="_request_disrequest.class.html" xlink:title="DisRequest" target="_parent">
<polygon fill="none" stroke="black" points="667,-250 583,-250 583,-214 667,-214 667,-250"/>
<text text-anchor="middle" x="625" y="-229.2" font-family="Courier New" font-size="11.00">DisRequest</text>
</a>
</g>
<!-- _disSearch -->
<g id="node59" class="node"><title>_disSearch</title>
<a xlink:href="_search_dissearch.class.html" xlink:title="disSearch" target="_parent">
<polygon fill="none" stroke="black" points="392.5,-331 315.5,-331 315.5,-295 392.5,-295 392.5,-331"/>
<text text-anchor="middle" x="354" y="-310.2" font-family="Courier New" font-size="11.00">disSearch</text>
</a>
</g>
<!-- _disSolrSearch -->
<g id="node60" class="node"><title>_disSolrSearch</title>
<a xlink:href="_search_dissolrsearch.class.html" xlink:title="disSolrSearch" target="_parent">
<polygon fill="none" stroke="black" points="677,-358 573,-358 573,-322 677,-322 677,-358"/>
<text text-anchor="middle" x="625" y="-337.2" font-family="Courier New" font-size="11.00">disSolrSearch</text>
</a>
</g>
<!-- _disSolrSearch&#45;&gt;_disSearch -->
<g id="edge105" class="edge"><title>_disSolrSearch-&gt;_disSearch</title>
<path fill="none" stroke="black" d="M572.77,-334.858C523.774,-329.94 450.473,-322.583 402.692,-317.787"/>
<polygon fill="none" stroke="black" points="402.905,-314.291 392.606,-316.775 402.206,-321.256 402.905,-314.291"/>
</g>
<!-- _disStopForumSpam -->
<g id="node61" class="node"><title>_disStopForumSpam</title>
<a xlink:href="_spam_stopforumspam_disstopforumspam.class.html" xlink:title="disStopForumSpam" target="_parent">
<polygon fill="none" stroke="black" points="687.5,-142 562.5,-142 562.5,-106 687.5,-106 687.5,-142"/>
<text text-anchor="middle" x="625" y="-121.2" font-family="Courier New" font-size="11.00">disStopForumSpam</text>
</a>
</g>
</g>
<script xlink:href="js/SVGPan.js"/></svg>
