<?xml version="1.0" encoding="UTF-8" standalone="no"?>
<!DOCTYPE svg PUBLIC "-//W3C//DTD SVG 1.1//EN" "http://www.w3.org/Graphics/SVG/1.1/DTD/svg11.dtd">
<!-- Generated by graphviz version 2.28.0 (20110705.1713)
 -->
<!-- Title: G Pages: 1 -->
<svg xmlns="http://www.w3.org/2000/svg" xmlns:xlink="http://www.w3.org/1999/xlink" width="742pt" height="1914pt">
<g id="viewport" class="graph" transform="scale(1 1) rotate(0) translate(4 1910)">
<title>G</title>
<polygon fill="white" stroke="white" points="-4,5 -4,-1910 739,-1910 739,5 -4,5"/>
<g id="graph2" class="cluster"><title>cluster_default</title>
<polyline fill="none" stroke="gray" points="53,-152 714,-152 "/>
<path fill="none" stroke="gray" d="M714,-152C720,-152 726,-158 726,-164"/>
<polyline fill="none" stroke="gray" points="726,-164 726,-1886 "/>
<path fill="none" stroke="gray" d="M726,-1886C726,-1892 720,-1898 714,-1898"/>
<polyline fill="none" stroke="gray" points="714,-1898 53,-1898 "/>
<path fill="none" stroke="gray" d="M53,-1898C47,-1898 41,-1892 41,-1886"/>
<polyline fill="none" stroke="gray" points="41,-1886 41,-164 "/>
<path fill="none" stroke="gray" d="M41,-164C41,-158 47,-152 53,-152"/>
<text text-anchor="middle" x="383.5" y="-1885.2" font-family="Times,serif" font-size="11.00" fill="gray">default</text>
</g>
<!-- _disBoard -->
<g id="node2" class="node"><title>_disBoard</title>
<a xlink:href="_disboard.class.html" xlink:title="disBoard" target="_parent">
<polygon fill="none" stroke="black" points="389.5,-1114 318.5,-1114 318.5,-1078 389.5,-1078 389.5,-1114"/>
<text text-anchor="middle" x="354" y="-1093.2" font-family="Courier New" font-size="11.00">disBoard</text>
</a>
</g>
<!-- _xPDOSimpleObject -->
<g id="node60" class="node"><title>_xPDOSimpleObject</title>
<ellipse fill="none" stroke="black" cx="88" cy="-126" rx="87.9851" ry="18"/>
<text text-anchor="middle" x="88" y="-122.3" font-family="Times,serif" font-size="14.00" fill="gray">\xPDOSimpleObject</text>
</g>
<!-- _disBoard&#45;&gt;_xPDOSimpleObject -->
<g id="edge3" class="edge"><title>_disBoard-&gt;_xPDOSimpleObject</title>
<path fill="none" stroke="black" d="M318.3,-1096.82C294.761,-1095.36 264.947,-1089.18 248,-1069 115.974,-911.795 308.341,-304.94 176,-148 174.07,-145.711 171.939,-143.642 169.649,-141.772"/>
<polygon fill="none" stroke="black" points="171.557,-138.837 161.307,-136.155 167.647,-144.643 171.557,-138.837"/>
</g>
<!-- _disBoardClosure -->
<g id="node3" class="node"><title>_disBoardClosure</title>
<a xlink:href="_disboardclosure.class.html" xlink:title="disBoardClosure" target="_parent">
<polygon fill="none" stroke="black" points="413,-574 295,-574 295,-538 413,-538 413,-574"/>
<text text-anchor="middle" x="354" y="-553.2" font-family="Courier New" font-size="11.00">disBoardClosure</text>
</a>
</g>
<!-- _xPDOObject -->
<g id="node62" class="node"><title>_xPDOObject</title>
<ellipse fill="none" stroke="black" cx="88" cy="-72" rx="61.99" ry="18"/>
<text text-anchor="middle" x="88" y="-68.3" font-family="Times,serif" font-size="14.00" fill="gray">\xPDOObject</text>
</g>
<!-- _disBoardClosure&#45;&gt;_xPDOObject -->
<g id="edge5" class="edge"><title>_disBoardClosure-&gt;_xPDOObject</title>
<path fill="none" stroke="black" d="M294.993,-553.027C277.667,-549.289 260.09,-542.174 248,-529 116.984,-386.233 303.462,-244.948 176,-99 169.965,-92.0894 162.197,-86.9243 153.791,-83.0685"/>
<polygon fill="none" stroke="black" points="155.058,-79.8059 144.472,-79.3778 152.481,-86.3141 155.058,-79.8059"/>
</g>
<!-- _disBoardUserGroup -->
<g id="node4" class="node"><title>_disBoardUserGroup</title>
<a xlink:href="_disboardusergroup.class.html" xlink:title="disBoardUserGroup" target="_parent">
<polygon fill="none" stroke="black" points="419.5,-1060 288.5,-1060 288.5,-1024 419.5,-1024 419.5,-1060"/>
<text text-anchor="middle" x="354" y="-1039.2" font-family="Courier New" font-size="11.00">disBoardUserGroup</text>
</a>
</g>
<!-- _disBoardUserGroup&#45;&gt;_xPDOSimpleObject -->
<g id="edge7" class="edge"><title>_disBoardUserGroup-&gt;_xPDOSimpleObject</title>
<path fill="none" stroke="black" d="M288.306,-1038.18C273.008,-1034.14 258.197,-1027.08 248,-1015 123.309,-867.255 300.987,-295.494 176,-148 174.064,-145.716 171.929,-143.65 169.635,-141.784"/>
<polygon fill="none" stroke="black" points="171.535,-138.844 161.282,-136.176 167.633,-144.656 171.535,-138.844"/>
</g>
<!-- _disCategory -->
<g id="node5" class="node"><title>_disCategory</title>
<a xlink:href="_discategory.class.html" xlink:title="disCategory" target="_parent">
<polygon fill="none" stroke="black" points="399.5,-1006 308.5,-1006 308.5,-970 399.5,-970 399.5,-1006"/>
<text text-anchor="middle" x="354" y="-985.2" font-family="Courier New" font-size="11.00">disCategory</text>
</a>
</g>
<!-- _disCategory&#45;&gt;_xPDOSimpleObject -->
<g id="edge9" class="edge"><title>_disCategory-&gt;_xPDOSimpleObject</title>
<path fill="none" stroke="black" d="M308.492,-987.88C287,-985.346 262.737,-978.364 248,-961 130.641,-822.713 293.636,-286.051 176,-148 174.058,-145.721 171.917,-143.66 169.619,-141.798"/>
<polygon fill="none" stroke="black" points="171.511,-138.853 161.254,-136.2 167.618,-144.67 171.511,-138.853"/>
</g>
<!-- _Discuss -->
<g id="node6" class="node"><title>_Discuss</title>
<a xlink:href="_discuss.class.html" xlink:title="Discuss" target="_parent">
<polygon fill="none" stroke="black" points="657,-1870 593,-1870 593,-1834 657,-1834 657,-1870"/>
<text text-anchor="middle" x="625" y="-1849.2" font-family="Courier New" font-size="11.00">Discuss</text>
</a>
</g>
<!-- _disForumActivity -->
<g id="node7" class="node"><title>_disForumActivity</title>
<a xlink:href="_disforumactivity.class.html" xlink:title="disForumActivity" target="_parent">
<polygon fill="none" stroke="black" points="416.5,-952 291.5,-952 291.5,-916 416.5,-916 416.5,-952"/>
<text text-anchor="middle" x="354" y="-931.2" font-family="Courier New" font-size="11.00">disForumActivity</text>
</a>
</g>
<!-- _disForumActivity&#45;&gt;_xPDOSimpleObject -->
<g id="edge11" class="edge"><title>_disForumActivity-&gt;_xPDOSimpleObject</title>
<path fill="none" stroke="black" d="M291.411,-930.849C275.065,-926.963 258.94,-919.81 248,-907 137.97,-778.167 286.288,-276.612 176,-148 174.051,-145.727 171.904,-143.671 169.6,-141.813"/>
<polygon fill="none" stroke="black" points="171.484,-138.862 161.222,-136.227 167.601,-144.687 171.484,-138.862"/>
</g>
<!-- _disHooks -->
<g id="node8" class="node"><title>_disHooks</title>
<a xlink:href="_dishooks.class.html" xlink:title="disHooks" target="_parent">
<polygon fill="none" stroke="black" points="660.5,-1816 589.5,-1816 589.5,-1780 660.5,-1780 660.5,-1816"/>
<text text-anchor="middle" x="625" y="-1795.2" font-family="Courier New" font-size="11.00">disHooks</text>
</a>
</g>
<!-- _disLogActivity -->
<g id="node9" class="node"><title>_disLogActivity</title>
<a xlink:href="_dislogactivity.class.html" xlink:title="disLogActivity" target="_parent">
<polygon fill="none" stroke="black" points="409.5,-898 298.5,-898 298.5,-862 409.5,-862 409.5,-898"/>
<text text-anchor="middle" x="354" y="-877.2" font-family="Courier New" font-size="11.00">disLogActivity</text>
</a>
</g>
<!-- _disLogActivity&#45;&gt;_xPDOSimpleObject -->
<g id="edge13" class="edge"><title>_disLogActivity-&gt;_xPDOSimpleObject</title>
<path fill="none" stroke="black" d="M298.317,-878.244C279.733,-874.797 260.521,-867.554 248,-853 42.5912,-614.234 381.887,-386.353 176,-148 174.043,-145.734 171.889,-143.684 169.579,-141.831"/>
<polygon fill="none" stroke="black" points="171.452,-138.873 161.185,-136.259 167.581,-144.706 171.452,-138.873"/>
</g>
<!-- _disModerator -->
<g id="node10" class="node"><title>_disModerator</title>
<a xlink:href="_dismoderator.class.html" xlink:title="disModerator" target="_parent">
<polygon fill="none" stroke="black" points="403,-844 305,-844 305,-808 403,-808 403,-844"/>
<text text-anchor="middle" x="354" y="-823.2" font-family="Courier New" font-size="11.00">disModerator</text>
</a>
</g>
<!-- _disModerator&#45;&gt;_xPDOSimpleObject -->
<g id="edge15" class="edge"><title>_disModerator-&gt;_xPDOSimpleObject</title>
<path fill="none" stroke="black" d="M304.901,-825.254C284.422,-822.334 262.062,-815.207 248,-799 57.233,-579.123 367.207,-367.494 176,-148 173.985,-145.687 171.766,-143.6 169.385,-141.718"/>
<polygon fill="none" stroke="black" points="171.021,-138.606 160.733,-136.075 167.197,-144.469 171.021,-138.606"/>
</g>
<!-- _disPost -->
<g id="node11" class="node"><title>_disPost</title>
<a xlink:href="_dispost.class.html" xlink:title="disPost" target="_parent">
<polygon fill="none" stroke="black" points="386,-1546 322,-1546 322,-1510 386,-1510 386,-1546"/>
<text text-anchor="middle" x="354" y="-1525.2" font-family="Courier New" font-size="11.00">disPost</text>
</a>
</g>
<!-- _disPost&#45;&gt;_xPDOSimpleObject -->
<g id="edge17" class="edge"><title>_disPost-&gt;_xPDOSimpleObject</title>
<path fill="none" stroke="black" d="M321.637,-1529.13C297.549,-1528.13 265.53,-1522.41 248,-1501 57.2425,-1268.05 367.224,-380.572 176,-148 174.098,-145.687 171.992,-143.598 169.722,-141.711"/>
<polygon fill="none" stroke="black" points="171.667,-138.801 161.436,-136.047 167.717,-144.58 171.667,-138.801"/>
</g>
<!-- _disPostAttachment -->
<g id="node12" class="node"><title>_disPostAttachment</title>
<a xlink:href="_dispostattachment.class.html" xlink:title="disPostAttachment" target="_parent">
<polygon fill="none" stroke="black" points="419.5,-1492 288.5,-1492 288.5,-1456 419.5,-1456 419.5,-1492"/>
<text text-anchor="middle" x="354" y="-1471.2" font-family="Courier New" font-size="11.00">disPostAttachment</text>
</a>
</g>
<!-- _disPostAttachment&#45;&gt;_xPDOSimpleObject -->
<g id="edge19" class="edge"><title>_disPostAttachment-&gt;_xPDOSimpleObject</title>
<path fill="none" stroke="black" d="M288.353,-1470.44C272.959,-1466.41 258.09,-1459.29 248,-1447 64.5873,-1223.52 359.86,-371.114 176,-148 174.096,-145.689 171.987,-143.602 169.716,-141.716"/>
<polygon fill="none" stroke="black" points="171.657,-138.804 161.424,-136.057 167.711,-144.585 171.657,-138.804"/>
</g>
<!-- _disPostClosure -->
<g id="node13" class="node"><title>_disPostClosure</title>
<a xlink:href="_dispostclosure.class.html" xlink:title="disPostClosure" target="_parent">
<polygon fill="none" stroke="black" points="409.5,-628 298.5,-628 298.5,-592 409.5,-592 409.5,-628"/>
<text text-anchor="middle" x="354" y="-607.2" font-family="Courier New" font-size="11.00">disPostClosure</text>
</a>
</g>
<!-- _disPostClosure&#45;&gt;_xPDOObject -->
<g id="edge21" class="edge"><title>_disPostClosure-&gt;_xPDOObject</title>
<path fill="none" stroke="black" d="M298.403,-607.876C279.942,-604.376 260.788,-597.193 248,-583 102.422,-421.434 317.558,-264.101 176,-99 170.028,-92.0347 162.294,-86.8397 153.905,-82.9704"/>
<polygon fill="none" stroke="black" points="155.181,-79.7115 144.596,-79.271 152.596,-86.2167 155.181,-79.7115"/>
</g>
<!-- _disReservedUsername -->
<g id="node14" class="node"><title>_disReservedUsername</title>
<a xlink:href="_disreservedusername.class.html" xlink:title="disReservedUsername" target="_parent">
<polygon fill="none" stroke="black" points="426.5,-790 281.5,-790 281.5,-754 426.5,-754 426.5,-790"/>
<text text-anchor="middle" x="354" y="-769.2" font-family="Courier New" font-size="11.00">disReservedUsername</text>
</a>
</g>
<!-- _disReservedUsername&#45;&gt;_xPDOObject -->
<g id="edge23" class="edge"><title>_disReservedUsername-&gt;_xPDOObject</title>
<path fill="none" stroke="black" d="M281.477,-765.887C268.74,-761.661 256.762,-755.09 248,-745 58.5881,-526.872 359.986,-321.724 176,-99 170.157,-91.9263 162.494,-86.6721 154.136,-82.7759"/>
<polygon fill="none" stroke="black" points="155.432,-79.5248 144.847,-79.0594 152.831,-86.0239 155.432,-79.5248"/>
</g>
<!-- _disSession -->
<g id="node15" class="node"><title>_disSession</title>
<a xlink:href="_dissession.class.html" xlink:title="disSession" target="_parent">
<polygon fill="none" stroke="black" points="396,-736 312,-736 312,-700 396,-700 396,-736"/>
<text text-anchor="middle" x="354" y="-715.2" font-family="Courier New" font-size="11.00">disSession</text>
</a>
</g>
<!-- _disSession&#45;&gt;_xPDOObject -->
<g id="edge25" class="edge"><title>_disSession-&gt;_xPDOObject</title>
<path fill="none" stroke="black" d="M311.893,-718.031C289.728,-715.756 263.763,-708.97 248,-691 73.2168,-491.746 345.826,-302.496 176,-99 170.121,-91.9557 162.439,-86.7176 154.072,-82.8287"/>
<polygon fill="none" stroke="black" points="155.363,-79.5754 144.778,-79.1168 152.767,-86.0761 155.363,-79.5754"/>
</g>
<!-- _disThread -->
<g id="node16" class="node"><title>_disThread</title>
<a xlink:href="_disthread.class.html" xlink:title="disThread" target="_parent">
<polygon fill="none" stroke="black" points="126.5,-1654 49.5,-1654 49.5,-1618 126.5,-1618 126.5,-1654"/>
<text text-anchor="middle" x="88" y="-1633.2" font-family="Courier New" font-size="11.00">disThread</text>
</a>
</g>
<!-- _disThread&#45;&gt;_xPDOSimpleObject -->
<g id="edge27" class="edge"><title>_disThread-&gt;_xPDOSimpleObject</title>
<path fill="none" stroke="black" d="M88,-1617.79C88,-1129.9 88,-642.021 88,-154.138"/>
<polygon fill="none" stroke="black" points="91.5001,-154.064 88,-144.064 84.5001,-154.064 91.5001,-154.064"/>
</g>
<!-- _disThreadDiscussion -->
<g id="node17" class="node"><title>_disThreadDiscussion</title>
<a xlink:href="_disthreaddiscussion.class.html" xlink:title="disThreadDiscussion" target="_parent">
<polygon fill="none" stroke="black" points="426.5,-1654 281.5,-1654 281.5,-1618 426.5,-1618 426.5,-1654"/>
<text text-anchor="middle" x="354" y="-1633.2" font-family="Courier New" font-size="11.00">disThreadDiscussion</text>
</a>
</g>
<!-- _disThreadDiscussion&#45;&gt;_disThread -->
<g id="edge29" class="edge"><title>_disThreadDiscussion-&gt;_disThread</title>
<path fill="none" stroke="black" d="M281.21,-1636C235.279,-1636 176.971,-1636 136.684,-1636"/>
<polygon fill="none" stroke="black" points="136.593,-1632.5 126.593,-1636 136.593,-1639.5 136.593,-1632.5"/>
</g>
<!-- _disThreadQuestion -->
<g id="node18" class="node"><title>_disThreadQuestion</title>
<a xlink:href="_disthreadquestion.class.html" xlink:title="disThreadQuestion" target="_parent">
<polygon fill="none" stroke="black" points="419.5,-1600 288.5,-1600 288.5,-1564 419.5,-1564 419.5,-1600"/>
<text text-anchor="middle" x="354" y="-1579.2" font-family="Courier New" font-size="11.00">disThreadQuestion</text>
</a>
</g>
<!-- _disThreadQuestion&#45;&gt;_disThread -->
<g id="edge31" class="edge"><title>_disThreadQuestion-&gt;_disThread</title>
<path fill="none" stroke="black" d="M288.418,-1595.21C241.5,-1604.81 179.048,-1617.58 136.62,-1626.26"/>
<polygon fill="none" stroke="black" points="135.916,-1622.83 126.82,-1628.26 137.319,-1629.69 135.916,-1622.83"/>
</g>
<!-- _disThreadRead -->
<g id="node19" class="node"><title>_disThreadRead</title>
<a xlink:href="_disthreadread.class.html" xlink:title="disThreadRead" target="_parent">
<polygon fill="none" stroke="black" points="406,-1330 302,-1330 302,-1294 406,-1294 406,-1330"/>
<text text-anchor="middle" x="354" y="-1309.2" font-family="Courier New" font-size="11.00">disThreadRead</text>
</a>
</g>
<!-- _disThreadRead&#45;&gt;_xPDOSimpleObject -->
<g id="edge33" class="edge"><title>_disThreadRead-&gt;_xPDOSimpleObject</title>
<path fill="none" stroke="black" d="M301.833,-1311.15C282.055,-1308.05 261.078,-1300.81 248,-1285 86.6172,-1089.93 337.773,-342.745 176,-148 174.087,-145.697 171.97,-143.615 169.692,-141.736"/>
<polygon fill="none" stroke="black" points="171.622,-138.815 161.383,-136.091 167.688,-144.605 171.622,-138.815"/>
</g>
<!-- _disThreadUser -->
<g id="node20" class="node"><title>_disThreadUser</title>
<a xlink:href="_disthreaduser.class.html" xlink:title="disThreadUser" target="_parent">
<polygon fill="none" stroke="black" points="406,-682 302,-682 302,-646 406,-646 406,-682"/>
<text text-anchor="middle" x="354" y="-661.2" font-family="Courier New" font-size="11.00">disThreadUser</text>
</a>
</g>
<!-- _disThreadUser&#45;&gt;_xPDOObject -->
<g id="edge35" class="edge"><title>_disThreadUser-&gt;_xPDOObject</title>
<path fill="none" stroke="black" d="M301.828,-662.604C282.293,-659.382 261.497,-652.201 248,-637 87.8297,-456.602 331.682,-283.286 176,-99 170.079,-91.9911 162.374,-86.7724 153.997,-82.8923"/>
<polygon fill="none" stroke="black" points="155.281,-79.6364 144.696,-79.186 152.69,-86.1392 155.281,-79.6364"/>
</g>
<!-- _disTreeParser -->
<g id="node21" class="node"><title>_disTreeParser</title>
<a xlink:href="_distreeparser.class.html" xlink:title="disTreeParser" target="_parent">
<polygon fill="none" stroke="black" points="677,-1762 573,-1762 573,-1726 677,-1726 677,-1762"/>
<text text-anchor="middle" x="625" y="-1741.2" font-family="Courier New" font-size="11.00">disTreeParser</text>
</a>
</g>
<!-- _disUser -->
<g id="node22" class="node"><title>_disUser</title>
<a xlink:href="_disuser.class.html" xlink:title="disUser" target="_parent">
<polygon fill="none" stroke="black" points="386,-1276 322,-1276 322,-1240 386,-1240 386,-1276"/>
<text text-anchor="middle" x="354" y="-1255.2" font-family="Courier New" font-size="11.00">disUser</text>
</a>
</g>
<!-- _disUser&#45;&gt;_xPDOSimpleObject -->
<g id="edge37" class="edge"><title>_disUser-&gt;_xPDOSimpleObject</title>
<path fill="none" stroke="black" d="M321.714,-1259.06C297.669,-1258.03 265.671,-1252.29 248,-1231 93.9584,-1045.4 330.413,-333.292 176,-148 174.083,-145.7 171.964,-143.621 169.683,-141.743"/>
<polygon fill="none" stroke="black" points="171.608,-138.82 161.367,-136.104 167.679,-144.614 171.608,-138.82"/>
</g>
<!-- _disUserFriend -->
<g id="node23" class="node"><title>_disUserFriend</title>
<a xlink:href="_disuserfriend.class.html" xlink:title="disUserFriend" target="_parent">
<polygon fill="none" stroke="black" points="406,-1222 302,-1222 302,-1186 406,-1186 406,-1222"/>
<text text-anchor="middle" x="354" y="-1201.2" font-family="Courier New" font-size="11.00">disUserFriend</text>
</a>
</g>
<!-- _disUserFriend&#45;&gt;_xPDOSimpleObject -->
<g id="edge39" class="edge"><title>_disUserFriend-&gt;_xPDOSimpleObject</title>
<path fill="none" stroke="black" d="M301.884,-1203.11C282.115,-1200 261.13,-1192.76 248,-1177 101.298,-1000.87 323.054,-323.839 176,-148 174.079,-145.703 171.956,-143.627 169.673,-141.752"/>
<polygon fill="none" stroke="black" points="171.593,-138.825 161.349,-136.119 167.67,-144.622 171.593,-138.825"/>
</g>
<!-- _disUserGroupProfile -->
<g id="node24" class="node"><title>_disUserGroupProfile</title>
<a xlink:href="_disusergroupprofile.class.html" xlink:title="disUserGroupProfile" target="_parent">
<polygon fill="none" stroke="black" points="426.5,-1168 281.5,-1168 281.5,-1132 426.5,-1132 426.5,-1168"/>
<text text-anchor="middle" x="354" y="-1147.2" font-family="Courier New" font-size="11.00">disUserGroupProfile</text>
</a>
</g>
<!-- _disUserGroupProfile&#45;&gt;_xPDOSimpleObject -->
<g id="edge41" class="edge"><title>_disUserGroupProfile-&gt;_xPDOSimpleObject</title>
<path fill="none" stroke="black" d="M281.449,-1144.23C268.634,-1139.99 256.633,-1133.32 248,-1123 108.637,-956.331 315.697,-314.389 176,-148 174.075,-145.707 171.948,-143.634 169.661,-141.761"/>
<polygon fill="none" stroke="black" points="171.576,-138.831 161.329,-136.136 167.659,-144.632 171.576,-138.831"/>
</g>
<!-- _disUserModerated -->
<g id="node25" class="node"><title>_disUserModerated</title>
<a xlink:href="_disusermoderated.class.html" xlink:title="disUserModerated" target="_parent">
<polygon fill="none" stroke="black" points="416.5,-1438 291.5,-1438 291.5,-1402 416.5,-1402 416.5,-1438"/>
<text text-anchor="middle" x="354" y="-1417.2" font-family="Courier New" font-size="11.00">disUserModerated</text>
</a>
</g>
<!-- _disUserModerated&#45;&gt;_xPDOSimpleObject -->
<g id="edge43" class="edge"><title>_disUserModerated-&gt;_xPDOSimpleObject</title>
<path fill="none" stroke="black" d="M291.384,-1417.17C274.935,-1413.3 258.762,-1406.08 248,-1393 71.9315,-1178.99 352.497,-361.657 176,-148 174.093,-145.692 171.982,-143.606 169.709,-141.722"/>
<polygon fill="none" stroke="black" points="171.646,-138.807 161.412,-136.067 167.704,-144.591 171.646,-138.807"/>
</g>
<!-- _disUserNotification -->
<g id="node26" class="node"><title>_disUserNotification</title>
<a xlink:href="_disusernotification.class.html" xlink:title="disUserNotification" target="_parent">
<polygon fill="none" stroke="black" points="426.5,-1384 281.5,-1384 281.5,-1348 426.5,-1348 426.5,-1384"/>
<text text-anchor="middle" x="354" y="-1363.2" font-family="Courier New" font-size="11.00">disUserNotification</text>
</a>
</g>
<!-- _disUserNotification&#45;&gt;_xPDOSimpleObject -->
<g id="edge45" class="edge"><title>_disUserNotification-&gt;_xPDOSimpleObject</title>
<path fill="none" stroke="black" d="M281.341,-1360.32C268.535,-1356.07 256.564,-1349.38 248,-1339 79.2748,-1134.46 345.135,-352.201 176,-148 174.09,-145.694 171.977,-143.61 169.701,-141.729"/>
<polygon fill="none" stroke="black" points="171.635,-138.811 161.398,-136.078 167.696,-144.598 171.635,-138.811"/>
</g>
<!-- _DisSmfImport -->
<g id="node27" class="node"><title>_DisSmfImport</title>
<a xlink:href="_import_dissmfimport.class.html" xlink:title="DisSmfImport" target="_parent">
<polygon fill="none" stroke="black" points="674,-1708 576,-1708 576,-1672 674,-1672 674,-1708"/>
<text text-anchor="middle" x="625" y="-1687.2" font-family="Courier New" font-size="11.00">DisSmfImport</text>
</a>
</g>
<!-- _disBanItem_mysql -->
<g id="node28" class="node"><title>_disBanItem_mysql</title>
<a xlink:href="_mysql_disbanitem.class.html" xlink:title="disBanItem_mysql" target="_parent">
<polygon fill="none" stroke="black" points="687.5,-412 562.5,-412 562.5,-376 687.5,-376 687.5,-412"/>
<text text-anchor="middle" x="625" y="-391.2" font-family="Courier New" font-size="11.00">disBanItem_mysql</text>
</a>
</g>
<!-- _disBanItem -->
<g id="node84" class="node"><title>_disBanItem</title>
<ellipse fill="none" stroke="black" cx="354" cy="-126" rx="55.7903" ry="18"/>
<text text-anchor="middle" x="354" y="-122.3" font-family="Times,serif" font-size="14.00" fill="gray">\disBanItem</text>
</g>
<!-- _disBanItem_mysql&#45;&gt;_disBanItem -->
<g id="edge47" class="edge"><title>_disBanItem_mysql-&gt;_disBanItem</title>
<path fill="none" stroke="black" d="M562.131,-384.789C551.042,-380.797 540.371,-375.106 532,-367 458.395,-295.726 536.36,-216.315 460,-148 448.947,-138.112 434.612,-132.247 420.106,-128.858"/>
<polygon fill="none" stroke="black" points="420.561,-125.381 410.074,-126.889 419.213,-132.25 420.561,-125.381"/>
</g>
<!-- _disBoard_mysql -->
<g id="node29" class="node"><title>_disBoard_mysql</title>
<a xlink:href="_mysql_disboard.class.html" xlink:title="disBoard_mysql" target="_parent">
<polygon fill="none" stroke="black" points="680.5,-1114 569.5,-1114 569.5,-1078 680.5,-1078 680.5,-1114"/>
<text text-anchor="middle" x="625" y="-1093.2" font-family="Courier New" font-size="11.00">disBoard_mysql</text>
</a>
</g>
<!-- _disBoard_mysql&#45;&gt;_disBoard -->
<g id="edge49" class="edge"><title>_disBoard_mysql-&gt;_disBoard</title>
<path fill="none" stroke="black" d="M569.24,-1096C519.254,-1096 446.272,-1096 399.713,-1096"/>
<polygon fill="none" stroke="black" points="399.624,-1092.5 389.624,-1096 399.624,-1099.5 399.624,-1092.5"/>
</g>
<!-- _disBoardClosure_mysql -->
<g id="node30" class="node"><title>_disBoardClosure_mysql</title>
<a xlink:href="_mysql_disboardclosure.class.html" xlink:title="disBoardClosure_mysql" target="_parent">
<polygon fill="none" stroke="black" points="704,-574 546,-574 546,-538 704,-538 704,-574"/>
<text text-anchor="middle" x="625" y="-553.2" font-family="Courier New" font-size="11.00">disBoardClosure_mysql</text>
</a>
</g>
<!-- _disBoardClosure_mysql&#45;&gt;_disBoardClosure -->
<g id="edge51" class="edge"><title>_disBoardClosure_mysql-&gt;_disBoardClosure</title>
<path fill="none" stroke="black" d="M545.833,-556C507.123,-556 460.816,-556 423.512,-556"/>
<polygon fill="none" stroke="black" points="423.243,-552.5 413.243,-556 423.243,-559.5 423.243,-552.5"/>
</g>
<!-- _disBoardUserGroup_mysql -->
<g id="node31" class="node"><title>_disBoardUserGroup_mysql</title>
<a xlink:href="_mysql_disboardusergroup.class.html" xlink:title="disBoardUserGroup_mysql" target="_parent">
<polygon fill="none" stroke="black" points="711,-1060 539,-1060 539,-1024 711,-1024 711,-1060"/>
<text text-anchor="middle" x="625" y="-1039.2" font-family="Courier New" font-size="11.00">disBoardUserGroup_mysql</text>
</a>
</g>
<!-- _disBoardUserGroup_mysql&#45;&gt;_disBoardUserGroup -->
<g id="edge53" class="edge"><title>_disBoardUserGroup_mysql-&gt;_disBoardUserGroup</title>
<path fill="none" stroke="black" d="M538.887,-1042C503.874,-1042 463.676,-1042 429.811,-1042"/>
<polygon fill="none" stroke="black" points="429.518,-1038.5 419.518,-1042 429.518,-1045.5 429.518,-1038.5"/>
</g>
<!-- _disCategory_mysql -->
<g id="node32" class="node"><title>_disCategory_mysql</title>
<a xlink:href="_mysql_discategory.class.html" xlink:title="disCategory_mysql" target="_parent">
<polygon fill="none" stroke="black" points="690.5,-1006 559.5,-1006 559.5,-970 690.5,-970 690.5,-1006"/>
<text text-anchor="middle" x="625" y="-985.2" font-family="Courier New" font-size="11.00">disCategory_mysql</text>
</a>
</g>
<!-- _disCategory_mysql&#45;&gt;_disCategory -->
<g id="edge55" class="edge"><title>_disCategory_mysql-&gt;_disCategory</title>
<path fill="none" stroke="black" d="M559.225,-988C513.601,-988 453.182,-988 409.919,-988"/>
<polygon fill="none" stroke="black" points="409.861,-984.5 399.861,-988 409.861,-991.5 409.861,-984.5"/>
</g>
<!-- _disForumActivity_mysql -->
<g id="node33" class="node"><title>_disForumActivity_mysql</title>
<a xlink:href="_mysql_disforumactivity.class.html" xlink:title="disForumActivity_mysql" target="_parent">
<polygon fill="none" stroke="black" points="707.5,-952 542.5,-952 542.5,-916 707.5,-916 707.5,-952"/>
<text text-anchor="middle" x="625" y="-931.2" font-family="Courier New" font-size="11.00">disForumActivity_mysql</text>
</a>
</g>
<!-- _disForumActivity_mysql&#45;&gt;_disForumActivity -->
<g id="edge57" class="edge"><title>_disForumActivity_mysql-&gt;_disForumActivity</title>
<path fill="none" stroke="black" d="M542.196,-934C505.477,-934 462.534,-934 427.047,-934"/>
<polygon fill="none" stroke="black" points="426.769,-930.5 416.769,-934 426.769,-937.5 426.769,-930.5"/>
</g>
<!-- _disLogActivity_mysql -->
<g id="node34" class="node"><title>_disLogActivity_mysql</title>
<a xlink:href="_mysql_dislogactivity.class.html" xlink:title="disLogActivity_mysql" target="_parent">
<polygon fill="none" stroke="black" points="701,-898 549,-898 549,-862 701,-862 701,-898"/>
<text text-anchor="middle" x="625" y="-877.2" font-family="Courier New" font-size="11.00">disLogActivity_mysql</text>
</a>
</g>
<!-- _disLogActivity_mysql&#45;&gt;_disLogActivity -->
<g id="edge59" class="edge"><title>_disLogActivity_mysql-&gt;_disLogActivity</title>
<path fill="none" stroke="black" d="M548.711,-880C508.19,-880 458.711,-880 419.902,-880"/>
<polygon fill="none" stroke="black" points="419.768,-876.5 409.768,-880 419.768,-883.5 419.768,-876.5"/>
</g>
<!-- _disModerator_mysql -->
<g id="node35" class="node"><title>_disModerator_mysql</title>
<a xlink:href="_mysql_dismoderator.class.html" xlink:title="disModerator_mysql" target="_parent">
<polygon fill="none" stroke="black" points="694,-844 556,-844 556,-808 694,-808 694,-844"/>
<text text-anchor="middle" x="625" y="-823.2" font-family="Courier New" font-size="11.00">disModerator_mysql</text>
</a>
</g>
<!-- _disModerator_mysql&#45;&gt;_disModerator -->
<g id="edge61" class="edge"><title>_disModerator_mysql-&gt;_disModerator</title>
<path fill="none" stroke="black" d="M555.772,-826C511.771,-826 455.153,-826 413.265,-826"/>
<polygon fill="none" stroke="black" points="413.219,-822.5 403.219,-826 413.219,-829.5 413.219,-822.5"/>
</g>
<!-- _disPost_mysql -->
<g id="node36" class="node"><title>_disPost_mysql</title>
<a xlink:href="_mysql_dispost.class.html" xlink:title="disPost_mysql" target="_parent">
<polygon fill="none" stroke="black" points="677,-1546 573,-1546 573,-1510 677,-1510 677,-1546"/>
<text text-anchor="middle" x="625" y="-1525.2" font-family="Courier New" font-size="11.00">disPost_mysql</text>
</a>
</g>
<!-- _disPost_mysql&#45;&gt;_disPost -->
<g id="edge63" class="edge"><title>_disPost_mysql-&gt;_disPost</title>
<path fill="none" stroke="black" d="M572.77,-1528C521.609,-1528 443.948,-1528 396.512,-1528"/>
<polygon fill="none" stroke="black" points="396.292,-1524.5 386.292,-1528 396.292,-1531.5 396.292,-1524.5"/>
</g>
<!-- _disPostAttachment_mysql -->
<g id="node37" class="node"><title>_disPostAttachment_mysql</title>
<a xlink:href="_mysql_dispostattachment.class.html" xlink:title="disPostAttachment_mysql" target="_parent">
<polygon fill="none" stroke="black" points="711,-1492 539,-1492 539,-1456 711,-1456 711,-1492"/>
<text text-anchor="middle" x="625" y="-1471.2" font-family="Courier New" font-size="11.00">disPostAttachment_mysql</text>
</a>
</g>
<!-- _disPostAttachment_mysql&#45;&gt;_disPostAttachment -->
<g id="edge65" class="edge"><title>_disPostAttachment_mysql-&gt;_disPostAttachment</title>
<path fill="none" stroke="black" d="M538.887,-1474C503.874,-1474 463.676,-1474 429.811,-1474"/>
<polygon fill="none" stroke="black" points="429.518,-1470.5 419.518,-1474 429.518,-1477.5 429.518,-1470.5"/>
</g>
<!-- _disPostClosure_mysql -->
<g id="node38" class="node"><title>_disPostClosure_mysql</title>
<a xlink:href="_mysql_dispostclosure.class.html" xlink:title="disPostClosure_mysql" target="_parent">
<polygon fill="none" stroke="black" points="701,-628 549,-628 549,-592 701,-592 701,-628"/>
<text text-anchor="middle" x="625" y="-607.2" font-family="Courier New" font-size="11.00">disPostClosure_mysql</text>
</a>
</g>
<!-- _disPostClosure_mysql&#45;&gt;_disPostClosure -->
<g id="edge67" class="edge"><title>_disPostClosure_mysql-&gt;_disPostClosure</title>
<path fill="none" stroke="black" d="M548.711,-610C508.19,-610 458.711,-610 419.902,-610"/>
<polygon fill="none" stroke="black" points="419.768,-606.5 409.768,-610 419.768,-613.5 419.768,-606.5"/>
</g>
<!-- _disReservedUsername_mysql -->
<g id="node39" class="node"><title>_disReservedUsername_mysql</title>
<a xlink:href="_mysql_disreservedusername.class.html" xlink:title="disReservedUsername_mysql" target="_parent">
<polygon fill="none" stroke="black" points="717.5,-790 532.5,-790 532.5,-754 717.5,-754 717.5,-790"/>
<text text-anchor="middle" x="625" y="-769.2" font-family="Courier New" font-size="11.00">disReservedUsername_mysql</text>
</a>
</g>
<!-- _disReservedUsername_mysql&#45;&gt;_disReservedUsername -->
<g id="edge69" class="edge"><title>_disReservedUsername_mysql-&gt;_disReservedUsername</title>
<path fill="none" stroke="black" d="M532.178,-772C501.274,-772 467.016,-772 436.925,-772"/>
<polygon fill="none" stroke="black" points="436.891,-768.5 426.891,-772 436.891,-775.5 436.891,-768.5"/>
</g>
<!-- _disSession_mysql -->
<g id="node40" class="node"><title>_disSession_mysql</title>
<a xlink:href="_mysql_dissession.class.html" xlink:title="disSession_mysql" target="_parent">
<polygon fill="none" stroke="black" points="687.5,-736 562.5,-736 562.5,-700 687.5,-700 687.5,-736"/>
<text text-anchor="middle" x="625" y="-715.2" font-family="Courier New" font-size="11.00">disSession_mysql</text>
</a>
</g>
<!-- _disSession_mysql&#45;&gt;_disSession -->
<g id="edge71" class="edge"><title>_disSession_mysql-&gt;_disSession</title>
<path fill="none" stroke="black" d="M562.286,-718C515.185,-718 451.042,-718 406.639,-718"/>
<polygon fill="none" stroke="black" points="406.359,-714.5 396.359,-718 406.359,-721.5 406.359,-714.5"/>
</g>
<!-- _disThread_mysql -->
<g id="node41" class="node"><title>_disThread_mysql</title>
<a xlink:href="_mysql_disthread.class.html" xlink:title="disThread_mysql" target="_parent">
<polygon fill="none" stroke="black" points="413,-1708 295,-1708 295,-1672 413,-1672 413,-1708"/>
<text text-anchor="middle" x="354" y="-1687.2" font-family="Courier New" font-size="11.00">disThread_mysql</text>
</a>
</g>
<!-- _disThread_mysql&#45;&gt;_disThread -->
<g id="edge73" class="edge"><title>_disThread_mysql-&gt;_disThread</title>
<path fill="none" stroke="black" d="M294.737,-1678.08C247.263,-1668.37 181.053,-1654.83 136.691,-1645.75"/>
<polygon fill="none" stroke="black" points="137.239,-1642.29 126.741,-1643.72 135.837,-1649.15 137.239,-1642.29"/>
</g>
<!-- _disThreadDiscussion_mysql -->
<g id="node42" class="node"><title>_disThreadDiscussion_mysql</title>
<a xlink:href="_mysql_disthreaddiscussion.class.html" xlink:title="disThreadDiscussion_mysql" target="_parent">
<polygon fill="none" stroke="black" points="717.5,-1654 532.5,-1654 532.5,-1618 717.5,-1618 717.5,-1654"/>
<text text-anchor="middle" x="625" y="-1633.2" font-family="Courier New" font-size="11.00">disThreadDiscussion_mysql</text>
</a>
</g>
<!-- _disThreadDiscussion_mysql&#45;&gt;_disThreadDiscussion -->
<g id="edge75" class="edge"><title>_disThreadDiscussion_mysql-&gt;_disThreadDiscussion</title>
<path fill="none" stroke="black" d="M532.178,-1636C501.274,-1636 467.016,-1636 436.925,-1636"/>
<polygon fill="none" stroke="black" points="436.891,-1632.5 426.891,-1636 436.891,-1639.5 436.891,-1632.5"/>
</g>
<!-- _disThreadQuestion_mysql -->
<g id="node43" class="node"><title>_disThreadQuestion_mysql</title>
<a xlink:href="_mysql_disthreadquestion.class.html" xlink:title="disThreadQuestion_mysql" target="_parent">
<polygon fill="none" stroke="black" points="711,-1600 539,-1600 539,-1564 711,-1564 711,-1600"/>
<text text-anchor="middle" x="625" y="-1579.2" font-family="Courier New" font-size="11.00">disThreadQuestion_mysql</text>
</a>
</g>
<!-- _disThreadQuestion_mysql&#45;&gt;_disThreadQuestion -->
<g id="edge77" class="edge"><title>_disThreadQuestion_mysql-&gt;_disThreadQuestion</title>
<path fill="none" stroke="black" d="M538.887,-1582C503.874,-1582 463.676,-1582 429.811,-1582"/>
<polygon fill="none" stroke="black" points="429.518,-1578.5 419.518,-1582 429.518,-1585.5 429.518,-1578.5"/>
</g>
<!-- _disThreadRead_mysql -->
<g id="node44" class="node"><title>_disThreadRead_mysql</title>
<a xlink:href="_mysql_disthreadread.class.html" xlink:title="disThreadRead_mysql" target="_parent">
<polygon fill="none" stroke="black" points="697.5,-1330 552.5,-1330 552.5,-1294 697.5,-1294 697.5,-1330"/>
<text text-anchor="middle" x="625" y="-1309.2" font-family="Courier New" font-size="11.00">disThreadRead_mysql</text>
</a>
</g>
<!-- _disThreadRead_mysql&#45;&gt;_disThreadRead -->
<g id="edge79" class="edge"><title>_disThreadRead_mysql-&gt;_disThreadRead</title>
<path fill="none" stroke="black" d="M552.266,-1312C509.886,-1312 456.789,-1312 416.36,-1312"/>
<polygon fill="none" stroke="black" points="416.106,-1308.5 406.106,-1312 416.106,-1315.5 416.106,-1308.5"/>
</g>
<!-- _disThreadUser_mysql -->
<g id="node45" class="node"><title>_disThreadUser_mysql</title>
<a xlink:href="_mysql_disthreaduser.class.html" xlink:title="disThreadUser_mysql" target="_parent">
<polygon fill="none" stroke="black" points="697.5,-682 552.5,-682 552.5,-646 697.5,-646 697.5,-682"/>
<text text-anchor="middle" x="625" y="-661.2" font-family="Courier New" font-size="11.00">disThreadUser_mysql</text>
</a>
</g>
<!-- _disThreadUser_mysql&#45;&gt;_disThreadUser -->
<g id="edge81" class="edge"><title>_disThreadUser_mysql-&gt;_disThreadUser</title>
<path fill="none" stroke="black" d="M552.266,-664C509.886,-664 456.789,-664 416.36,-664"/>
<polygon fill="none" stroke="black" points="416.106,-660.5 406.106,-664 416.106,-667.5 416.106,-660.5"/>
</g>
<!-- _disUser_mysql -->
<g id="node46" class="node"><title>_disUser_mysql</title>
<a xlink:href="_mysql_disuser.class.html" xlink:title="disUser_mysql" target="_parent">
<polygon fill="none" stroke="black" points="677,-1276 573,-1276 573,-1240 677,-1240 677,-1276"/>
<text text-anchor="middle" x="625" y="-1255.2" font-family="Courier New" font-size="11.00">disUser_mysql</text>
</a>
</g>
<!-- _disUser_mysql&#45;&gt;_disUser -->
<g id="edge83" class="edge"><title>_disUser_mysql-&gt;_disUser</title>
<path fill="none" stroke="black" d="M572.77,-1258C521.609,-1258 443.948,-1258 396.512,-1258"/>
<polygon fill="none" stroke="black" points="396.292,-1254.5 386.292,-1258 396.292,-1261.5 396.292,-1254.5"/>
</g>
<!-- _disUserFriend_mysql -->
<g id="node47" class="node"><title>_disUserFriend_mysql</title>
<a xlink:href="_mysql_disuserfriend.class.html" xlink:title="disUserFriend_mysql" target="_parent">
<polygon fill="none" stroke="black" points="697.5,-1222 552.5,-1222 552.5,-1186 697.5,-1186 697.5,-1222"/>
<text text-anchor="middle" x="625" y="-1201.2" font-family="Courier New" font-size="11.00">disUserFriend_mysql</text>
</a>
</g>
<!-- _disUserFriend_mysql&#45;&gt;_disUserFriend -->
<g id="edge85" class="edge"><title>_disUserFriend_mysql-&gt;_disUserFriend</title>
<path fill="none" stroke="black" d="M552.266,-1204C509.886,-1204 456.789,-1204 416.36,-1204"/>
<polygon fill="none" stroke="black" points="416.106,-1200.5 406.106,-1204 416.106,-1207.5 416.106,-1200.5"/>
</g>
<!-- _disUserGroupProfile_mysql -->
<g id="node48" class="node"><title>_disUserGroupProfile_mysql</title>
<a xlink:href="_mysql_disusergroupprofile.class.html" xlink:title="disUserGroupProfile_mysql" target="_parent">
<polygon fill="none" stroke="black" points="717.5,-1168 532.5,-1168 532.5,-1132 717.5,-1132 717.5,-1168"/>
<text text-anchor="middle" x="625" y="-1147.2" font-family="Courier New" font-size="11.00">disUserGroupProfile_mysql</text>
</a>
</g>
<!-- _disUserGroupProfile_mysql&#45;&gt;_disUserGroupProfile -->
<g id="edge87" class="edge"><title>_disUserGroupProfile_mysql-&gt;_disUserGroupProfile</title>
<path fill="none" stroke="black" d="M532.178,-1150C501.274,-1150 467.016,-1150 436.925,-1150"/>
<polygon fill="none" stroke="black" points="436.891,-1146.5 426.891,-1150 436.891,-1153.5 436.891,-1146.5"/>
</g>
<!-- _disUserModerated_mysql -->
<g id="node49" class="node"><title>_disUserModerated_mysql</title>
<a xlink:href="_mysql_disusermoderated.class.html" xlink:title="disUserModerated_mysql" target="_parent">
<polygon fill="none" stroke="black" points="707.5,-1438 542.5,-1438 542.5,-1402 707.5,-1402 707.5,-1438"/>
<text text-anchor="middle" x="625" y="-1417.2" font-family="Courier New" font-size="11.00">disUserModerated_mysql</text>
</a>
</g>
<!-- _disUserModerated_mysql&#45;&gt;_disUserModerated -->
<g id="edge89" class="edge"><title>_disUserModerated_mysql-&gt;_disUserModerated</title>
<path fill="none" stroke="black" d="M542.196,-1420C505.477,-1420 462.534,-1420 427.047,-1420"/>
<polygon fill="none" stroke="black" points="426.769,-1416.5 416.769,-1420 426.769,-1423.5 426.769,-1416.5"/>
</g>
<!-- _disUserNotification_mysql -->
<g id="node50" class="node"><title>_disUserNotification_mysql</title>
<a xlink:href="_mysql_disusernotification.class.html" xlink:title="disUserNotification_mysql" target="_parent">
<polygon fill="none" stroke="black" points="717.5,-1384 532.5,-1384 532.5,-1348 717.5,-1348 717.5,-1384"/>
<text text-anchor="middle" x="625" y="-1363.2" font-family="Courier New" font-size="11.00">disUserNotification_mysql</text>
</a>
</g>
<!-- _disUserNotification_mysql&#45;&gt;_disUserNotification -->
<g id="edge91" class="edge"><title>_disUserNotification_mysql-&gt;_disUserNotification</title>
<path fill="none" stroke="black" d="M532.178,-1366C501.274,-1366 467.016,-1366 436.925,-1366"/>
<polygon fill="none" stroke="black" points="436.891,-1362.5 426.891,-1366 436.891,-1369.5 436.891,-1362.5"/>
</g>
<!-- _disBBCodeParser -->
<g id="node51" class="node"><title>_disBBCodeParser</title>
<a xlink:href="_parser_disbbcodeparser.class.html" xlink:title="disBBCodeParser" target="_parent">
<polygon fill="none" stroke="black" points="684,-520 566,-520 566,-484 684,-484 684,-520"/>
<text text-anchor="middle" x="625" y="-499.2" font-family="Courier New" font-size="11.00">disBBCodeParser</text>
</a>
</g>
<!-- _disParser -->
<g id="node52" class="node"><title>_disParser</title>
<a xlink:href="_parser_disparser.class.html" xlink:title="&lt;I&gt;_disParser&lt;/I&gt;" target="_parent">
<polygon fill="none" stroke="black" points="396.5,-520 311.5,-520 311.5,-484 396.5,-484 396.5,-520"/>
<text text-anchor="start" x="320" y="-500.2" font-family="Courier New" font-size="11.00">_disParser</text>
</a>
</g>
<!-- _disBBCodeParser&#45;&gt;_disParser -->
<g id="edge93" class="edge"><title>_disBBCodeParser-&gt;_disParser</title>
<path fill="none" stroke="black" d="M565.962,-502C518.677,-502 452.511,-502 406.951,-502"/>
<polygon fill="none" stroke="black" points="406.698,-498.5 396.698,-502 406.698,-505.5 406.698,-498.5"/>
</g>
<!-- _disConnectorRequest -->
<g id="node53" class="node"><title>_disConnectorRequest</title>
<a xlink:href="_request_disconnectorrequest.class.html" xlink:title="disConnectorRequest" target="_parent">
<polygon fill="none" stroke="black" points="697.5,-358 552.5,-358 552.5,-322 697.5,-322 697.5,-358"/>
<text text-anchor="middle" x="625" y="-337.2" font-family="Courier New" font-size="11.00">disConnectorRequest</text>
</a>
</g>
<!-- _modConnectorResponse -->
<g id="node109" class="node"><title>_modConnectorResponse</title>
<ellipse fill="none" stroke="black" cx="354" cy="-72" rx="105.082" ry="18"/>
<text text-anchor="middle" x="354" y="-68.3" font-family="Times,serif" font-size="14.00" fill="gray">\modConnectorResponse</text>
</g>
<!-- _disConnectorRequest&#45;&gt;_modConnectorResponse -->
<g id="edge95" class="edge"><title>_disConnectorRequest-&gt;_modConnectorResponse</title>
<path fill="none" stroke="black" d="M552.353,-326.678C544.878,-323.132 537.879,-318.654 532,-313 459.669,-243.442 533.496,-167.327 460,-99 455.341,-94.6687 450.082,-91.0104 444.463,-87.923"/>
<polygon fill="none" stroke="black" points="445.897,-84.7288 435.371,-83.5265 442.85,-91.0307 445.897,-84.7288"/>
</g>
<!-- _DisControllerRequest -->
<g id="node54" class="node"><title>_DisControllerRequest</title>
<a xlink:href="_request_discontrollerrequest.class.html" xlink:title="DisControllerRequest" target="_parent">
<polygon fill="none" stroke="black" points="701,-250 549,-250 549,-214 701,-214 701,-250"/>
<text text-anchor="middle" x="625" y="-229.2" font-family="Courier New" font-size="11.00">DisControllerRequest</text>
</a>
</g>
<!-- _modRequest -->
<g id="node111" class="node"><title>_modRequest</title>
<ellipse fill="none" stroke="black" cx="354" cy="-18" rx="59.5901" ry="18"/>
<text text-anchor="middle" x="354" y="-14.3" font-family="Times,serif" font-size="14.00" fill="gray">\modRequest</text>
</g>
<!-- _DisControllerRequest&#45;&gt;_modRequest -->
<g id="edge97" class="edge"><title>_DisControllerRequest-&gt;_modRequest</title>
<path fill="none" stroke="black" d="M548.758,-216.113C542.718,-213.04 537.02,-209.374 532,-205 473.205,-153.775 519.651,-95.2248 460,-45 449.109,-35.8301 435.487,-29.7219 421.699,-25.6667"/>
<polygon fill="none" stroke="black" points="422.225,-22.1873 411.666,-23.0623 420.466,-28.9627 422.225,-22.1873"/>
</g>
<!-- _DisRequest -->
<g id="node55" class="node"><title>_DisRequest</title>
<a xlink:href="_request_disrequest.class.html" xlink:title="DisRequest" target="_parent">
<polygon fill="none" stroke="black" points="667,-304 583,-304 583,-268 667,-268 667,-304"/>
<text text-anchor="middle" x="625" y="-283.2" font-family="Courier New" font-size="11.00">DisRequest</text>
</a>
</g>
<!-- _disSearch -->
<g id="node56" class="node"><title>_disSearch</title>
<a xlink:href="_search_dissearch.class.html" xlink:title="disSearch" target="_parent">
<polygon fill="none" stroke="black" points="392.5,-466 315.5,-466 315.5,-430 392.5,-430 392.5,-466"/>
<text text-anchor="middle" x="354" y="-445.2" font-family="Courier New" font-size="11.00">disSearch</text>
</a>
</g>
<!-- _disSolrSearch -->
<g id="node57" class="node"><title>_disSolrSearch</title>
<a xlink:href="_search_dissolrsearch.class.html" xlink:title="disSolrSearch" target="_parent">
<polygon fill="none" stroke="black" points="677,-466 573,-466 573,-430 677,-430 677,-466"/>
<text text-anchor="middle" x="625" y="-445.2" font-family="Courier New" font-size="11.00">disSolrSearch</text>
</a>
</g>
<!-- _disSolrSearch&#45;&gt;_disSearch -->
<g id="edge99" class="edge"><title>_disSolrSearch-&gt;_disSearch</title>
<path fill="none" stroke="black" d="M572.77,-448C523.774,-448 450.473,-448 402.692,-448"/>
<polygon fill="none" stroke="black" points="402.606,-444.5 392.606,-448 402.606,-451.5 402.606,-444.5"/>
</g>
<!-- _disStopForumSpam -->
<g id="node58" class="node"><title>_disStopForumSpam</title>
<a xlink:href="_spam_stopforumspam_disstopforumspam.class.html" xlink:title="disStopForumSpam" target="_parent">
<polygon fill="none" stroke="black" points="687.5,-196 562.5,-196 562.5,-160 687.5,-160 687.5,-196"/>
<text text-anchor="middle" x="625" y="-175.2" font-family="Courier New" font-size="11.00">disStopForumSpam</text>
</a>
</g>
</g>
<script xlink:href="js/SVGPan.js"/></svg>
