<?xml version="1.0" encoding="UTF-8" standalone="no"?>
<!DOCTYPE svg PUBLIC "-//W3C//DTD SVG 1.1//EN" "http://www.w3.org/Graphics/SVG/1.1/DTD/svg11.dtd">
<!-- Generated by graphviz version 2.28.0 (20110705.1713)
 -->
<!-- Title: G Pages: 1 -->
<svg xmlns="http://www.w3.org/2000/svg" xmlns:xlink="http://www.w3.org/1999/xlink" width="756pt" height="1860pt">
<g id="viewport" class="graph" transform="scale(1 1) rotate(0) translate(4 1856)">
<title>G</title>
<polygon fill="white" stroke="white" points="-4,5 -4,-1856 753,-1856 753,5 -4,5"/>
<g id="graph2" class="cluster"><title>cluster_default</title>
<polyline fill="none" stroke="gray" points="53,-98 728,-98 "/>
<path fill="none" stroke="gray" d="M728,-98C734,-98 740,-104 740,-110"/>
<polyline fill="none" stroke="gray" points="740,-110 740,-1832 "/>
<path fill="none" stroke="gray" d="M740,-1832C740,-1838 734,-1844 728,-1844"/>
<polyline fill="none" stroke="gray" points="728,-1844 53,-1844 "/>
<path fill="none" stroke="gray" d="M53,-1844C47,-1844 41,-1838 41,-1832"/>
<polyline fill="none" stroke="gray" points="41,-1832 41,-110 "/>
<path fill="none" stroke="gray" d="M41,-110C41,-104 47,-98 53,-98"/>
<text text-anchor="middle" x="390.5" y="-1831.2" font-family="Times,serif" font-size="11.00" fill="gray">default</text>
</g>
<!-- _disBoard -->
<g id="node2" class="node"><title>_disBoard</title>
<a xlink:href="_disboard.class.html" xlink:title="disBoard" target="_parent">
<polygon fill="none" stroke="black" points="389.5,-952 318.5,-952 318.5,-916 389.5,-916 389.5,-952"/>
<text text-anchor="middle" x="354" y="-931.2" font-family="Courier New" font-size="11.00">disBoard</text>
</a>
</g>
<!-- _xPDOSimpleObject -->
<g id="node61" class="node"><title>_xPDOSimpleObject</title>
<ellipse fill="none" stroke="black" cx="88" cy="-72" rx="87.9851" ry="18"/>
<text text-anchor="middle" x="88" y="-68.3" font-family="Times,serif" font-size="14.00" fill="gray">\xPDOSimpleObject</text>
</g>
<!-- _disBoard&#45;&gt;_xPDOSimpleObject -->
<g id="edge3" class="edge"><title>_disBoard-&gt;_xPDOSimpleObject</title>
<path fill="none" stroke="black" d="M318.364,-934.768C294.855,-933.283 265.051,-927.091 248,-907 130.641,-768.713 293.636,-232.051 176,-94 174.058,-91.721 171.917,-89.6602 169.619,-87.7976"/>
<polygon fill="none" stroke="black" points="171.511,-84.8527 161.254,-82.2 167.618,-90.6703 171.511,-84.8527"/>
</g>
<!-- _disBoardClosure -->
<g id="node3" class="node"><title>_disBoardClosure</title>
<a xlink:href="_disboardclosure.class.html" xlink:title="disBoardClosure" target="_parent">
<polygon fill="none" stroke="black" points="413,-682 295,-682 295,-646 413,-646 413,-682"/>
<text text-anchor="middle" x="354" y="-661.2" font-family="Courier New" font-size="11.00">disBoardClosure</text>
</a>
</g>
<!-- _xPDOObject -->
<g id="node63" class="node"><title>_xPDOObject</title>
<ellipse fill="none" stroke="black" cx="88" cy="-18" rx="61.99" ry="18"/>
<text text-anchor="middle" x="88" y="-14.3" font-family="Times,serif" font-size="14.00" fill="gray">\xPDOObject</text>
</g>
<!-- _disBoardClosure&#45;&gt;_xPDOObject -->
<g id="edge5" class="edge"><title>_disBoardClosure-&gt;_xPDOObject</title>
<path fill="none" stroke="black" d="M294.912,-661.404C277.475,-657.702 259.853,-650.513 248,-637 73.2168,-437.746 345.826,-248.496 176,-45 170.121,-37.9557 162.439,-32.7176 154.072,-28.8287"/>
<polygon fill="none" stroke="black" points="155.363,-25.5754 144.778,-25.1168 152.767,-32.0761 155.363,-25.5754"/>
</g>
<!-- _disBoardUserGroup -->
<g id="node4" class="node"><title>_disBoardUserGroup</title>
<a xlink:href="_disboardusergroup.class.html" xlink:title="disBoardUserGroup" target="_parent">
<polygon fill="none" stroke="black" points="419.5,-898 288.5,-898 288.5,-862 419.5,-862 419.5,-898"/>
<text text-anchor="middle" x="354" y="-877.2" font-family="Courier New" font-size="11.00">disBoardUserGroup</text>
</a>
</g>
<!-- _disBoardUserGroup&#45;&gt;_xPDOSimpleObject -->
<g id="edge7" class="edge"><title>_disBoardUserGroup-&gt;_xPDOSimpleObject</title>
<path fill="none" stroke="black" d="M288.401,-876.095C273.103,-872.062 258.268,-865.023 248,-853 137.97,-724.167 286.288,-222.612 176,-94 174.051,-91.7271 171.904,-89.6714 169.6,-87.8132"/>
<polygon fill="none" stroke="black" points="171.484,-84.8623 161.222,-82.2274 167.601,-90.6866 171.484,-84.8623"/>
</g>
<!-- _disCategory -->
<g id="node5" class="node"><title>_disCategory</title>
<a xlink:href="_discategory.class.html" xlink:title="disCategory" target="_parent">
<polygon fill="none" stroke="black" points="399.5,-844 308.5,-844 308.5,-808 399.5,-808 399.5,-844"/>
<text text-anchor="middle" x="354" y="-823.2" font-family="Courier New" font-size="11.00">disCategory</text>
</a>
</g>
<!-- _disCategory&#45;&gt;_xPDOSimpleObject -->
<g id="edge9" class="edge"><title>_disCategory-&gt;_xPDOSimpleObject</title>
<path fill="none" stroke="black" d="M308.323,-825.766C286.922,-823.183 262.792,-816.194 248,-799 42.5912,-560.234 381.887,-332.353 176,-94 174.043,-91.7341 171.889,-89.6844 169.579,-87.8312"/>
<polygon fill="none" stroke="black" points="171.452,-84.8734 161.185,-82.2592 167.581,-90.7055 171.452,-84.8734"/>
</g>
<!-- _Discuss -->
<g id="node6" class="node"><title>_Discuss</title>
<a xlink:href="_discuss.class.html" xlink:title="Discuss" target="_parent">
<polygon fill="none" stroke="black" points="664,-1816 600,-1816 600,-1780 664,-1780 664,-1816"/>
<text text-anchor="middle" x="632" y="-1795.2" font-family="Courier New" font-size="11.00">Discuss</text>
</a>
</g>
<!-- _DiscussController -->
<g id="node7" class="node"><title>_DiscussController</title>
<a xlink:href="_discusscontroller.class.html" xlink:title="&lt;I&gt;_DiscussController&lt;/I&gt;" target="_parent">
<polygon fill="none" stroke="black" points="423.5,-1762 284.5,-1762 284.5,-1726 423.5,-1726 423.5,-1762"/>
<text text-anchor="start" x="293" y="-1742.2" font-family="Courier New" font-size="11.00">_DiscussController</text>
</a>
</g>
<!-- _DiscussDeprecatedController -->
<g id="node8" class="node"><title>_DiscussDeprecatedController</title>
<a xlink:href="_discusscontroller.class.html" xlink:title="DiscussDeprecatedController" target="_parent">
<polygon fill="none" stroke="black" points="731.5,-1762 532.5,-1762 532.5,-1726 731.5,-1726 731.5,-1762"/>
<text text-anchor="middle" x="632" y="-1741.2" font-family="Courier New" font-size="11.00">DiscussDeprecatedController</text>
</a>
</g>
<!-- _DiscussDeprecatedController&#45;&gt;_DiscussController -->
<g id="edge11" class="edge"><title>_DiscussDeprecatedController-&gt;_DiscussController</title>
<path fill="none" stroke="black" d="M532.137,-1744C499.896,-1744 464.549,-1744 433.967,-1744"/>
<polygon fill="none" stroke="black" points="433.79,-1740.5 423.79,-1744 433.79,-1747.5 433.79,-1740.5"/>
</g>
<!-- _disForumActivity -->
<g id="node9" class="node"><title>_disForumActivity</title>
<a xlink:href="_disforumactivity.class.html" xlink:title="disForumActivity" target="_parent">
<polygon fill="none" stroke="black" points="416.5,-790 291.5,-790 291.5,-754 416.5,-754 416.5,-790"/>
<text text-anchor="middle" x="354" y="-769.2" font-family="Courier New" font-size="11.00">disForumActivity</text>
</a>
</g>
<!-- _disForumActivity&#45;&gt;_xPDOSimpleObject -->
<g id="edge13" class="edge"><title>_disForumActivity-&gt;_xPDOSimpleObject</title>
<path fill="none" stroke="black" d="M291.264,-768.675C275.014,-764.772 258.978,-757.653 248,-745 57.233,-525.123 367.207,-313.494 176,-94 173.985,-91.6872 171.766,-89.6001 169.385,-87.7175"/>
<polygon fill="none" stroke="black" points="171.021,-84.6057 160.733,-82.0745 167.197,-90.469 171.021,-84.6057"/>
</g>
<!-- _disHooks -->
<g id="node10" class="node"><title>_disHooks</title>
<a xlink:href="_dishooks.class.html" xlink:title="disHooks" target="_parent">
<polygon fill="none" stroke="black" points="667.5,-1708 596.5,-1708 596.5,-1672 667.5,-1672 667.5,-1708"/>
<text text-anchor="middle" x="632" y="-1687.2" font-family="Courier New" font-size="11.00">disHooks</text>
</a>
</g>
<!-- _disLogActivity -->
<g id="node11" class="node"><title>_disLogActivity</title>
<a xlink:href="_dislogactivity.class.html" xlink:title="disLogActivity" target="_parent">
<polygon fill="none" stroke="black" points="409.5,-736 298.5,-736 298.5,-700 409.5,-700 409.5,-736"/>
<text text-anchor="middle" x="354" y="-715.2" font-family="Courier New" font-size="11.00">disLogActivity</text>
</a>
</g>
<!-- _disLogActivity&#45;&gt;_xPDOSimpleObject -->
<g id="edge15" class="edge"><title>_disLogActivity-&gt;_xPDOSimpleObject</title>
<path fill="none" stroke="black" d="M298.46,-716.119C279.892,-712.658 260.653,-705.439 248,-691 71.8629,-489.999 352.54,-294.648 176,-94 173.974,-91.6972 171.745,-89.6185 169.356,-87.743"/>
<polygon fill="none" stroke="black" points="170.977,-84.6225 160.682,-82.1191 167.169,-90.4961 170.977,-84.6225"/>
</g>
<!-- _disModerator -->
<g id="node12" class="node"><title>_disModerator</title>
<a xlink:href="_dismoderator.class.html" xlink:title="disModerator" target="_parent">
<polygon fill="none" stroke="black" points="403,-1438 305,-1438 305,-1402 403,-1402 403,-1438"/>
<text text-anchor="middle" x="354" y="-1417.2" font-family="Courier New" font-size="11.00">disModerator</text>
</a>
</g>
<!-- _disModerator&#45;&gt;_xPDOSimpleObject -->
<g id="edge17" class="edge"><title>_disModerator-&gt;_xPDOSimpleObject</title>
<path fill="none" stroke="black" d="M304.756,-1419.64C284.119,-1416.82 261.672,-1409.66 248,-1393 64.5873,-1169.52 359.86,-317.114 176,-94 174.096,-91.6893 171.987,-89.6015 169.716,-87.7163"/>
<polygon fill="none" stroke="black" points="171.657,-84.8038 161.424,-82.0569 167.711,-90.5854 171.657,-84.8038"/>
</g>
<!-- _disPost -->
<g id="node13" class="node"><title>_disPost</title>
<a xlink:href="_dispost.class.html" xlink:title="disPost" target="_parent">
<polygon fill="none" stroke="black" points="386,-1384 322,-1384 322,-1348 386,-1348 386,-1384"/>
<text text-anchor="middle" x="354" y="-1363.2" font-family="Courier New" font-size="11.00">disPost</text>
</a>
</g>
<!-- _disPost&#45;&gt;_xPDOSimpleObject -->
<g id="edge19" class="edge"><title>_disPost-&gt;_xPDOSimpleObject</title>
<path fill="none" stroke="black" d="M321.664,-1367.1C297.591,-1366.1 265.579,-1360.37 248,-1339 71.9315,-1124.99 352.497,-307.657 176,-94 174.093,-91.6916 171.982,-89.6058 169.709,-87.7221"/>
<polygon fill="none" stroke="black" points="171.646,-84.8073 161.412,-82.0672 167.704,-90.5915 171.646,-84.8073"/>
</g>
<!-- _disPostAttachment -->
<g id="node14" class="node"><title>_disPostAttachment</title>
<a xlink:href="_dispostattachment.class.html" xlink:title="disPostAttachment" target="_parent">
<polygon fill="none" stroke="black" points="419.5,-1330 288.5,-1330 288.5,-1294 419.5,-1294 419.5,-1330"/>
<text text-anchor="middle" x="354" y="-1309.2" font-family="Courier New" font-size="11.00">disPostAttachment</text>
</a>
</g>
<!-- _disPostAttachment&#45;&gt;_xPDOSimpleObject -->
<g id="edge21" class="edge"><title>_disPostAttachment-&gt;_xPDOSimpleObject</title>
<path fill="none" stroke="black" d="M288.394,-1308.4C273,-1304.38 258.121,-1297.27 248,-1285 79.2748,-1080.46 345.135,-298.201 176,-94 174.09,-91.6941 171.977,-89.6104 169.701,-87.7285"/>
<polygon fill="none" stroke="black" points="171.635,-84.8111 161.398,-82.0785 167.696,-90.5981 171.635,-84.8111"/>
</g>
<!-- _disPostClosure -->
<g id="node15" class="node"><title>_disPostClosure</title>
<a xlink:href="_dispostclosure.class.html" xlink:title="disPostClosure" target="_parent">
<polygon fill="none" stroke="black" points="409.5,-466 298.5,-466 298.5,-430 409.5,-430 409.5,-466"/>
<text text-anchor="middle" x="354" y="-445.2" font-family="Courier New" font-size="11.00">disPostClosure</text>
</a>
</g>
<!-- _disPostClosure&#45;&gt;_xPDOObject -->
<g id="edge23" class="edge"><title>_disPostClosure-&gt;_xPDOObject</title>
<path fill="none" stroke="black" d="M298.45,-445.53C280.105,-441.981 261.016,-434.856 248,-421 131.505,-296.988 289.407,-171.842 176,-45 169.885,-38.1601 162.073,-33.0338 153.648,-29.1955"/>
<polygon fill="none" stroke="black" points="154.903,-25.9282 144.316,-25.516 152.335,-32.4403 154.903,-25.9282"/>
</g>
<!-- _disReservedUsername -->
<g id="node16" class="node"><title>_disReservedUsername</title>
<a xlink:href="_disreservedusername.class.html" xlink:title="disReservedUsername" target="_parent">
<polygon fill="none" stroke="black" points="426.5,-628 281.5,-628 281.5,-592 426.5,-592 426.5,-628"/>
<text text-anchor="middle" x="354" y="-607.2" font-family="Courier New" font-size="11.00">disReservedUsername</text>
</a>
</g>
<!-- _disReservedUsername&#45;&gt;_xPDOObject -->
<g id="edge25" class="edge"><title>_disReservedUsername-&gt;_xPDOObject</title>
<path fill="none" stroke="black" d="M281.381,-603.646C268.731,-599.428 256.81,-592.923 248,-583 87.8297,-402.602 331.682,-229.286 176,-45 170.079,-37.9911 162.374,-32.7724 153.997,-28.8923"/>
<polygon fill="none" stroke="black" points="155.281,-25.6364 144.696,-25.186 152.69,-32.1392 155.281,-25.6364"/>
</g>
<!-- _disSession -->
<g id="node17" class="node"><title>_disSession</title>
<a xlink:href="_dissession.class.html" xlink:title="disSession" target="_parent">
<polygon fill="none" stroke="black" points="396,-574 312,-574 312,-538 396,-538 396,-574"/>
<text text-anchor="middle" x="354" y="-553.2" font-family="Courier New" font-size="11.00">disSession</text>
</a>
</g>
<!-- _disSession&#45;&gt;_xPDOObject -->
<g id="edge27" class="edge"><title>_disSession-&gt;_xPDOObject</title>
<path fill="none" stroke="black" d="M311.813,-555.842C289.763,-553.489 263.938,-546.689 248,-529 102.422,-367.434 317.558,-210.101 176,-45 170.028,-38.0347 162.294,-32.8397 153.905,-28.9704"/>
<polygon fill="none" stroke="black" points="155.181,-25.7115 144.596,-25.271 152.596,-32.2167 155.181,-25.7115"/>
</g>
<!-- _disThread -->
<g id="node18" class="node"><title>_disThread</title>
<a xlink:href="_disthread.class.html" xlink:title="disThread" target="_parent">
<polygon fill="none" stroke="black" points="126.5,-1546 49.5,-1546 49.5,-1510 126.5,-1510 126.5,-1546"/>
<text text-anchor="middle" x="88" y="-1525.2" font-family="Courier New" font-size="11.00">disThread</text>
</a>
</g>
<!-- _disThread&#45;&gt;_xPDOSimpleObject -->
<g id="edge29" class="edge"><title>_disThread-&gt;_xPDOSimpleObject</title>
<path fill="none" stroke="black" d="M88,-1509.75C88,-1039.89 88,-570.035 88,-100.18"/>
<polygon fill="none" stroke="black" points="91.5001,-100.129 88,-90.1289 84.5001,-100.129 91.5001,-100.129"/>
</g>
<!-- _disThreadDiscussion -->
<g id="node19" class="node"><title>_disThreadDiscussion</title>
<a xlink:href="_disthreaddiscussion.class.html" xlink:title="disThreadDiscussion" target="_parent">
<polygon fill="none" stroke="black" points="426.5,-1492 281.5,-1492 281.5,-1456 426.5,-1456 426.5,-1492"/>
<text text-anchor="middle" x="354" y="-1471.2" font-family="Courier New" font-size="11.00">disThreadDiscussion</text>
</a>
</g>
<!-- _disThreadDiscussion&#45;&gt;_disThread -->
<g id="edge31" class="edge"><title>_disThreadDiscussion-&gt;_disThread</title>
<path fill="none" stroke="black" d="M281.21,-1488.68C235.182,-1498.1 176.723,-1510.06 136.428,-1518.3"/>
<polygon fill="none" stroke="black" points="135.689,-1514.88 126.593,-1520.31 137.092,-1521.74 135.689,-1514.88"/>
</g>
<!-- _disThreadQuestion -->
<g id="node20" class="node"><title>_disThreadQuestion</title>
<a xlink:href="_disthreadquestion.class.html" xlink:title="disThreadQuestion" target="_parent">
<polygon fill="none" stroke="black" points="419.5,-1600 288.5,-1600 288.5,-1564 419.5,-1564 419.5,-1600"/>
<text text-anchor="middle" x="354" y="-1579.2" font-family="Courier New" font-size="11.00">disThreadQuestion</text>
</a>
</g>
<!-- _disThreadQuestion&#45;&gt;_disThread -->
<g id="edge33" class="edge"><title>_disThreadQuestion-&gt;_disThread</title>
<path fill="none" stroke="black" d="M288.418,-1568.79C241.5,-1559.19 179.048,-1546.42 136.62,-1537.74"/>
<polygon fill="none" stroke="black" points="137.319,-1534.31 126.82,-1535.74 135.916,-1541.17 137.319,-1534.31"/>
</g>
<!-- _disThreadRead -->
<g id="node21" class="node"><title>_disThreadRead</title>
<a xlink:href="_disthreadread.class.html" xlink:title="disThreadRead" target="_parent">
<polygon fill="none" stroke="black" points="406,-1168 302,-1168 302,-1132 406,-1132 406,-1168"/>
<text text-anchor="middle" x="354" y="-1147.2" font-family="Courier New" font-size="11.00">disThreadRead</text>
</a>
</g>
<!-- _disThreadRead&#45;&gt;_xPDOSimpleObject -->
<g id="edge35" class="edge"><title>_disThreadRead-&gt;_xPDOSimpleObject</title>
<path fill="none" stroke="black" d="M301.884,-1149.11C282.115,-1146 261.13,-1138.76 248,-1123 101.298,-946.866 323.054,-269.839 176,-94 174.079,-91.7031 171.956,-89.6272 169.673,-87.7518"/>
<polygon fill="none" stroke="black" points="171.593,-84.825 161.349,-82.1195 167.67,-90.6224 171.593,-84.825"/>
</g>
<!-- _disThreadUser -->
<g id="node22" class="node"><title>_disThreadUser</title>
<a xlink:href="_disthreaduser.class.html" xlink:title="disThreadUser" target="_parent">
<polygon fill="none" stroke="black" points="406,-520 302,-520 302,-484 406,-484 406,-520"/>
<text text-anchor="middle" x="354" y="-499.2" font-family="Courier New" font-size="11.00">disThreadUser</text>
</a>
</g>
<!-- _disThreadUser&#45;&gt;_xPDOObject -->
<g id="edge37" class="edge"><title>_disThreadUser-&gt;_xPDOObject</title>
<path fill="none" stroke="black" d="M301.806,-500.334C282.387,-497.056 261.681,-489.908 248,-475 116.984,-332.233 303.462,-190.948 176,-45 169.965,-38.0894 162.197,-32.9243 153.791,-29.0685"/>
<polygon fill="none" stroke="black" points="155.058,-25.8059 144.472,-25.3778 152.481,-32.3141 155.058,-25.8059"/>
</g>
<!-- _disTreeParser -->
<g id="node23" class="node"><title>_disTreeParser</title>
<a xlink:href="_distreeparser.class.html" xlink:title="disTreeParser" target="_parent">
<polygon fill="none" stroke="black" points="684,-1654 580,-1654 580,-1618 684,-1618 684,-1654"/>
<text text-anchor="middle" x="632" y="-1633.2" font-family="Courier New" font-size="11.00">disTreeParser</text>
</a>
</g>
<!-- _disUser -->
<g id="node24" class="node"><title>_disUser</title>
<a xlink:href="_disuser.class.html" xlink:title="disUser" target="_parent">
<polygon fill="none" stroke="black" points="386,-1114 322,-1114 322,-1078 386,-1078 386,-1114"/>
<text text-anchor="middle" x="354" y="-1093.2" font-family="Courier New" font-size="11.00">disUser</text>
</a>
</g>
<!-- _disUser&#45;&gt;_xPDOSimpleObject -->
<g id="edge39" class="edge"><title>_disUser-&gt;_xPDOSimpleObject</title>
<path fill="none" stroke="black" d="M321.756,-1097.03C297.735,-1095.98 265.749,-1090.23 248,-1069 108.637,-902.331 315.697,-260.389 176,-94 174.075,-91.7068 171.948,-89.634 169.661,-87.7613"/>
<polygon fill="none" stroke="black" points="171.576,-84.8307 161.329,-82.1362 167.659,-90.6324 171.576,-84.8307"/>
</g>
<!-- _disUserFriend -->
<g id="node25" class="node"><title>_disUserFriend</title>
<a xlink:href="_disuserfriend.class.html" xlink:title="disUserFriend" target="_parent">
<polygon fill="none" stroke="black" points="406,-1060 302,-1060 302,-1024 406,-1024 406,-1060"/>
<text text-anchor="middle" x="354" y="-1039.2" font-family="Courier New" font-size="11.00">disUserFriend</text>
</a>
</g>
<!-- _disUserFriend&#45;&gt;_xPDOSimpleObject -->
<g id="edge41" class="edge"><title>_disUserFriend-&gt;_xPDOSimpleObject</title>
<path fill="none" stroke="black" d="M301.948,-1041.06C282.188,-1037.94 261.194,-1030.71 248,-1015 115.974,-857.795 308.341,-250.94 176,-94 174.07,-91.711 171.939,-89.6417 169.649,-87.772"/>
<polygon fill="none" stroke="black" points="171.557,-84.8371 161.307,-82.1549 167.647,-90.6435 171.557,-84.8371"/>
</g>
<!-- _disUserGroupProfile -->
<g id="node26" class="node"><title>_disUserGroupProfile</title>
<a xlink:href="_disusergroupprofile.class.html" xlink:title="disUserGroupProfile" target="_parent">
<polygon fill="none" stroke="black" points="426.5,-1006 281.5,-1006 281.5,-970 426.5,-970 426.5,-1006"/>
<text text-anchor="middle" x="354" y="-985.2" font-family="Courier New" font-size="11.00">disUserGroupProfile</text>
</a>
</g>
<!-- _disUserGroupProfile&#45;&gt;_xPDOSimpleObject -->
<g id="edge43" class="edge"><title>_disUserGroupProfile-&gt;_xPDOSimpleObject</title>
<path fill="none" stroke="black" d="M281.253,-982.079C268.534,-977.837 256.619,-971.213 248,-961 123.309,-813.255 300.987,-241.494 176,-94 174.064,-91.7157 171.929,-89.6503 169.635,-87.784"/>
<polygon fill="none" stroke="black" points="171.535,-84.8444 161.282,-82.176 167.633,-90.656 171.535,-84.8444"/>
</g>
<!-- _disUserModerated -->
<g id="node27" class="node"><title>_disUserModerated</title>
<a xlink:href="_disusermoderated.class.html" xlink:title="disUserModerated" target="_parent">
<polygon fill="none" stroke="black" points="416.5,-1276 291.5,-1276 291.5,-1240 416.5,-1240 416.5,-1276"/>
<text text-anchor="middle" x="354" y="-1255.2" font-family="Courier New" font-size="11.00">disUserModerated</text>
</a>
</g>
<!-- _disUserModerated&#45;&gt;_xPDOSimpleObject -->
<g id="edge45" class="edge"><title>_disUserModerated-&gt;_xPDOSimpleObject</title>
<path fill="none" stroke="black" d="M291.429,-1255.13C274.982,-1251.26 258.798,-1244.05 248,-1231 86.6172,-1035.93 337.773,-288.745 176,-94 174.087,-91.6968 171.97,-89.6154 169.692,-87.7355"/>
<polygon fill="none" stroke="black" points="171.622,-84.8152 161.383,-82.0908 167.688,-90.6055 171.622,-84.8152"/>
</g>
<!-- _disUserNotification -->
<g id="node28" class="node"><title>_disUserNotification</title>
<a xlink:href="_disusernotification.class.html" xlink:title="disUserNotification" target="_parent">
<polygon fill="none" stroke="black" points="426.5,-1222 281.5,-1222 281.5,-1186 426.5,-1186 426.5,-1222"/>
<text text-anchor="middle" x="354" y="-1201.2" font-family="Courier New" font-size="11.00">disUserNotification</text>
</a>
</g>
<!-- _disUserNotification&#45;&gt;_xPDOSimpleObject -->
<g id="edge47" class="edge"><title>_disUserNotification-&gt;_xPDOSimpleObject</title>
<path fill="none" stroke="black" d="M281.39,-1198.28C268.579,-1194.03 256.595,-1187.36 248,-1177 93.9584,-991.399 330.413,-279.292 176,-94 174.083,-91.6998 171.964,-89.621 169.683,-87.7433"/>
<polygon fill="none" stroke="black" points="171.608,-84.8198 161.367,-82.1044 167.679,-90.6135 171.608,-84.8198"/>
</g>
<!-- _DisSmfImport -->
<g id="node29" class="node"><title>_DisSmfImport</title>
<a xlink:href="_import_dissmfimport.class.html" xlink:title="DisSmfImport" target="_parent">
<polygon fill="none" stroke="black" points="681,-1600 583,-1600 583,-1564 681,-1564 681,-1600"/>
<text text-anchor="middle" x="632" y="-1579.2" font-family="Courier New" font-size="11.00">DisSmfImport</text>
</a>
</g>
<!-- _disBoard_mysql -->
<g id="node30" class="node"><title>_disBoard_mysql</title>
<a xlink:href="_mysql_disboard.class.html" xlink:title="disBoard_mysql" target="_parent">
<polygon fill="none" stroke="black" points="687.5,-952 576.5,-952 576.5,-916 687.5,-916 687.5,-952"/>
<text text-anchor="middle" x="632" y="-931.2" font-family="Courier New" font-size="11.00">disBoard_mysql</text>
</a>
</g>
<!-- _disBoard_mysql&#45;&gt;_disBoard -->
<g id="edge49" class="edge"><title>_disBoard_mysql-&gt;_disBoard</title>
<path fill="none" stroke="black" d="M576.471,-934C524.806,-934 448.138,-934 399.903,-934"/>
<polygon fill="none" stroke="black" points="399.766,-930.5 389.766,-934 399.766,-937.5 399.766,-930.5"/>
</g>
<!-- _disBoardClosure_mysql -->
<g id="node31" class="node"><title>_disBoardClosure_mysql</title>
<a xlink:href="_mysql_disboardclosure.class.html" xlink:title="disBoardClosure_mysql" target="_parent">
<polygon fill="none" stroke="black" points="711,-682 553,-682 553,-646 711,-646 711,-682"/>
<text text-anchor="middle" x="632" y="-661.2" font-family="Courier New" font-size="11.00">disBoardClosure_mysql</text>
</a>
</g>
<!-- _disBoardClosure_mysql&#45;&gt;_disBoardClosure -->
<g id="edge51" class="edge"><title>_disBoardClosure_mysql-&gt;_disBoardClosure</title>
<path fill="none" stroke="black" d="M552.648,-664C511.977,-664 462.748,-664 423.595,-664"/>
<polygon fill="none" stroke="black" points="423.353,-660.5 413.353,-664 423.353,-667.5 423.353,-660.5"/>
</g>
<!-- _disBoardUserGroup_mysql -->
<g id="node32" class="node"><title>_disBoardUserGroup_mysql</title>
<a xlink:href="_mysql_disboardusergroup.class.html" xlink:title="disBoardUserGroup_mysql" target="_parent">
<polygon fill="none" stroke="black" points="718,-898 546,-898 546,-862 718,-862 718,-898"/>
<text text-anchor="middle" x="632" y="-877.2" font-family="Courier New" font-size="11.00">disBoardUserGroup_mysql</text>
</a>
</g>
<!-- _disBoardUserGroup_mysql&#45;&gt;_disBoardUserGroup -->
<g id="edge53" class="edge"><title>_disBoardUserGroup_mysql-&gt;_disBoardUserGroup</title>
<path fill="none" stroke="black" d="M545.939,-880C508.89,-880 465.841,-880 430.007,-880"/>
<polygon fill="none" stroke="black" points="429.619,-876.5 419.619,-880 429.618,-883.5 429.619,-876.5"/>
</g>
<!-- _disCategory_mysql -->
<g id="node33" class="node"><title>_disCategory_mysql</title>
<a xlink:href="_mysql_discategory.class.html" xlink:title="disCategory_mysql" target="_parent">
<polygon fill="none" stroke="black" points="697.5,-844 566.5,-844 566.5,-808 697.5,-808 697.5,-844"/>
<text text-anchor="middle" x="632" y="-823.2" font-family="Courier New" font-size="11.00">disCategory_mysql</text>
</a>
</g>
<!-- _disCategory_mysql&#45;&gt;_disCategory -->
<g id="edge55" class="edge"><title>_disCategory_mysql-&gt;_disCategory</title>
<path fill="none" stroke="black" d="M566.29,-826C518.841,-826 455.107,-826 410.085,-826"/>
<polygon fill="none" stroke="black" points="409.921,-822.5 399.921,-826 409.921,-829.5 409.921,-822.5"/>
</g>
<!-- _disForumActivity_mysql -->
<g id="node34" class="node"><title>_disForumActivity_mysql</title>
<a xlink:href="_mysql_disforumactivity.class.html" xlink:title="disForumActivity_mysql" target="_parent">
<polygon fill="none" stroke="black" points="714.5,-790 549.5,-790 549.5,-754 714.5,-754 714.5,-790"/>
<text text-anchor="middle" x="632" y="-769.2" font-family="Courier New" font-size="11.00">disForumActivity_mysql</text>
</a>
</g>
<!-- _disForumActivity_mysql&#45;&gt;_disForumActivity -->
<g id="edge57" class="edge"><title>_disForumActivity_mysql-&gt;_disForumActivity</title>
<path fill="none" stroke="black" d="M549.311,-772C510.517,-772 464.557,-772 427.077,-772"/>
<polygon fill="none" stroke="black" points="426.743,-768.5 416.743,-772 426.743,-775.5 426.743,-768.5"/>
</g>
<!-- _disLogActivity_mysql -->
<g id="node35" class="node"><title>_disLogActivity_mysql</title>
<a xlink:href="_mysql_dislogactivity.class.html" xlink:title="disLogActivity_mysql" target="_parent">
<polygon fill="none" stroke="black" points="708,-736 556,-736 556,-700 708,-700 708,-736"/>
<text text-anchor="middle" x="632" y="-715.2" font-family="Courier New" font-size="11.00">disLogActivity_mysql</text>
</a>
</g>
<!-- _disLogActivity_mysql&#45;&gt;_disLogActivity -->
<g id="edge59" class="edge"><title>_disLogActivity_mysql-&gt;_disLogActivity</title>
<path fill="none" stroke="black" d="M555.946,-718C513.418,-718 460.739,-718 419.989,-718"/>
<polygon fill="none" stroke="black" points="419.899,-714.5 409.899,-718 419.899,-721.5 419.899,-714.5"/>
</g>
<!-- _disModerator_mysql -->
<g id="node36" class="node"><title>_disModerator_mysql</title>
<a xlink:href="_mysql_dismoderator.class.html" xlink:title="disModerator_mysql" target="_parent">
<polygon fill="none" stroke="black" points="701,-1438 563,-1438 563,-1402 701,-1402 701,-1438"/>
<text text-anchor="middle" x="632" y="-1417.2" font-family="Courier New" font-size="11.00">disModerator_mysql</text>
</a>
</g>
<!-- _disModerator_mysql&#45;&gt;_disModerator -->
<g id="edge61" class="edge"><title>_disModerator_mysql-&gt;_disModerator</title>
<path fill="none" stroke="black" d="M562.775,-1420C516.962,-1420 457.226,-1420 413.57,-1420"/>
<polygon fill="none" stroke="black" points="413.396,-1416.5 403.396,-1420 413.396,-1423.5 413.396,-1416.5"/>
</g>
<!-- _disPost_mysql -->
<g id="node37" class="node"><title>_disPost_mysql</title>
<a xlink:href="_mysql_dispost.class.html" xlink:title="disPost_mysql" target="_parent">
<polygon fill="none" stroke="black" points="684,-1384 580,-1384 580,-1348 684,-1348 684,-1384"/>
<text text-anchor="middle" x="632" y="-1363.2" font-family="Courier New" font-size="11.00">disPost_mysql</text>
</a>
</g>
<!-- _disPost_mysql&#45;&gt;_disPost -->
<g id="edge63" class="edge"><title>_disPost_mysql-&gt;_disPost</title>
<path fill="none" stroke="black" d="M579.733,-1366C526.867,-1366 445.443,-1366 396.483,-1366"/>
<polygon fill="none" stroke="black" points="396.254,-1362.5 386.254,-1366 396.254,-1369.5 396.254,-1362.5"/>
</g>
<!-- _disPostAttachment_mysql -->
<g id="node38" class="node"><title>_disPostAttachment_mysql</title>
<a xlink:href="_mysql_dispostattachment.class.html" xlink:title="disPostAttachment_mysql" target="_parent">
<polygon fill="none" stroke="black" points="718,-1330 546,-1330 546,-1294 718,-1294 718,-1330"/>
<text text-anchor="middle" x="632" y="-1309.2" font-family="Courier New" font-size="11.00">disPostAttachment_mysql</text>
</a>
</g>
<!-- _disPostAttachment_mysql&#45;&gt;_disPostAttachment -->
<g id="edge65" class="edge"><title>_disPostAttachment_mysql-&gt;_disPostAttachment</title>
<path fill="none" stroke="black" d="M545.939,-1312C508.89,-1312 465.841,-1312 430.007,-1312"/>
<polygon fill="none" stroke="black" points="429.619,-1308.5 419.619,-1312 429.618,-1315.5 429.619,-1308.5"/>
</g>
<!-- _disPostClosure_mysql -->
<g id="node39" class="node"><title>_disPostClosure_mysql</title>
<a xlink:href="_mysql_dispostclosure.class.html" xlink:title="disPostClosure_mysql" target="_parent">
<polygon fill="none" stroke="black" points="708,-466 556,-466 556,-430 708,-430 708,-466"/>
<text text-anchor="middle" x="632" y="-445.2" font-family="Courier New" font-size="11.00">disPostClosure_mysql</text>
</a>
</g>
<!-- _disPostClosure_mysql&#45;&gt;_disPostClosure -->
<g id="edge67" class="edge"><title>_disPostClosure_mysql-&gt;_disPostClosure</title>
<path fill="none" stroke="black" d="M555.946,-448C513.418,-448 460.739,-448 419.989,-448"/>
<polygon fill="none" stroke="black" points="419.899,-444.5 409.899,-448 419.899,-451.5 419.899,-444.5"/>
</g>
<!-- _disReservedUsername_mysql -->
<g id="node40" class="node"><title>_disReservedUsername_mysql</title>
<a xlink:href="_mysql_disreservedusername.class.html" xlink:title="disReservedUsername_mysql" target="_parent">
<polygon fill="none" stroke="black" points="724.5,-628 539.5,-628 539.5,-592 724.5,-592 724.5,-628"/>
<text text-anchor="middle" x="632" y="-607.2" font-family="Courier New" font-size="11.00">disReservedUsername_mysql</text>
</a>
</g>
<!-- _disReservedUsername_mysql&#45;&gt;_disReservedUsername -->
<g id="edge69" class="edge"><title>_disReservedUsername_mysql-&gt;_disReservedUsername</title>
<path fill="none" stroke="black" d="M539.479,-610C506.347,-610 469.167,-610 436.913,-610"/>
<polygon fill="none" stroke="black" points="436.625,-606.5 426.625,-610 436.625,-613.5 436.625,-606.5"/>
</g>
<!-- _disSession_mysql -->
<g id="node41" class="node"><title>_disSession_mysql</title>
<a xlink:href="_mysql_dissession.class.html" xlink:title="disSession_mysql" target="_parent">
<polygon fill="none" stroke="black" points="694.5,-574 569.5,-574 569.5,-538 694.5,-538 694.5,-574"/>
<text text-anchor="middle" x="632" y="-553.2" font-family="Courier New" font-size="11.00">disSession_mysql</text>
</a>
</g>
<!-- _disSession_mysql&#45;&gt;_disSession -->
<g id="edge71" class="edge"><title>_disSession_mysql-&gt;_disSession</title>
<path fill="none" stroke="black" d="M569.404,-556C520.366,-556 452.534,-556 406.389,-556"/>
<polygon fill="none" stroke="black" points="406.308,-552.5 396.308,-556 406.308,-559.5 406.308,-552.5"/>
</g>
<!-- _disThread_mysql -->
<g id="node42" class="node"><title>_disThread_mysql</title>
<a xlink:href="_mysql_disthread.class.html" xlink:title="disThread_mysql" target="_parent">
<polygon fill="none" stroke="black" points="413,-1546 295,-1546 295,-1510 413,-1510 413,-1546"/>
<text text-anchor="middle" x="354" y="-1525.2" font-family="Courier New" font-size="11.00">disThread_mysql</text>
</a>
</g>
<!-- _disThread_mysql&#45;&gt;_disThread -->
<g id="edge73" class="edge"><title>_disThread_mysql-&gt;_disThread</title>
<path fill="none" stroke="black" d="M294.737,-1528C247.363,-1528 181.332,-1528 136.971,-1528"/>
<polygon fill="none" stroke="black" points="136.741,-1524.5 126.741,-1528 136.741,-1531.5 136.741,-1524.5"/>
</g>
<!-- _disThreadDiscussion_mysql -->
<g id="node43" class="node"><title>_disThreadDiscussion_mysql</title>
<a xlink:href="_mysql_disthreaddiscussion.class.html" xlink:title="disThreadDiscussion_mysql" target="_parent">
<polygon fill="none" stroke="black" points="724.5,-1492 539.5,-1492 539.5,-1456 724.5,-1456 724.5,-1492"/>
<text text-anchor="middle" x="632" y="-1471.2" font-family="Courier New" font-size="11.00">disThreadDiscussion_mysql</text>
</a>
</g>
<!-- _disThreadDiscussion_mysql&#45;&gt;_disThreadDiscussion -->
<g id="edge75" class="edge"><title>_disThreadDiscussion_mysql-&gt;_disThreadDiscussion</title>
<path fill="none" stroke="black" d="M539.479,-1474C506.347,-1474 469.167,-1474 436.913,-1474"/>
<polygon fill="none" stroke="black" points="436.625,-1470.5 426.625,-1474 436.625,-1477.5 436.625,-1470.5"/>
</g>
<!-- _disThreadQuestion_mysql -->
<g id="node44" class="node"><title>_disThreadQuestion_mysql</title>
<a xlink:href="_mysql_disthreadquestion.class.html" xlink:title="disThreadQuestion_mysql" target="_parent">
<polygon fill="none" stroke="black" points="718,-1546 546,-1546 546,-1510 718,-1510 718,-1546"/>
<text text-anchor="middle" x="632" y="-1525.2" font-family="Courier New" font-size="11.00">disThreadQuestion_mysql</text>
</a>
</g>
<!-- _disThreadQuestion_mysql&#45;&gt;_disThreadQuestion -->
<g id="edge77" class="edge"><title>_disThreadQuestion_mysql-&gt;_disThreadQuestion</title>
<path fill="none" stroke="black" d="M545.939,-1544.64C508.731,-1551.92 465.471,-1560.39 429.546,-1567.41"/>
<polygon fill="none" stroke="black" points="428.76,-1564 419.619,-1569.36 430.105,-1570.87 428.76,-1564"/>
</g>
<!-- _disThreadRead_mysql -->
<g id="node45" class="node"><title>_disThreadRead_mysql</title>
<a xlink:href="_mysql_disthreadread.class.html" xlink:title="disThreadRead_mysql" target="_parent">
<polygon fill="none" stroke="black" points="704.5,-1168 559.5,-1168 559.5,-1132 704.5,-1132 704.5,-1168"/>
<text text-anchor="middle" x="632" y="-1147.2" font-family="Courier New" font-size="11.00">disThreadRead_mysql</text>
</a>
</g>
<!-- _disThreadRead_mysql&#45;&gt;_disThreadRead -->
<g id="edge79" class="edge"><title>_disThreadRead_mysql-&gt;_disThreadRead</title>
<path fill="none" stroke="black" d="M559.205,-1150C514.938,-1150 458.761,-1150 416.538,-1150"/>
<polygon fill="none" stroke="black" points="416.393,-1146.5 406.393,-1150 416.393,-1153.5 416.393,-1146.5"/>
</g>
<!-- _disThreadUser_mysql -->
<g id="node46" class="node"><title>_disThreadUser_mysql</title>
<a xlink:href="_mysql_disthreaduser.class.html" xlink:title="disThreadUser_mysql" target="_parent">
<polygon fill="none" stroke="black" points="704.5,-520 559.5,-520 559.5,-484 704.5,-484 704.5,-520"/>
<text text-anchor="middle" x="632" y="-499.2" font-family="Courier New" font-size="11.00">disThreadUser_mysql</text>
</a>
</g>
<!-- _disThreadUser_mysql&#45;&gt;_disThreadUser -->
<g id="edge81" class="edge"><title>_disThreadUser_mysql-&gt;_disThreadUser</title>
<path fill="none" stroke="black" d="M559.205,-502C514.938,-502 458.761,-502 416.538,-502"/>
<polygon fill="none" stroke="black" points="416.393,-498.5 406.393,-502 416.393,-505.5 416.393,-498.5"/>
</g>
<!-- _disUser_mysql -->
<g id="node47" class="node"><title>_disUser_mysql</title>
<a xlink:href="_mysql_disuser.class.html" xlink:title="disUser_mysql" target="_parent">
<polygon fill="none" stroke="black" points="684,-1114 580,-1114 580,-1078 684,-1078 684,-1114"/>
<text text-anchor="middle" x="632" y="-1093.2" font-family="Courier New" font-size="11.00">disUser_mysql</text>
</a>
</g>
<!-- _disUser_mysql&#45;&gt;_disUser -->
<g id="edge83" class="edge"><title>_disUser_mysql-&gt;_disUser</title>
<path fill="none" stroke="black" d="M579.733,-1096C526.867,-1096 445.443,-1096 396.483,-1096"/>
<polygon fill="none" stroke="black" points="396.254,-1092.5 386.254,-1096 396.254,-1099.5 396.254,-1092.5"/>
</g>
<!-- _disUserFriend_mysql -->
<g id="node48" class="node"><title>_disUserFriend_mysql</title>
<a xlink:href="_mysql_disuserfriend.class.html" xlink:title="disUserFriend_mysql" target="_parent">
<polygon fill="none" stroke="black" points="704.5,-1060 559.5,-1060 559.5,-1024 704.5,-1024 704.5,-1060"/>
<text text-anchor="middle" x="632" y="-1039.2" font-family="Courier New" font-size="11.00">disUserFriend_mysql</text>
</a>
</g>
<!-- _disUserFriend_mysql&#45;&gt;_disUserFriend -->
<g id="edge85" class="edge"><title>_disUserFriend_mysql-&gt;_disUserFriend</title>
<path fill="none" stroke="black" d="M559.205,-1042C514.938,-1042 458.761,-1042 416.538,-1042"/>
<polygon fill="none" stroke="black" points="416.393,-1038.5 406.393,-1042 416.393,-1045.5 416.393,-1038.5"/>
</g>
<!-- _disUserGroupProfile_mysql -->
<g id="node49" class="node"><title>_disUserGroupProfile_mysql</title>
<a xlink:href="_mysql_disusergroupprofile.class.html" xlink:title="disUserGroupProfile_mysql" target="_parent">
<polygon fill="none" stroke="black" points="724.5,-1006 539.5,-1006 539.5,-970 724.5,-970 724.5,-1006"/>
<text text-anchor="middle" x="632" y="-985.2" font-family="Courier New" font-size="11.00">disUserGroupProfile_mysql</text>
</a>
</g>
<!-- _disUserGroupProfile_mysql&#45;&gt;_disUserGroupProfile -->
<g id="edge87" class="edge"><title>_disUserGroupProfile_mysql-&gt;_disUserGroupProfile</title>
<path fill="none" stroke="black" d="M539.479,-988C506.347,-988 469.167,-988 436.913,-988"/>
<polygon fill="none" stroke="black" points="436.625,-984.5 426.625,-988 436.625,-991.5 436.625,-984.5"/>
</g>
<!-- _disUserModerated_mysql -->
<g id="node50" class="node"><title>_disUserModerated_mysql</title>
<a xlink:href="_mysql_disusermoderated.class.html" xlink:title="disUserModerated_mysql" target="_parent">
<polygon fill="none" stroke="black" points="714.5,-1276 549.5,-1276 549.5,-1240 714.5,-1240 714.5,-1276"/>
<text text-anchor="middle" x="632" y="-1255.2" font-family="Courier New" font-size="11.00">disUserModerated_mysql</text>
</a>
</g>
<!-- _disUserModerated_mysql&#45;&gt;_disUserModerated -->
<g id="edge89" class="edge"><title>_disUserModerated_mysql-&gt;_disUserModerated</title>
<path fill="none" stroke="black" d="M549.311,-1258C510.517,-1258 464.557,-1258 427.077,-1258"/>
<polygon fill="none" stroke="black" points="426.743,-1254.5 416.743,-1258 426.743,-1261.5 426.743,-1254.5"/>
</g>
<!-- _disUserNotification_mysql -->
<g id="node51" class="node"><title>_disUserNotification_mysql</title>
<a xlink:href="_mysql_disusernotification.class.html" xlink:title="disUserNotification_mysql" target="_parent">
<polygon fill="none" stroke="black" points="724.5,-1222 539.5,-1222 539.5,-1186 724.5,-1186 724.5,-1222"/>
<text text-anchor="middle" x="632" y="-1201.2" font-family="Courier New" font-size="11.00">disUserNotification_mysql</text>
</a>
</g>
<!-- _disUserNotification_mysql&#45;&gt;_disUserNotification -->
<g id="edge91" class="edge"><title>_disUserNotification_mysql-&gt;_disUserNotification</title>
<path fill="none" stroke="black" d="M539.479,-1204C506.347,-1204 469.167,-1204 436.913,-1204"/>
<polygon fill="none" stroke="black" points="436.625,-1200.5 426.625,-1204 436.625,-1207.5 436.625,-1200.5"/>
</g>
<!-- _disBBCodeParser -->
<g id="node52" class="node"><title>_disBBCodeParser</title>
<a xlink:href="_parser_disbbcodeparser.class.html" xlink:title="disBBCodeParser" target="_parent">
<polygon fill="none" stroke="black" points="691,-412 573,-412 573,-376 691,-376 691,-412"/>
<text text-anchor="middle" x="632" y="-391.2" font-family="Courier New" font-size="11.00">disBBCodeParser</text>
</a>
</g>
<!-- _disParser -->
<g id="node53" class="node"><title>_disParser</title>
<a xlink:href="_parser_disparser.class.html" xlink:title="&lt;I&gt;_disParser&lt;/I&gt;" target="_parent">
<polygon fill="none" stroke="black" points="396.5,-412 311.5,-412 311.5,-376 396.5,-376 396.5,-412"/>
<text text-anchor="start" x="320" y="-392.2" font-family="Courier New" font-size="11.00">_disParser</text>
</a>
</g>
<!-- _disBBCodeParser&#45;&gt;_disParser -->
<g id="edge93" class="edge"><title>_disBBCodeParser-&gt;_disParser</title>
<path fill="none" stroke="black" d="M572.805,-394C523.592,-394 453.749,-394 406.529,-394"/>
<polygon fill="none" stroke="black" points="406.517,-390.5 396.517,-394 406.517,-397.5 406.517,-390.5"/>
</g>
<!-- _disConnectorRequest -->
<g id="node54" class="node"><title>_disConnectorRequest</title>
<a xlink:href="_request_disconnectorrequest.class.html" xlink:title="disConnectorRequest" target="_parent">
<polygon fill="none" stroke="black" points="704.5,-304 559.5,-304 559.5,-268 704.5,-268 704.5,-304"/>
<text text-anchor="middle" x="632" y="-283.2" font-family="Courier New" font-size="11.00">disConnectorRequest</text>
</a>
</g>
<!-- _modConnectorResponse -->
<g id="node109" class="node"><title>_modConnectorResponse</title>
<ellipse fill="none" stroke="black" cx="354" cy="-72" rx="105.082" ry="18"/>
<text text-anchor="middle" x="354" y="-68.3" font-family="Times,serif" font-size="14.00" fill="gray">\modConnectorResponse</text>
</g>
<!-- _disConnectorRequest&#45;&gt;_modConnectorResponse -->
<g id="edge95" class="edge"><title>_disConnectorRequest-&gt;_modConnectorResponse</title>
<path fill="none" stroke="black" d="M559.478,-274.853C549.497,-271.013 539.952,-265.874 532,-259 471.469,-206.677 522.066,-144.493 460,-94 456.8,-91.3967 453.368,-89.0792 449.768,-87.0176"/>
<polygon fill="none" stroke="black" points="451.02,-83.731 440.508,-82.4026 447.897,-89.996 451.02,-83.731"/>
</g>
<!-- _DisControllerRequest -->
<g id="node55" class="node"><title>_DisControllerRequest</title>
<a xlink:href="_request_discontrollerrequest.class.html" xlink:title="DisControllerRequest" target="_parent">
<polygon fill="none" stroke="black" points="708,-196 556,-196 556,-160 708,-160 708,-196"/>
<text text-anchor="middle" x="632" y="-175.2" font-family="Courier New" font-size="11.00">DisControllerRequest</text>
</a>
</g>
<!-- _modRequest -->
<g id="node111" class="node"><title>_modRequest</title>
<ellipse fill="none" stroke="black" cx="354" cy="-18" rx="59.5901" ry="18"/>
<text text-anchor="middle" x="354" y="-14.3" font-family="Times,serif" font-size="14.00" fill="gray">\modRequest</text>
</g>
<!-- _DisControllerRequest&#45;&gt;_modRequest -->
<g id="edge97" class="edge"><title>_DisControllerRequest-&gt;_modRequest</title>
<path fill="none" stroke="black" d="M555.936,-163.744C547.442,-160.362 539.249,-156.177 532,-151 485.655,-117.9 506.585,-77.7614 460,-45 448.116,-36.6425 433.853,-30.8702 419.726,-26.884"/>
<polygon fill="none" stroke="black" points="420.553,-23.483 409.998,-24.3998 418.821,-30.2653 420.553,-23.483"/>
</g>
<!-- _DisRequest -->
<g id="node56" class="node"><title>_DisRequest</title>
<a xlink:href="_request_disrequest.class.html" xlink:title="DisRequest" target="_parent">
<polygon fill="none" stroke="black" points="674,-250 590,-250 590,-214 674,-214 674,-250"/>
<text text-anchor="middle" x="632" y="-229.2" font-family="Courier New" font-size="11.00">DisRequest</text>
</a>
</g>
<!-- _disSearch -->
<g id="node57" class="node"><title>_disSearch</title>
<a xlink:href="_search_dissearch.class.html" xlink:title="disSearch" target="_parent">
<polygon fill="none" stroke="black" points="392.5,-358 315.5,-358 315.5,-322 392.5,-322 392.5,-358"/>
<text text-anchor="middle" x="354" y="-337.2" font-family="Courier New" font-size="11.00">disSearch</text>
</a>
</g>
<!-- _disSolrSearch -->
<g id="node58" class="node"><title>_disSolrSearch</title>
<a xlink:href="_search_dissolrsearch.class.html" xlink:title="disSolrSearch" target="_parent">
<polygon fill="none" stroke="black" points="684,-358 580,-358 580,-322 684,-322 684,-358"/>
<text text-anchor="middle" x="632" y="-337.2" font-family="Courier New" font-size="11.00">disSolrSearch</text>
</a>
</g>
<!-- _disSolrSearch&#45;&gt;_disSearch -->
<g id="edge99" class="edge"><title>_disSolrSearch-&gt;_disSearch</title>
<path fill="none" stroke="black" d="M579.733,-340C529.085,-340 452.225,-340 402.812,-340"/>
<polygon fill="none" stroke="black" points="402.703,-336.5 392.703,-340 402.703,-343.5 402.703,-336.5"/>
</g>
<!-- _disStopForumSpam -->
<g id="node59" class="node"><title>_disStopForumSpam</title>
<a xlink:href="_spam_stopforumspam_disstopforumspam.class.html" xlink:title="disStopForumSpam" target="_parent">
<polygon fill="none" stroke="black" points="694.5,-142 569.5,-142 569.5,-106 694.5,-106 694.5,-142"/>
<text text-anchor="middle" x="632" y="-121.2" font-family="Courier New" font-size="11.00">disStopForumSpam</text>
</a>
</g>
</g>
<script xlink:href="js/SVGPan.js"/></svg>
