<?xml version="1.0" encoding="UTF-8" standalone="no"?>
<!DOCTYPE svg PUBLIC "-//W3C//DTD SVG 1.1//EN" "http://www.w3.org/Graphics/SVG/1.1/DTD/svg11.dtd">
<!-- Generated by graphviz version 2.28.0 (20110705.1713)
 -->
<!-- Title: G Pages: 1 -->
<svg xmlns="http://www.w3.org/2000/svg" xmlns:xlink="http://www.w3.org/1999/xlink" width="742pt" height="1806pt">
<g id="viewport" class="graph" transform="scale(1 1) rotate(0) translate(4 1802)">
<title>G</title>
<polygon fill="white" stroke="white" points="-4,5 -4,-1802 739,-1802 739,5 -4,5"/>
<g id="graph2" class="cluster"><title>cluster_default</title>
<polyline fill="none" stroke="gray" points="53,-98 714,-98 "/>
<path fill="none" stroke="gray" d="M714,-98C720,-98 726,-104 726,-110"/>
<polyline fill="none" stroke="gray" points="726,-110 726,-1778 "/>
<path fill="none" stroke="gray" d="M726,-1778C726,-1784 720,-1790 714,-1790"/>
<polyline fill="none" stroke="gray" points="714,-1790 53,-1790 "/>
<path fill="none" stroke="gray" d="M53,-1790C47,-1790 41,-1784 41,-1778"/>
<polyline fill="none" stroke="gray" points="41,-1778 41,-110 "/>
<path fill="none" stroke="gray" d="M41,-110C41,-104 47,-98 53,-98"/>
<text text-anchor="middle" x="383.5" y="-1777.2" font-family="Times,serif" font-size="11.00" fill="gray">default</text>
</g>
<!-- _disBoard -->
<g id="node2" class="node"><title>_disBoard</title>
<a xlink:href="_disboard.class.html" xlink:title="disBoard" target="_parent">
<polygon fill="none" stroke="black" points="389.5,-1006 318.5,-1006 318.5,-970 389.5,-970 389.5,-1006"/>
<text text-anchor="middle" x="354" y="-985.2" font-family="Courier New" font-size="11.00">disBoard</text>
</a>
</g>
<!-- _xPDOSimpleObject -->
<g id="node59" class="node"><title>_xPDOSimpleObject</title>
<ellipse fill="none" stroke="black" cx="88" cy="-72" rx="87.9851" ry="18"/>
<text text-anchor="middle" x="88" y="-68.3" font-family="Times,serif" font-size="14.00" fill="gray">\xPDOSimpleObject</text>
</g>
<!-- _disBoard&#45;&gt;_xPDOSimpleObject -->
<g id="edge3" class="edge"><title>_disBoard-&gt;_xPDOSimpleObject</title>
<path fill="none" stroke="black" d="M318.33,-988.797C294.805,-987.325 264.996,-981.138 248,-961 123.309,-813.255 300.987,-241.494 176,-94 174.064,-91.7157 171.929,-89.6503 169.635,-87.784"/>
<polygon fill="none" stroke="black" points="171.535,-84.8444 161.282,-82.176 167.633,-90.656 171.535,-84.8444"/>
</g>
<!-- _disBoardClosure -->
<g id="node3" class="node"><title>_disBoardClosure</title>
<a xlink:href="_disboardclosure.class.html" xlink:title="disBoardClosure" target="_parent">
<polygon fill="none" stroke="black" points="413,-466 295,-466 295,-430 413,-430 413,-466"/>
<text text-anchor="middle" x="354" y="-445.2" font-family="Courier New" font-size="11.00">disBoardClosure</text>
</a>
</g>
<!-- _xPDOObject -->
<g id="node61" class="node"><title>_xPDOObject</title>
<ellipse fill="none" stroke="black" cx="88" cy="-18" rx="61.99" ry="18"/>
<text text-anchor="middle" x="88" y="-14.3" font-family="Times,serif" font-size="14.00" fill="gray">\xPDOObject</text>
</g>
<!-- _disBoardClosure&#45;&gt;_xPDOObject -->
<g id="edge5" class="edge"><title>_disBoardClosure-&gt;_xPDOObject</title>
<path fill="none" stroke="black" d="M294.9,-444.8C277.673,-441.036 260.178,-433.964 248,-421 131.505,-296.988 289.407,-171.842 176,-45 169.885,-38.1601 162.073,-33.0338 153.648,-29.1955"/>
<polygon fill="none" stroke="black" points="154.903,-25.9282 144.316,-25.516 152.335,-32.4403 154.903,-25.9282"/>
</g>
<!-- _disBoardUserGroup -->
<g id="node4" class="node"><title>_disBoardUserGroup</title>
<a xlink:href="_disboardusergroup.class.html" xlink:title="disBoardUserGroup" target="_parent">
<polygon fill="none" stroke="black" points="419.5,-952 288.5,-952 288.5,-916 419.5,-916 419.5,-952"/>
<text text-anchor="middle" x="354" y="-931.2" font-family="Courier New" font-size="11.00">disBoardUserGroup</text>
</a>
</g>
<!-- _disBoardUserGroup&#45;&gt;_xPDOSimpleObject -->
<g id="edge7" class="edge"><title>_disBoardUserGroup-&gt;_xPDOSimpleObject</title>
<path fill="none" stroke="black" d="M288.35,-930.138C273.052,-926.105 258.23,-919.055 248,-907 130.641,-768.713 293.636,-232.051 176,-94 174.058,-91.721 171.917,-89.6602 169.619,-87.7976"/>
<polygon fill="none" stroke="black" points="171.511,-84.8527 161.254,-82.2 167.618,-90.6703 171.511,-84.8527"/>
</g>
<!-- _disCategory -->
<g id="node5" class="node"><title>_disCategory</title>
<a xlink:href="_discategory.class.html" xlink:title="disCategory" target="_parent">
<polygon fill="none" stroke="black" points="399.5,-898 308.5,-898 308.5,-862 399.5,-862 399.5,-898"/>
<text text-anchor="middle" x="354" y="-877.2" font-family="Courier New" font-size="11.00">disCategory</text>
</a>
</g>
<!-- _disCategory&#45;&gt;_xPDOSimpleObject -->
<g id="edge9" class="edge"><title>_disCategory-&gt;_xPDOSimpleObject</title>
<path fill="none" stroke="black" d="M308.271,-879.81C286.857,-877.24 262.73,-870.247 248,-853 137.97,-724.167 286.288,-222.612 176,-94 174.051,-91.7271 171.904,-89.6714 169.6,-87.8132"/>
<polygon fill="none" stroke="black" points="171.484,-84.8623 161.222,-82.2274 167.601,-90.6866 171.484,-84.8623"/>
</g>
<!-- _Discuss -->
<g id="node6" class="node"><title>_Discuss</title>
<a xlink:href="_discuss.class.html" xlink:title="Discuss" target="_parent">
<polygon fill="none" stroke="black" points="657,-1762 593,-1762 593,-1726 657,-1726 657,-1762"/>
<text text-anchor="middle" x="625" y="-1741.2" font-family="Courier New" font-size="11.00">Discuss</text>
</a>
</g>
<!-- _disForumActivity -->
<g id="node7" class="node"><title>_disForumActivity</title>
<a xlink:href="_disforumactivity.class.html" xlink:title="disForumActivity" target="_parent">
<polygon fill="none" stroke="black" points="416.5,-844 291.5,-844 291.5,-808 416.5,-808 416.5,-844"/>
<text text-anchor="middle" x="354" y="-823.2" font-family="Courier New" font-size="11.00">disForumActivity</text>
</a>
</g>
<!-- _disForumActivity&#45;&gt;_xPDOSimpleObject -->
<g id="edge11" class="edge"><title>_disForumActivity-&gt;_xPDOSimpleObject</title>
<path fill="none" stroke="black" d="M291.47,-822.799C275.125,-818.912 258.986,-811.77 248,-799 42.5912,-560.234 381.887,-332.353 176,-94 174.043,-91.7341 171.889,-89.6844 169.579,-87.8312"/>
<polygon fill="none" stroke="black" points="171.452,-84.8734 161.185,-82.2592 167.581,-90.7055 171.452,-84.8734"/>
</g>
<!-- _disHooks -->
<g id="node8" class="node"><title>_disHooks</title>
<a xlink:href="_dishooks.class.html" xlink:title="disHooks" target="_parent">
<polygon fill="none" stroke="black" points="660.5,-1708 589.5,-1708 589.5,-1672 660.5,-1672 660.5,-1708"/>
<text text-anchor="middle" x="625" y="-1687.2" font-family="Courier New" font-size="11.00">disHooks</text>
</a>
</g>
<!-- _disLogActivity -->
<g id="node9" class="node"><title>_disLogActivity</title>
<a xlink:href="_dislogactivity.class.html" xlink:title="disLogActivity" target="_parent">
<polygon fill="none" stroke="black" points="409.5,-790 298.5,-790 298.5,-754 409.5,-754 409.5,-790"/>
<text text-anchor="middle" x="354" y="-769.2" font-family="Courier New" font-size="11.00">disLogActivity</text>
</a>
</g>
<!-- _disLogActivity&#45;&gt;_xPDOSimpleObject -->
<g id="edge13" class="edge"><title>_disLogActivity-&gt;_xPDOSimpleObject</title>
<path fill="none" stroke="black" d="M298.383,-770.187C279.806,-766.733 260.582,-759.501 248,-745 57.233,-525.123 367.207,-313.494 176,-94 173.985,-91.6872 171.766,-89.6001 169.385,-87.7175"/>
<polygon fill="none" stroke="black" points="171.021,-84.6057 160.733,-82.0745 167.197,-90.469 171.021,-84.6057"/>
</g>
<!-- _disModerator -->
<g id="node10" class="node"><title>_disModerator</title>
<a xlink:href="_dismoderator.class.html" xlink:title="disModerator" target="_parent">
<polygon fill="none" stroke="black" points="403,-736 305,-736 305,-700 403,-700 403,-736"/>
<text text-anchor="middle" x="354" y="-715.2" font-family="Courier New" font-size="11.00">disModerator</text>
</a>
</g>
<!-- _disModerator&#45;&gt;_xPDOSimpleObject -->
<g id="edge15" class="edge"><title>_disModerator-&gt;_xPDOSimpleObject</title>
<path fill="none" stroke="black" d="M304.974,-717.19C284.51,-714.257 262.142,-707.138 248,-691 71.8629,-489.999 352.54,-294.648 176,-94 173.974,-91.6972 171.745,-89.6185 169.356,-87.743"/>
<polygon fill="none" stroke="black" points="170.977,-84.6225 160.682,-82.1191 167.169,-90.4961 170.977,-84.6225"/>
</g>
<!-- _disPost -->
<g id="node11" class="node"><title>_disPost</title>
<a xlink:href="_dispost.class.html" xlink:title="disPost" target="_parent">
<polygon fill="none" stroke="black" points="386,-1438 322,-1438 322,-1402 386,-1402 386,-1438"/>
<text text-anchor="middle" x="354" y="-1417.2" font-family="Courier New" font-size="11.00">disPost</text>
</a>
</g>
<!-- _disPost&#45;&gt;_xPDOSimpleObject -->
<g id="edge17" class="edge"><title>_disPost-&gt;_xPDOSimpleObject</title>
<path fill="none" stroke="black" d="M321.65,-1421.12C297.569,-1420.12 265.553,-1414.39 248,-1393 64.5873,-1169.52 359.86,-317.114 176,-94 174.096,-91.6893 171.987,-89.6015 169.716,-87.7163"/>
<polygon fill="none" stroke="black" points="171.657,-84.8038 161.424,-82.0569 167.711,-90.5854 171.657,-84.8038"/>
</g>
<!-- _disPostAttachment -->
<g id="node12" class="node"><title>_disPostAttachment</title>
<a xlink:href="_dispostattachment.class.html" xlink:title="disPostAttachment" target="_parent">
<polygon fill="none" stroke="black" points="419.5,-1384 288.5,-1384 288.5,-1348 419.5,-1348 419.5,-1384"/>
<text text-anchor="middle" x="354" y="-1363.2" font-family="Courier New" font-size="11.00">disPostAttachment</text>
</a>
</g>
<!-- _disPostAttachment&#45;&gt;_xPDOSimpleObject -->
<g id="edge19" class="edge"><title>_disPostAttachment-&gt;_xPDOSimpleObject</title>
<path fill="none" stroke="black" d="M288.373,-1362.42C272.979,-1358.4 258.105,-1351.28 248,-1339 71.9315,-1124.99 352.497,-307.657 176,-94 174.093,-91.6916 171.982,-89.6058 169.709,-87.7221"/>
<polygon fill="none" stroke="black" points="171.646,-84.8073 161.412,-82.0672 167.704,-90.5915 171.646,-84.8073"/>
</g>
<!-- _disPostClosure -->
<g id="node13" class="node"><title>_disPostClosure</title>
<a xlink:href="_dispostclosure.class.html" xlink:title="disPostClosure" target="_parent">
<polygon fill="none" stroke="black" points="409.5,-520 298.5,-520 298.5,-484 409.5,-484 409.5,-520"/>
<text text-anchor="middle" x="354" y="-499.2" font-family="Courier New" font-size="11.00">disPostClosure</text>
</a>
</g>
<!-- _disPostClosure&#45;&gt;_xPDOObject -->
<g id="edge21" class="edge"><title>_disPostClosure-&gt;_xPDOObject</title>
<path fill="none" stroke="black" d="M298.271,-499.696C279.909,-496.164 260.854,-489.006 248,-475 116.984,-332.233 303.462,-190.948 176,-45 169.965,-38.0894 162.197,-32.9243 153.791,-29.0685"/>
<polygon fill="none" stroke="black" points="155.058,-25.8059 144.472,-25.3778 152.481,-32.3141 155.058,-25.8059"/>
</g>
<!-- _disReservedUsername -->
<g id="node14" class="node"><title>_disReservedUsername</title>
<a xlink:href="_disreservedusername.class.html" xlink:title="disReservedUsername" target="_parent">
<polygon fill="none" stroke="black" points="426.5,-682 281.5,-682 281.5,-646 426.5,-646 426.5,-682"/>
<text text-anchor="middle" x="354" y="-661.2" font-family="Courier New" font-size="11.00">disReservedUsername</text>
</a>
</g>
<!-- _disReservedUsername&#45;&gt;_xPDOObject -->
<g id="edge23" class="edge"><title>_disReservedUsername-&gt;_xPDOObject</title>
<path fill="none" stroke="black" d="M281.287,-657.729C268.645,-653.505 256.75,-646.976 248,-637 73.2168,-437.746 345.826,-248.496 176,-45 170.121,-37.9557 162.439,-32.7176 154.072,-28.8287"/>
<polygon fill="none" stroke="black" points="155.363,-25.5754 144.778,-25.1168 152.767,-32.0761 155.363,-25.5754"/>
</g>
<!-- _disSession -->
<g id="node15" class="node"><title>_disSession</title>
<a xlink:href="_dissession.class.html" xlink:title="disSession" target="_parent">
<polygon fill="none" stroke="black" points="396,-628 312,-628 312,-592 396,-592 396,-628"/>
<text text-anchor="middle" x="354" y="-607.2" font-family="Courier New" font-size="11.00">disSession</text>
</a>
</g>
<!-- _disSession&#45;&gt;_xPDOObject -->
<g id="edge25" class="edge"><title>_disSession-&gt;_xPDOObject</title>
<path fill="none" stroke="black" d="M311.975,-609.959C289.836,-607.66 263.871,-600.875 248,-583 87.8297,-402.602 331.682,-229.286 176,-45 170.079,-37.9911 162.374,-32.7724 153.997,-28.8923"/>
<polygon fill="none" stroke="black" points="155.281,-25.6364 144.696,-25.186 152.69,-32.1392 155.281,-25.6364"/>
</g>
<!-- _disThread -->
<g id="node16" class="node"><title>_disThread</title>
<a xlink:href="_disthread.class.html" xlink:title="disThread" target="_parent">
<polygon fill="none" stroke="black" points="126.5,-1546 49.5,-1546 49.5,-1510 126.5,-1510 126.5,-1546"/>
<text text-anchor="middle" x="88" y="-1525.2" font-family="Courier New" font-size="11.00">disThread</text>
</a>
</g>
<!-- _disThread&#45;&gt;_xPDOSimpleObject -->
<g id="edge27" class="edge"><title>_disThread-&gt;_xPDOSimpleObject</title>
<path fill="none" stroke="black" d="M88,-1509.75C88,-1039.89 88,-570.035 88,-100.18"/>
<polygon fill="none" stroke="black" points="91.5001,-100.129 88,-90.1289 84.5001,-100.129 91.5001,-100.129"/>
</g>
<!-- _disThreadDiscussion -->
<g id="node17" class="node"><title>_disThreadDiscussion</title>
<a xlink:href="_disthreaddiscussion.class.html" xlink:title="disThreadDiscussion" target="_parent">
<polygon fill="none" stroke="black" points="426.5,-1546 281.5,-1546 281.5,-1510 426.5,-1510 426.5,-1546"/>
<text text-anchor="middle" x="354" y="-1525.2" font-family="Courier New" font-size="11.00">disThreadDiscussion</text>
</a>
</g>
<!-- _disThreadDiscussion&#45;&gt;_disThread -->
<g id="edge29" class="edge"><title>_disThreadDiscussion-&gt;_disThread</title>
<path fill="none" stroke="black" d="M281.21,-1528C235.279,-1528 176.971,-1528 136.684,-1528"/>
<polygon fill="none" stroke="black" points="136.593,-1524.5 126.593,-1528 136.593,-1531.5 136.593,-1524.5"/>
</g>
<!-- _disThreadQuestion -->
<g id="node18" class="node"><title>_disThreadQuestion</title>
<a xlink:href="_disthreadquestion.class.html" xlink:title="disThreadQuestion" target="_parent">
<polygon fill="none" stroke="black" points="419.5,-1492 288.5,-1492 288.5,-1456 419.5,-1456 419.5,-1492"/>
<text text-anchor="middle" x="354" y="-1471.2" font-family="Courier New" font-size="11.00">disThreadQuestion</text>
</a>
</g>
<!-- _disThreadQuestion&#45;&gt;_disThread -->
<g id="edge31" class="edge"><title>_disThreadQuestion-&gt;_disThread</title>
<path fill="none" stroke="black" d="M288.418,-1487.21C241.5,-1496.81 179.048,-1509.58 136.62,-1518.26"/>
<polygon fill="none" stroke="black" points="135.916,-1514.83 126.82,-1520.26 137.319,-1521.69 135.916,-1514.83"/>
</g>
<!-- _disThreadRead -->
<g id="node19" class="node"><title>_disThreadRead</title>
<a xlink:href="_disthreadread.class.html" xlink:title="disThreadRead" target="_parent">
<polygon fill="none" stroke="black" points="406,-1222 302,-1222 302,-1186 406,-1186 406,-1222"/>
<text text-anchor="middle" x="354" y="-1201.2" font-family="Courier New" font-size="11.00">disThreadRead</text>
</a>
</g>
<!-- _disThreadRead&#45;&gt;_xPDOSimpleObject -->
<g id="edge33" class="edge"><title>_disThreadRead-&gt;_xPDOSimpleObject</title>
<path fill="none" stroke="black" d="M301.857,-1203.13C282.083,-1200.03 261.103,-1192.79 248,-1177 93.9584,-991.399 330.413,-279.292 176,-94 174.083,-91.6998 171.964,-89.621 169.683,-87.7433"/>
<polygon fill="none" stroke="black" points="171.608,-84.8198 161.367,-82.1044 167.679,-90.6135 171.608,-84.8198"/>
</g>
<!-- _disThreadUser -->
<g id="node20" class="node"><title>_disThreadUser</title>
<a xlink:href="_disthreaduser.class.html" xlink:title="disThreadUser" target="_parent">
<polygon fill="none" stroke="black" points="406,-574 302,-574 302,-538 406,-538 406,-574"/>
<text text-anchor="middle" x="354" y="-553.2" font-family="Courier New" font-size="11.00">disThreadUser</text>
</a>
</g>
<!-- _disThreadUser&#45;&gt;_xPDOObject -->
<g id="edge35" class="edge"><title>_disThreadUser-&gt;_xPDOObject</title>
<path fill="none" stroke="black" d="M301.939,-554.504C282.421,-551.267 261.607,-544.102 248,-529 102.422,-367.434 317.558,-210.101 176,-45 170.028,-38.0347 162.294,-32.8397 153.905,-28.9704"/>
<polygon fill="none" stroke="black" points="155.181,-25.7115 144.596,-25.271 152.596,-32.2167 155.181,-25.7115"/>
</g>
<!-- _disTreeParser -->
<g id="node21" class="node"><title>_disTreeParser</title>
<a xlink:href="_distreeparser.class.html" xlink:title="disTreeParser" target="_parent">
<polygon fill="none" stroke="black" points="677,-1654 573,-1654 573,-1618 677,-1618 677,-1654"/>
<text text-anchor="middle" x="625" y="-1633.2" font-family="Courier New" font-size="11.00">disTreeParser</text>
</a>
</g>
<!-- _disUser -->
<g id="node22" class="node"><title>_disUser</title>
<a xlink:href="_disuser.class.html" xlink:title="disUser" target="_parent">
<polygon fill="none" stroke="black" points="386,-1168 322,-1168 322,-1132 386,-1132 386,-1168"/>
<text text-anchor="middle" x="354" y="-1147.2" font-family="Courier New" font-size="11.00">disUser</text>
</a>
</g>
<!-- _disUser&#45;&gt;_xPDOSimpleObject -->
<g id="edge37" class="edge"><title>_disUser-&gt;_xPDOSimpleObject</title>
<path fill="none" stroke="black" d="M321.734,-1151.05C297.7,-1150.01 265.708,-1144.26 248,-1123 101.298,-946.866 323.054,-269.839 176,-94 174.079,-91.7031 171.956,-89.6272 169.673,-87.7518"/>
<polygon fill="none" stroke="black" points="171.593,-84.825 161.349,-82.1195 167.67,-90.6224 171.593,-84.825"/>
</g>
<!-- _disUserFriend -->
<g id="node23" class="node"><title>_disUserFriend</title>
<a xlink:href="_disuserfriend.class.html" xlink:title="disUserFriend" target="_parent">
<polygon fill="none" stroke="black" points="406,-1114 302,-1114 302,-1078 406,-1078 406,-1114"/>
<text text-anchor="middle" x="354" y="-1093.2" font-family="Courier New" font-size="11.00">disUserFriend</text>
</a>
</g>
<!-- _disUserFriend&#45;&gt;_xPDOSimpleObject -->
<g id="edge39" class="edge"><title>_disUserFriend-&gt;_xPDOSimpleObject</title>
<path fill="none" stroke="black" d="M301.914,-1095.08C282.149,-1091.97 261.16,-1084.74 248,-1069 108.637,-902.331 315.697,-260.389 176,-94 174.075,-91.7068 171.948,-89.634 169.661,-87.7613"/>
<polygon fill="none" stroke="black" points="171.576,-84.8307 161.329,-82.1362 167.659,-90.6324 171.576,-84.8307"/>
</g>
<!-- _disUserGroupProfile -->
<g id="node24" class="node"><title>_disUserGroupProfile</title>
<a xlink:href="_disusergroupprofile.class.html" xlink:title="disUserGroupProfile" target="_parent">
<polygon fill="none" stroke="black" points="426.5,-1060 281.5,-1060 281.5,-1024 426.5,-1024 426.5,-1060"/>
<text text-anchor="middle" x="354" y="-1039.2" font-family="Courier New" font-size="11.00">disUserGroupProfile</text>
</a>
</g>
<!-- _disUserGroupProfile&#45;&gt;_xPDOSimpleObject -->
<g id="edge41" class="edge"><title>_disUserGroupProfile-&gt;_xPDOSimpleObject</title>
<path fill="none" stroke="black" d="M281.483,-1036.2C268.666,-1031.96 256.655,-1025.31 248,-1015 115.974,-857.795 308.341,-250.94 176,-94 174.07,-91.711 171.939,-89.6417 169.649,-87.772"/>
<polygon fill="none" stroke="black" points="171.557,-84.8371 161.307,-82.1549 167.647,-90.6435 171.557,-84.8371"/>
</g>
<!-- _disUserModerated -->
<g id="node25" class="node"><title>_disUserModerated</title>
<a xlink:href="_disusermoderated.class.html" xlink:title="disUserModerated" target="_parent">
<polygon fill="none" stroke="black" points="416.5,-1330 291.5,-1330 291.5,-1294 416.5,-1294 416.5,-1330"/>
<text text-anchor="middle" x="354" y="-1309.2" font-family="Courier New" font-size="11.00">disUserModerated</text>
</a>
</g>
<!-- _disUserModerated&#45;&gt;_xPDOSimpleObject -->
<g id="edge43" class="edge"><title>_disUserModerated-&gt;_xPDOSimpleObject</title>
<path fill="none" stroke="black" d="M291.405,-1309.15C274.957,-1305.28 258.78,-1298.07 248,-1285 79.2748,-1080.46 345.135,-298.201 176,-94 174.09,-91.6941 171.977,-89.6104 169.701,-87.7285"/>
<polygon fill="none" stroke="black" points="171.635,-84.8111 161.398,-82.0785 167.696,-90.5981 171.635,-84.8111"/>
</g>
<!-- _disUserNotification -->
<g id="node26" class="node"><title>_disUserNotification</title>
<a xlink:href="_disusernotification.class.html" xlink:title="disUserNotification" target="_parent">
<polygon fill="none" stroke="black" points="426.5,-1276 281.5,-1276 281.5,-1240 426.5,-1240 426.5,-1276"/>
<text text-anchor="middle" x="354" y="-1255.2" font-family="Courier New" font-size="11.00">disUserNotification</text>
</a>
</g>
<!-- _disUserNotification&#45;&gt;_xPDOSimpleObject -->
<g id="edge45" class="edge"><title>_disUserNotification-&gt;_xPDOSimpleObject</title>
<path fill="none" stroke="black" d="M281.364,-1252.3C268.556,-1248.05 256.579,-1241.37 248,-1231 86.6172,-1035.93 337.773,-288.745 176,-94 174.087,-91.6968 171.97,-89.6154 169.692,-87.7355"/>
<polygon fill="none" stroke="black" points="171.622,-84.8152 161.383,-82.0908 167.688,-90.6055 171.622,-84.8152"/>
</g>
<!-- _DisSmfImport -->
<g id="node27" class="node"><title>_DisSmfImport</title>
<a xlink:href="_import_dissmfimport.class.html" xlink:title="DisSmfImport" target="_parent">
<polygon fill="none" stroke="black" points="674,-1600 576,-1600 576,-1564 674,-1564 674,-1600"/>
<text text-anchor="middle" x="625" y="-1579.2" font-family="Courier New" font-size="11.00">DisSmfImport</text>
</a>
</g>
<!-- _disBoard_mysql -->
<g id="node28" class="node"><title>_disBoard_mysql</title>
<a xlink:href="_mysql_disboard.class.html" xlink:title="disBoard_mysql" target="_parent">
<polygon fill="none" stroke="black" points="680.5,-1006 569.5,-1006 569.5,-970 680.5,-970 680.5,-1006"/>
<text text-anchor="middle" x="625" y="-985.2" font-family="Courier New" font-size="11.00">disBoard_mysql</text>
</a>
</g>
<!-- _disBoard_mysql&#45;&gt;_disBoard -->
<g id="edge47" class="edge"><title>_disBoard_mysql-&gt;_disBoard</title>
<path fill="none" stroke="black" d="M569.24,-988C519.254,-988 446.272,-988 399.713,-988"/>
<polygon fill="none" stroke="black" points="399.624,-984.5 389.624,-988 399.624,-991.5 399.624,-984.5"/>
</g>
<!-- _disBoardClosure_mysql -->
<g id="node29" class="node"><title>_disBoardClosure_mysql</title>
<a xlink:href="_mysql_disboardclosure.class.html" xlink:title="disBoardClosure_mysql" target="_parent">
<polygon fill="none" stroke="black" points="704,-466 546,-466 546,-430 704,-430 704,-466"/>
<text text-anchor="middle" x="625" y="-445.2" font-family="Courier New" font-size="11.00">disBoardClosure_mysql</text>
</a>
</g>
<!-- _disBoardClosure_mysql&#45;&gt;_disBoardClosure -->
<g id="edge49" class="edge"><title>_disBoardClosure_mysql-&gt;_disBoardClosure</title>
<path fill="none" stroke="black" d="M545.833,-448C507.123,-448 460.816,-448 423.512,-448"/>
<polygon fill="none" stroke="black" points="423.243,-444.5 413.243,-448 423.243,-451.5 423.243,-444.5"/>
</g>
<!-- _disBoardUserGroup_mysql -->
<g id="node30" class="node"><title>_disBoardUserGroup_mysql</title>
<a xlink:href="_mysql_disboardusergroup.class.html" xlink:title="disBoardUserGroup_mysql" target="_parent">
<polygon fill="none" stroke="black" points="711,-952 539,-952 539,-916 711,-916 711,-952"/>
<text text-anchor="middle" x="625" y="-931.2" font-family="Courier New" font-size="11.00">disBoardUserGroup_mysql</text>
</a>
</g>
<!-- _disBoardUserGroup_mysql&#45;&gt;_disBoardUserGroup -->
<g id="edge51" class="edge"><title>_disBoardUserGroup_mysql-&gt;_disBoardUserGroup</title>
<path fill="none" stroke="black" d="M538.887,-934C503.874,-934 463.676,-934 429.811,-934"/>
<polygon fill="none" stroke="black" points="429.518,-930.5 419.518,-934 429.518,-937.5 429.518,-930.5"/>
</g>
<!-- _disCategory_mysql -->
<g id="node31" class="node"><title>_disCategory_mysql</title>
<a xlink:href="_mysql_discategory.class.html" xlink:title="disCategory_mysql" target="_parent">
<polygon fill="none" stroke="black" points="690.5,-898 559.5,-898 559.5,-862 690.5,-862 690.5,-898"/>
<text text-anchor="middle" x="625" y="-877.2" font-family="Courier New" font-size="11.00">disCategory_mysql</text>
</a>
</g>
<!-- _disCategory_mysql&#45;&gt;_disCategory -->
<g id="edge53" class="edge"><title>_disCategory_mysql-&gt;_disCategory</title>
<path fill="none" stroke="black" d="M559.225,-880C513.601,-880 453.182,-880 409.919,-880"/>
<polygon fill="none" stroke="black" points="409.861,-876.5 399.861,-880 409.861,-883.5 409.861,-876.5"/>
</g>
<!-- _disForumActivity_mysql -->
<g id="node32" class="node"><title>_disForumActivity_mysql</title>
<a xlink:href="_mysql_disforumactivity.class.html" xlink:title="disForumActivity_mysql" target="_parent">
<polygon fill="none" stroke="black" points="707.5,-844 542.5,-844 542.5,-808 707.5,-808 707.5,-844"/>
<text text-anchor="middle" x="625" y="-823.2" font-family="Courier New" font-size="11.00">disForumActivity_mysql</text>
</a>
</g>
<!-- _disForumActivity_mysql&#45;&gt;_disForumActivity -->
<g id="edge55" class="edge"><title>_disForumActivity_mysql-&gt;_disForumActivity</title>
<path fill="none" stroke="black" d="M542.196,-826C505.477,-826 462.534,-826 427.047,-826"/>
<polygon fill="none" stroke="black" points="426.769,-822.5 416.769,-826 426.769,-829.5 426.769,-822.5"/>
</g>
<!-- _disLogActivity_mysql -->
<g id="node33" class="node"><title>_disLogActivity_mysql</title>
<a xlink:href="_mysql_dislogactivity.class.html" xlink:title="disLogActivity_mysql" target="_parent">
<polygon fill="none" stroke="black" points="701,-790 549,-790 549,-754 701,-754 701,-790"/>
<text text-anchor="middle" x="625" y="-769.2" font-family="Courier New" font-size="11.00">disLogActivity_mysql</text>
</a>
</g>
<!-- _disLogActivity_mysql&#45;&gt;_disLogActivity -->
<g id="edge57" class="edge"><title>_disLogActivity_mysql-&gt;_disLogActivity</title>
<path fill="none" stroke="black" d="M548.711,-772C508.19,-772 458.711,-772 419.902,-772"/>
<polygon fill="none" stroke="black" points="419.768,-768.5 409.768,-772 419.768,-775.5 419.768,-768.5"/>
</g>
<!-- _disModerator_mysql -->
<g id="node34" class="node"><title>_disModerator_mysql</title>
<a xlink:href="_mysql_dismoderator.class.html" xlink:title="disModerator_mysql" target="_parent">
<polygon fill="none" stroke="black" points="694,-736 556,-736 556,-700 694,-700 694,-736"/>
<text text-anchor="middle" x="625" y="-715.2" font-family="Courier New" font-size="11.00">disModerator_mysql</text>
</a>
</g>
<!-- _disModerator_mysql&#45;&gt;_disModerator -->
<g id="edge59" class="edge"><title>_disModerator_mysql-&gt;_disModerator</title>
<path fill="none" stroke="black" d="M555.772,-718C511.771,-718 455.153,-718 413.265,-718"/>
<polygon fill="none" stroke="black" points="413.219,-714.5 403.219,-718 413.219,-721.5 413.219,-714.5"/>
</g>
<!-- _disPost_mysql -->
<g id="node35" class="node"><title>_disPost_mysql</title>
<a xlink:href="_mysql_dispost.class.html" xlink:title="disPost_mysql" target="_parent">
<polygon fill="none" stroke="black" points="677,-1438 573,-1438 573,-1402 677,-1402 677,-1438"/>
<text text-anchor="middle" x="625" y="-1417.2" font-family="Courier New" font-size="11.00">disPost_mysql</text>
</a>
</g>
<!-- _disPost_mysql&#45;&gt;_disPost -->
<g id="edge61" class="edge"><title>_disPost_mysql-&gt;_disPost</title>
<path fill="none" stroke="black" d="M572.77,-1420C521.609,-1420 443.948,-1420 396.512,-1420"/>
<polygon fill="none" stroke="black" points="396.292,-1416.5 386.292,-1420 396.292,-1423.5 396.292,-1416.5"/>
</g>
<!-- _disPostAttachment_mysql -->
<g id="node36" class="node"><title>_disPostAttachment_mysql</title>
<a xlink:href="_mysql_dispostattachment.class.html" xlink:title="disPostAttachment_mysql" target="_parent">
<polygon fill="none" stroke="black" points="711,-1384 539,-1384 539,-1348 711,-1348 711,-1384"/>
<text text-anchor="middle" x="625" y="-1363.2" font-family="Courier New" font-size="11.00">disPostAttachment_mysql</text>
</a>
</g>
<!-- _disPostAttachment_mysql&#45;&gt;_disPostAttachment -->
<g id="edge63" class="edge"><title>_disPostAttachment_mysql-&gt;_disPostAttachment</title>
<path fill="none" stroke="black" d="M538.887,-1366C503.874,-1366 463.676,-1366 429.811,-1366"/>
<polygon fill="none" stroke="black" points="429.518,-1362.5 419.518,-1366 429.518,-1369.5 429.518,-1362.5"/>
</g>
<!-- _disPostClosure_mysql -->
<g id="node37" class="node"><title>_disPostClosure_mysql</title>
<a xlink:href="_mysql_dispostclosure.class.html" xlink:title="disPostClosure_mysql" target="_parent">
<polygon fill="none" stroke="black" points="701,-520 549,-520 549,-484 701,-484 701,-520"/>
<text text-anchor="middle" x="625" y="-499.2" font-family="Courier New" font-size="11.00">disPostClosure_mysql</text>
</a>
</g>
<!-- _disPostClosure_mysql&#45;&gt;_disPostClosure -->
<g id="edge65" class="edge"><title>_disPostClosure_mysql-&gt;_disPostClosure</title>
<path fill="none" stroke="black" d="M548.711,-502C508.19,-502 458.711,-502 419.902,-502"/>
<polygon fill="none" stroke="black" points="419.768,-498.5 409.768,-502 419.768,-505.5 419.768,-498.5"/>
</g>
<!-- _disReservedUsername_mysql -->
<g id="node38" class="node"><title>_disReservedUsername_mysql</title>
<a xlink:href="_mysql_disreservedusername.class.html" xlink:title="disReservedUsername_mysql" target="_parent">
<polygon fill="none" stroke="black" points="717.5,-682 532.5,-682 532.5,-646 717.5,-646 717.5,-682"/>
<text text-anchor="middle" x="625" y="-661.2" font-family="Courier New" font-size="11.00">disReservedUsername_mysql</text>
</a>
</g>
<!-- _disReservedUsername_mysql&#45;&gt;_disReservedUsername -->
<g id="edge67" class="edge"><title>_disReservedUsername_mysql-&gt;_disReservedUsername</title>
<path fill="none" stroke="black" d="M532.178,-664C501.274,-664 467.016,-664 436.925,-664"/>
<polygon fill="none" stroke="black" points="436.891,-660.5 426.891,-664 436.891,-667.5 436.891,-660.5"/>
</g>
<!-- _disSession_mysql -->
<g id="node39" class="node"><title>_disSession_mysql</title>
<a xlink:href="_mysql_dissession.class.html" xlink:title="disSession_mysql" target="_parent">
<polygon fill="none" stroke="black" points="687.5,-628 562.5,-628 562.5,-592 687.5,-592 687.5,-628"/>
<text text-anchor="middle" x="625" y="-607.2" font-family="Courier New" font-size="11.00">disSession_mysql</text>
</a>
</g>
<!-- _disSession_mysql&#45;&gt;_disSession -->
<g id="edge69" class="edge"><title>_disSession_mysql-&gt;_disSession</title>
<path fill="none" stroke="black" d="M562.286,-610C515.185,-610 451.042,-610 406.639,-610"/>
<polygon fill="none" stroke="black" points="406.359,-606.5 396.359,-610 406.359,-613.5 406.359,-606.5"/>
</g>
<!-- _disThread_mysql -->
<g id="node40" class="node"><title>_disThread_mysql</title>
<a xlink:href="_mysql_disthread.class.html" xlink:title="disThread_mysql" target="_parent">
<polygon fill="none" stroke="black" points="413,-1600 295,-1600 295,-1564 413,-1564 413,-1600"/>
<text text-anchor="middle" x="354" y="-1579.2" font-family="Courier New" font-size="11.00">disThread_mysql</text>
</a>
</g>
<!-- _disThread_mysql&#45;&gt;_disThread -->
<g id="edge71" class="edge"><title>_disThread_mysql-&gt;_disThread</title>
<path fill="none" stroke="black" d="M294.737,-1570.08C247.263,-1560.37 181.053,-1546.83 136.691,-1537.75"/>
<polygon fill="none" stroke="black" points="137.239,-1534.29 126.741,-1535.72 135.837,-1541.15 137.239,-1534.29"/>
</g>
<!-- _disThreadDiscussion_mysql -->
<g id="node41" class="node"><title>_disThreadDiscussion_mysql</title>
<a xlink:href="_mysql_disthreaddiscussion.class.html" xlink:title="disThreadDiscussion_mysql" target="_parent">
<polygon fill="none" stroke="black" points="717.5,-1546 532.5,-1546 532.5,-1510 717.5,-1510 717.5,-1546"/>
<text text-anchor="middle" x="625" y="-1525.2" font-family="Courier New" font-size="11.00">disThreadDiscussion_mysql</text>
</a>
</g>
<!-- _disThreadDiscussion_mysql&#45;&gt;_disThreadDiscussion -->
<g id="edge73" class="edge"><title>_disThreadDiscussion_mysql-&gt;_disThreadDiscussion</title>
<path fill="none" stroke="black" d="M532.178,-1528C501.274,-1528 467.016,-1528 436.925,-1528"/>
<polygon fill="none" stroke="black" points="436.891,-1524.5 426.891,-1528 436.891,-1531.5 436.891,-1524.5"/>
</g>
<!-- _disThreadQuestion_mysql -->
<g id="node42" class="node"><title>_disThreadQuestion_mysql</title>
<a xlink:href="_mysql_disthreadquestion.class.html" xlink:title="disThreadQuestion_mysql" target="_parent">
<polygon fill="none" stroke="black" points="711,-1492 539,-1492 539,-1456 711,-1456 711,-1492"/>
<text text-anchor="middle" x="625" y="-1471.2" font-family="Courier New" font-size="11.00">disThreadQuestion_mysql</text>
</a>
</g>
<!-- _disThreadQuestion_mysql&#45;&gt;_disThreadQuestion -->
<g id="edge75" class="edge"><title>_disThreadQuestion_mysql-&gt;_disThreadQuestion</title>
<path fill="none" stroke="black" d="M538.887,-1474C503.874,-1474 463.676,-1474 429.811,-1474"/>
<polygon fill="none" stroke="black" points="429.518,-1470.5 419.518,-1474 429.518,-1477.5 429.518,-1470.5"/>
</g>
<!-- _disThreadRead_mysql -->
<g id="node43" class="node"><title>_disThreadRead_mysql</title>
<a xlink:href="_mysql_disthreadread.class.html" xlink:title="disThreadRead_mysql" target="_parent">
<polygon fill="none" stroke="black" points="697.5,-1222 552.5,-1222 552.5,-1186 697.5,-1186 697.5,-1222"/>
<text text-anchor="middle" x="625" y="-1201.2" font-family="Courier New" font-size="11.00">disThreadRead_mysql</text>
</a>
</g>
<!-- _disThreadRead_mysql&#45;&gt;_disThreadRead -->
<g id="edge77" class="edge"><title>_disThreadRead_mysql-&gt;_disThreadRead</title>
<path fill="none" stroke="black" d="M552.266,-1204C509.886,-1204 456.789,-1204 416.36,-1204"/>
<polygon fill="none" stroke="black" points="416.106,-1200.5 406.106,-1204 416.106,-1207.5 416.106,-1200.5"/>
</g>
<!-- _disThreadUser_mysql -->
<g id="node44" class="node"><title>_disThreadUser_mysql</title>
<a xlink:href="_mysql_disthreaduser.class.html" xlink:title="disThreadUser_mysql" target="_parent">
<polygon fill="none" stroke="black" points="697.5,-574 552.5,-574 552.5,-538 697.5,-538 697.5,-574"/>
<text text-anchor="middle" x="625" y="-553.2" font-family="Courier New" font-size="11.00">disThreadUser_mysql</text>
</a>
</g>
<!-- _disThreadUser_mysql&#45;&gt;_disThreadUser -->
<g id="edge79" class="edge"><title>_disThreadUser_mysql-&gt;_disThreadUser</title>
<path fill="none" stroke="black" d="M552.266,-556C509.886,-556 456.789,-556 416.36,-556"/>
<polygon fill="none" stroke="black" points="416.106,-552.5 406.106,-556 416.106,-559.5 416.106,-552.5"/>
</g>
<!-- _disUser_mysql -->
<g id="node45" class="node"><title>_disUser_mysql</title>
<a xlink:href="_mysql_disuser.class.html" xlink:title="disUser_mysql" target="_parent">
<polygon fill="none" stroke="black" points="677,-1168 573,-1168 573,-1132 677,-1132 677,-1168"/>
<text text-anchor="middle" x="625" y="-1147.2" font-family="Courier New" font-size="11.00">disUser_mysql</text>
</a>
</g>
<!-- _disUser_mysql&#45;&gt;_disUser -->
<g id="edge81" class="edge"><title>_disUser_mysql-&gt;_disUser</title>
<path fill="none" stroke="black" d="M572.77,-1150C521.609,-1150 443.948,-1150 396.512,-1150"/>
<polygon fill="none" stroke="black" points="396.292,-1146.5 386.292,-1150 396.292,-1153.5 396.292,-1146.5"/>
</g>
<!-- _disUserFriend_mysql -->
<g id="node46" class="node"><title>_disUserFriend_mysql</title>
<a xlink:href="_mysql_disuserfriend.class.html" xlink:title="disUserFriend_mysql" target="_parent">
<polygon fill="none" stroke="black" points="697.5,-1114 552.5,-1114 552.5,-1078 697.5,-1078 697.5,-1114"/>
<text text-anchor="middle" x="625" y="-1093.2" font-family="Courier New" font-size="11.00">disUserFriend_mysql</text>
</a>
</g>
<!-- _disUserFriend_mysql&#45;&gt;_disUserFriend -->
<g id="edge83" class="edge"><title>_disUserFriend_mysql-&gt;_disUserFriend</title>
<path fill="none" stroke="black" d="M552.266,-1096C509.886,-1096 456.789,-1096 416.36,-1096"/>
<polygon fill="none" stroke="black" points="416.106,-1092.5 406.106,-1096 416.106,-1099.5 416.106,-1092.5"/>
</g>
<!-- _disUserGroupProfile_mysql -->
<g id="node47" class="node"><title>_disUserGroupProfile_mysql</title>
<a xlink:href="_mysql_disusergroupprofile.class.html" xlink:title="disUserGroupProfile_mysql" target="_parent">
<polygon fill="none" stroke="black" points="717.5,-1060 532.5,-1060 532.5,-1024 717.5,-1024 717.5,-1060"/>
<text text-anchor="middle" x="625" y="-1039.2" font-family="Courier New" font-size="11.00">disUserGroupProfile_mysql</text>
</a>
</g>
<!-- _disUserGroupProfile_mysql&#45;&gt;_disUserGroupProfile -->
<g id="edge85" class="edge"><title>_disUserGroupProfile_mysql-&gt;_disUserGroupProfile</title>
<path fill="none" stroke="black" d="M532.178,-1042C501.274,-1042 467.016,-1042 436.925,-1042"/>
<polygon fill="none" stroke="black" points="436.891,-1038.5 426.891,-1042 436.891,-1045.5 436.891,-1038.5"/>
</g>
<!-- _disUserModerated_mysql -->
<g id="node48" class="node"><title>_disUserModerated_mysql</title>
<a xlink:href="_mysql_disusermoderated.class.html" xlink:title="disUserModerated_mysql" target="_parent">
<polygon fill="none" stroke="black" points="707.5,-1330 542.5,-1330 542.5,-1294 707.5,-1294 707.5,-1330"/>
<text text-anchor="middle" x="625" y="-1309.2" font-family="Courier New" font-size="11.00">disUserModerated_mysql</text>
</a>
</g>
<!-- _disUserModerated_mysql&#45;&gt;_disUserModerated -->
<g id="edge87" class="edge"><title>_disUserModerated_mysql-&gt;_disUserModerated</title>
<path fill="none" stroke="black" d="M542.196,-1312C505.477,-1312 462.534,-1312 427.047,-1312"/>
<polygon fill="none" stroke="black" points="426.769,-1308.5 416.769,-1312 426.769,-1315.5 426.769,-1308.5"/>
</g>
<!-- _disUserNotification_mysql -->
<g id="node49" class="node"><title>_disUserNotification_mysql</title>
<a xlink:href="_mysql_disusernotification.class.html" xlink:title="disUserNotification_mysql" target="_parent">
<polygon fill="none" stroke="black" points="717.5,-1276 532.5,-1276 532.5,-1240 717.5,-1240 717.5,-1276"/>
<text text-anchor="middle" x="625" y="-1255.2" font-family="Courier New" font-size="11.00">disUserNotification_mysql</text>
</a>
</g>
<!-- _disUserNotification_mysql&#45;&gt;_disUserNotification -->
<g id="edge89" class="edge"><title>_disUserNotification_mysql-&gt;_disUserNotification</title>
<path fill="none" stroke="black" d="M532.178,-1258C501.274,-1258 467.016,-1258 436.925,-1258"/>
<polygon fill="none" stroke="black" points="436.891,-1254.5 426.891,-1258 436.891,-1261.5 436.891,-1254.5"/>
</g>
<!-- _disBBCodeParser -->
<g id="node50" class="node"><title>_disBBCodeParser</title>
<a xlink:href="_parser_disbbcodeparser.class.html" xlink:title="disBBCodeParser" target="_parent">
<polygon fill="none" stroke="black" points="684,-412 566,-412 566,-376 684,-376 684,-412"/>
<text text-anchor="middle" x="625" y="-391.2" font-family="Courier New" font-size="11.00">disBBCodeParser</text>
</a>
</g>
<!-- _disParser -->
<g id="node51" class="node"><title>_disParser</title>
<a xlink:href="_parser_disparser.class.html" xlink:title="&lt;I&gt;_disParser&lt;/I&gt;" target="_parent">
<polygon fill="none" stroke="black" points="396.5,-412 311.5,-412 311.5,-376 396.5,-376 396.5,-412"/>
<text text-anchor="start" x="320" y="-392.2" font-family="Courier New" font-size="11.00">_disParser</text>
</a>
</g>
<!-- _disBBCodeParser&#45;&gt;_disParser -->
<g id="edge91" class="edge"><title>_disBBCodeParser-&gt;_disParser</title>
<path fill="none" stroke="black" d="M565.962,-394C518.677,-394 452.511,-394 406.951,-394"/>
<polygon fill="none" stroke="black" points="406.698,-390.5 396.698,-394 406.698,-397.5 406.698,-390.5"/>
</g>
<!-- _disConnectorRequest -->
<g id="node52" class="node"><title>_disConnectorRequest</title>
<a xlink:href="_request_disconnectorrequest.class.html" xlink:title="disConnectorRequest" target="_parent">
<polygon fill="none" stroke="black" points="697.5,-304 552.5,-304 552.5,-268 697.5,-268 697.5,-304"/>
<text text-anchor="middle" x="625" y="-283.2" font-family="Courier New" font-size="11.00">disConnectorRequest</text>
</a>
</g>
<!-- _modConnectorResponse -->
<g id="node106" class="node"><title>_modConnectorResponse</title>
<ellipse fill="none" stroke="black" cx="354" cy="-72" rx="105.082" ry="18"/>
<text text-anchor="middle" x="354" y="-68.3" font-family="Times,serif" font-size="14.00" fill="gray">\modConnectorResponse</text>
</g>
<!-- _disConnectorRequest&#45;&gt;_modConnectorResponse -->
<g id="edge93" class="edge"><title>_disConnectorRequest-&gt;_modConnectorResponse</title>
<path fill="none" stroke="black" d="M552.362,-271.954C544.975,-268.534 537.994,-264.283 532,-259 471.974,-206.098 522.066,-144.493 460,-94 456.8,-91.3967 453.368,-89.0792 449.768,-87.0176"/>
<polygon fill="none" stroke="black" points="451.02,-83.731 440.508,-82.4026 447.897,-89.996 451.02,-83.731"/>
</g>
<!-- _DisControllerRequest -->
<g id="node53" class="node"><title>_DisControllerRequest</title>
<a xlink:href="_request_discontrollerrequest.class.html" xlink:title="DisControllerRequest" target="_parent">
<polygon fill="none" stroke="black" points="701,-196 549,-196 549,-160 701,-160 701,-196"/>
<text text-anchor="middle" x="625" y="-175.2" font-family="Courier New" font-size="11.00">DisControllerRequest</text>
</a>
</g>
<!-- _modRequest -->
<g id="node108" class="node"><title>_modRequest</title>
<ellipse fill="none" stroke="black" cx="354" cy="-18" rx="59.5901" ry="18"/>
<text text-anchor="middle" x="354" y="-14.3" font-family="Times,serif" font-size="14.00" fill="gray">\modRequest</text>
</g>
<!-- _DisControllerRequest&#45;&gt;_modRequest -->
<g id="edge95" class="edge"><title>_DisControllerRequest-&gt;_modRequest</title>
<path fill="none" stroke="black" d="M548.6,-160.713C542.733,-157.94 537.112,-154.726 532,-151 485.975,-117.457 506.585,-77.7614 460,-45 448.116,-36.6425 433.853,-30.8702 419.726,-26.884"/>
<polygon fill="none" stroke="black" points="420.553,-23.483 409.998,-24.3998 418.821,-30.2653 420.553,-23.483"/>
</g>
<!-- _DisRequest -->
<g id="node54" class="node"><title>_DisRequest</title>
<a xlink:href="_request_disrequest.class.html" xlink:title="DisRequest" target="_parent">
<polygon fill="none" stroke="black" points="667,-250 583,-250 583,-214 667,-214 667,-250"/>
<text text-anchor="middle" x="625" y="-229.2" font-family="Courier New" font-size="11.00">DisRequest</text>
</a>
</g>
<!-- _disSearch -->
<g id="node55" class="node"><title>_disSearch</title>
<a xlink:href="_search_dissearch.class.html" xlink:title="disSearch" target="_parent">
<polygon fill="none" stroke="black" points="392.5,-358 315.5,-358 315.5,-322 392.5,-322 392.5,-358"/>
<text text-anchor="middle" x="354" y="-337.2" font-family="Courier New" font-size="11.00">disSearch</text>
</a>
</g>
<!-- _disSolrSearch -->
<g id="node56" class="node"><title>_disSolrSearch</title>
<a xlink:href="_search_dissolrsearch.class.html" xlink:title="disSolrSearch" target="_parent">
<polygon fill="none" stroke="black" points="677,-358 573,-358 573,-322 677,-322 677,-358"/>
<text text-anchor="middle" x="625" y="-337.2" font-family="Courier New" font-size="11.00">disSolrSearch</text>
</a>
</g>
<!-- _disSolrSearch&#45;&gt;_disSearch -->
<g id="edge97" class="edge"><title>_disSolrSearch-&gt;_disSearch</title>
<path fill="none" stroke="black" d="M572.77,-340C523.774,-340 450.473,-340 402.692,-340"/>
<polygon fill="none" stroke="black" points="402.606,-336.5 392.606,-340 402.606,-343.5 402.606,-336.5"/>
</g>
<!-- _disStopForumSpam -->
<g id="node57" class="node"><title>_disStopForumSpam</title>
<a xlink:href="_spam_stopforumspam_disstopforumspam.class.html" xlink:title="disStopForumSpam" target="_parent">
<polygon fill="none" stroke="black" points="687.5,-142 562.5,-142 562.5,-106 687.5,-106 687.5,-142"/>
<text text-anchor="middle" x="625" y="-121.2" font-family="Courier New" font-size="11.00">disStopForumSpam</text>
</a>
</g>
</g>
<script xlink:href="js/SVGPan.js"/></svg>
