<?xml version="1.0" encoding="iso-8859-1"?>
<!-- Generator: Adobe Illustrator 16.0.0, SVG Export Plug-In . SVG Version: 6.00 Build 0)  -->
<!DOCTYPE svg PUBLIC "-//W3C//DTD SVG 1.1//EN" "http://www.w3.org/Graphics/SVG/1.1/DTD/svg11.dtd">
<svg version="1.1" xmlns="http://www.w3.org/2000/svg" xmlns:xlink="http://www.w3.org/1999/xlink" x="0px" y="0px" width="262px"
	 height="67px" viewBox="0 0 262 67" style="enable-background:new 0 0 262 67;" xml:space="preserve">
<g id="Layer_2" style="display:none;">
	<rect style="display:inline;fill:#254D69;" width="262" height="67"/>
</g>
<g id="Layer_3" style="display:none;">
	<g id="nZXpOJ.tif" style="display:inline;">
		
			<image style="overflow:visible;" width="262" height="66" id="Layer_0" xlink:href="F171E9CAD69E97F1.png"  transform="matrix(1 0 0 1 0 0.5)">
		</image>
	</g>
</g>
<g id="Layer_1">
	<path style="fill:#FFFFFF;" d="M182.451,23.512c2.832,0,8.73,1.066,8.73,4.665v2.499h-2.233V28.81c0-2.299-3.998-3.199-6.397-3.199
		c-5.43,0-9.529,4.132-9.529,9.795c0,5.831,4.1,10.229,9.663,10.229c1.899,0,6.631-0.732,6.631-3.198v-1.833h2.232v2.499
		c0,3.399-5.697,4.631-8.93,4.631c-6.997,0-12.028-5.464-12.028-12.261C170.59,28.643,175.754,23.512,182.451,23.512z"/>
	<path style="fill:#FFFFFF;" d="M196.473,25.777h-2.966v-1.866h5.231v19.06c0,1.365,0.366,2.498,1.898,2.498
		c0.601,0,0.934-0.066,0.934-0.066v1.933c0,0-0.633,0.1-1.299,0.1c-2.2,0-3.799-1.099-3.799-4.297V25.777z"/>
	<path style="fill:#FFFFFF;" d="M212.021,30.176c4.897,0,8.863,3.732,8.863,8.697c0,5.063-3.966,8.861-8.863,8.861
		c-4.865,0-8.829-3.798-8.829-8.861C203.191,33.908,207.155,30.176,212.021,30.176z M212.021,45.702
		c3.599,0,6.531-2.933,6.531-6.829c0-3.8-2.933-6.665-6.531-6.665c-3.564,0-6.497,2.865-6.497,6.665
		C205.523,42.77,208.456,45.702,212.021,45.702z"/>
	<path style="fill:#FFFFFF;" d="M225.127,32.44h-2.998v-1.865h5.264v10.096c0,2.632,0.399,4.964,3.665,4.964
		c3.766,0,6.164-3.465,6.164-7.098V32.44h-2.998v-1.865h5.264V44.77c0,0.499,0.268,0.732,0.734,0.732h1.898v1.833h-2.832
		c-1.399,0-1.999-0.599-1.999-1.866v-0.833c0-0.666,0.033-1.2,0.033-1.2h-0.066c-0.434,1.268-2.5,4.299-6.631,4.299
		c-3.864,0-5.498-2.131-5.498-6.497V32.44z"/>
	<path style="fill:#FFFFFF;" d="M251.703,30.176c3.999,0,5.466,3.265,5.466,3.265h0.065c0,0-0.1-0.566-0.1-1.299v-6.364h-2.998
		v-1.866h5.265v20.825c0,0.499,0.266,0.732,0.732,0.732H262v1.866h-2.767c-1.432,0-1.999-0.633-1.999-1.833v-0.3
		c0-0.666,0.134-1.032,0.134-1.032h-0.067c0,0-1.433,3.564-5.896,3.564c-4.498,0-7.264-3.599-7.264-8.763
		C244.141,33.641,247.239,30.176,251.703,30.176z M251.771,45.702c2.799,0,5.431-1.999,5.431-6.73c0-3.432-1.732-6.731-5.297-6.731
		c-3,0-5.432,2.465-5.432,6.731C246.473,43.07,248.639,45.702,251.771,45.702z"/>
	<linearGradient id="SVGID_1_" gradientUnits="userSpaceOnUse" x1="52.7852" y1="20.3301" x2="31.753" y2="6.6347">
		<stop  offset="0" style="stop-color:#FFFFFF;stop-opacity:0.8"/>
		<stop  offset="1" style="stop-color:#CCCCCC;stop-opacity:0.8"/>
	</linearGradient>
	<polygon style="fill:url(#SVGID_1_);" points="45.803,28.669 57.592,9.808 29.235,9.808 25.315,16.094 	"/>
	<linearGradient id="SVGID_2_" gradientUnits="userSpaceOnUse" x1="56.4761" y1="51.957" x2="40.7525" y2="41.5736">
		<stop  offset="0" style="stop-color:#FFFFFF;stop-opacity:0.8"/>
		<stop  offset="0.2611" style="stop-color:#FAFAFA;stop-opacity:0.8"/>
		<stop  offset="0.5775" style="stop-color:#EBEBEB;stop-opacity:0.8"/>
		<stop  offset="0.9214" style="stop-color:#D3D3D3;stop-opacity:0.8"/>
		<stop  offset="1" style="stop-color:#CCCCCC;stop-opacity:0.8"/>
	</linearGradient>
	<polygon style="fill:url(#SVGID_2_);" points="52.039,62.867 52.039,34.511 45.92,30.687 33.058,51.007 	"/>
	<linearGradient id="SVGID_3_" gradientUnits="userSpaceOnUse" x1="4.6704" y1="29.7778" x2="34.7484" y2="10.983">
		<stop  offset="0" style="stop-color:#AAAAAA;stop-opacity:0.8"/>
		<stop  offset="1" style="stop-color:#FFFFFF;stop-opacity:0.8"/>
	</linearGradient>
	<polygon style="fill:url(#SVGID_3_);" points="6.365,4.133 6.365,32.489 12.926,36.313 45.798,28.667 	"/>
	<linearGradient id="SVGID_4_" gradientUnits="userSpaceOnUse" x1="11.2373" y1="63.416" x2="35.6866" y2="24.289">
		<stop  offset="0" style="stop-color:#CCCCCC;stop-opacity:0.8"/>
		<stop  offset="1" style="stop-color:#FFFFFF;stop-opacity:0.8"/>
	</linearGradient>
	<polygon style="fill:url(#SVGID_4_);" points="12.788,38.476 1,57.019 29.356,57.019 45.925,30.687 	"/>
	<path style="fill:#FFFFFF;" d="M61.396,44.965h2.997l1.532-18.889h-3.064v-2.639h6.81l6.162,14.74
		c0.375,0.993,0.544,1.749,0.544,1.749h0.068c0,0,0.17-0.756,0.545-1.749l6.163-14.74h6.809v2.639h-3.064l1.532,18.889h2.997v2.673
		h-9.261v-2.673h2.893L83.97,30.498c-0.034-0.754,0.102-1.988,0.102-1.988H83.97c0,0-0.272,1.165-0.544,1.851L77.91,43.079h-2.996
		l-5.516-12.718c-0.272-0.686-0.545-1.851-0.545-1.851H68.75c0,0,0.137,1.233,0.103,1.988l-1.089,14.467h2.894v2.673h-9.261V44.965z
		"/>
	<path style="fill:#FFFFFF;" d="M105.661,23.024c6.947,0,12.359,5.382,12.359,12.342c0,7.129-5.412,12.685-12.359,12.685
		c-6.979,0-12.36-5.556-12.36-12.685C93.301,28.407,98.681,23.024,105.661,23.024z M105.661,44.999c4.868,0,8.818-4.183,8.818-9.633
		c0-5.28-3.95-9.325-8.818-9.325c-4.903,0-8.853,4.045-8.853,9.325C96.808,40.816,100.758,44.999,105.661,44.999z"/>
	<path style="fill:#FFFFFF;" d="M120.287,44.965h2.996V26.076h-2.996v-2.639h10.248c2.009,0,3.506,0.103,5.107,0.583
		c4.597,1.44,7.592,5.622,7.592,11.517c0,5.862-2.894,9.942-7.592,11.451c-1.566,0.514-3.167,0.65-5.073,0.65h-10.282V44.965z
		 M130.365,44.827c1.566,0,2.859-0.137,4.086-0.617c3.233-1.131,5.243-4.251,5.243-8.674c0-4.456-2.01-7.575-5.209-8.74
		c-1.329-0.48-2.554-0.549-4.12-0.549h-3.677v18.58H130.365z"/>
	<path style="fill:#FFFFFF;" d="M144.434,44.965h2.248l6.196-9.565l-6.096-9.324h-2.213v-2.639h7.611v2.639h-1.788l3.983,6.342
		c0.374,0.514,0.612,0.959,0.612,0.959h0.068c0,0,0.203-0.445,0.578-0.959l3.848-6.342h-1.722v-2.639h7.374v2.639h-2.247
		l-6.231,9.633l6.129,9.256h2.281v2.673h-7.611v-2.673h1.755l-4.018-6.309c-0.376-0.548-0.612-0.994-0.612-0.994h-0.068
		c-0.034,0-0.205,0.446-0.544,0.994l-3.884,6.309h1.757v2.673h-7.407V44.965z"/>
</g>
</svg>
